<svg id="scrubber_buttons" data-name="scrubber buttons" xmlns="http://www.w3.org/2000/svg" width="140" height="140" viewBox="0 0 140 140">
  <metadata><?xpacket begin="﻿" id="W5M0MpCehiHzreSzNTczkc9d"?>
<x:xmpmeta xmlns:x="adobe:ns:meta/" x:xmptk="Adobe XMP Core 5.6-c142 79.160924, 2017/07/13-01:06:39        ">
   <rdf:RDF xmlns:rdf="http://www.w3.org/1999/02/22-rdf-syntax-ns#">
      <rdf:Description rdf:about=""/>
   </rdf:RDF>
</x:xmpmeta>
                                                                                                    
                                                                                                    
                                                                                                    
                                                                                                    
                                                                                                    
                                                                                                    
                                                                                                    
                                                                                                    
                                                                                                    
                                                                                                    
                                                                                                    
                                                                                                    
                                                                                                    
                                                                                                    
                                                                                                    
                                                                                                    
                                                                                                    
                                                                                                    
                                                                                                    
                                                                                                    
                           
<?xpacket end="w"?></metadata>
<defs>
    <style>
      .cls-1 {
        fill: #fff;
        fill-rule: evenodd;
      }
    </style>
  </defs>
  <g id="audio_on" data-name="audio on">
    <path id="Rounded_Rectangle_2_copy" data-name="Rounded Rectangle 2 copy" class="cls-1" d="M88.389,111.5a2.945,2.945,0,0,1-1.221.265,3.06,3.06,0,0,1-2.811-1.947,3.3,3.3,0,0,1,1.609-4.235c13.115-5.956,21.579-19.5,21.579-34.5,0-15.059-8.5-28.627-21.651-34.574a3.276,3.276,0,0,1-1.605-4.232,2.992,2.992,0,0,1,4.021-1.689c15.412,6.959,25.364,22.856,25.361,40.492C113.671,88.658,103.745,104.527,88.389,111.5Zm12.092-40.424c0,12.033-6.785,22.89-17.294,27.66A2.913,2.913,0,0,1,81.98,99a3.06,3.06,0,0,1-2.822-1.947,3.293,3.293,0,0,1,1.6-4.235,24.205,24.205,0,0,0-.07-43.549,3.285,3.285,0,0,1-1.6-4.232,3,3,0,0,1,4.021-1.695C93.662,48.112,100.481,58.993,100.481,71.075Zm-13.546-.005a15.909,15.909,0,0,1-9.077,14.543,2.894,2.894,0,0,1-1.223.269,3.061,3.061,0,0,1-2.811-1.937,3.292,3.292,0,0,1,1.595-4.24A9.618,9.618,0,0,0,75.352,62.4a3.278,3.278,0,0,1-1.612-4.229,3.005,3.005,0,0,1,4-1.711A15.878,15.878,0,0,1,86.935,71.069Z"/>
  </g>
  <g id="audio_off" data-name="audio off">
    <path id="Rounded_Rectangle_2_copy-2" data-name="Rounded Rectangle 2 copy" class="cls-1" d="M49.59,56.521h0.157L68.3,42.853v58.47L49.59,87.56V56.521ZM32.108,83.1V60.318a3.859,3.859,0,0,1,3.918-3.8h8.861V86.9H36.026A3.859,3.859,0,0,1,32.108,83.1Z"/>
  </g>
</svg>
