<svg xmlns="http://www.w3.org/2000/svg" xmlns:xlink="http://www.w3.org/1999/xlink" viewBox="0 0 491.05 427.34"><defs><style>.a{fill:url(#a);}.b{fill:url(#b);}.c{fill:#231f20;fill-rule:evenodd;}</style><linearGradient id="a" x1="374" y1="18" x2="374" y2="435.1" gradientUnits="userSpaceOnUse"><stop offset="0" stop-color="#ffcf48"/><stop offset="1" stop-color="#d4ab00"/></linearGradient><linearGradient id="b" x1="128.95" y1="18" x2="128.95" y2="435.1" xlink:href="#a"/></defs><title>CSSE_icon</title><path class="a" d="M493.91,402.14,276.2,29.22C265.29,14.67,260.19,12,252.89,12a15,15,0,0,0-1.89.13v426l220.69,1C493.29,439.36,502.26,416.42,493.91,402.14Z" transform="translate(-5.95 -12.04)"/><path class="b" d="M226.75,29.43,9,402.36c-8.35,14.28.62,37.21,22.22,37l220.69-1v-426a15,15,0,0,0-1.89-.13C242.76,12.26,237.66,14.89,226.75,29.43Z" transform="translate(-5.95 -12.04)"/><path class="c" d="M476.21,401.82,266.3,40.28c-3.7-6.35-9.1-9.82-14.37-9.82S241.25,33.62,237.65,40L29.09,401c-7.28,12.69-.31,23.78,16.28,23.78H461C475.48,424.75,483.62,414.5,476.21,401.82ZM48.85,404.36,253.3,59.07,456.67,404.36Z" transform="translate(-5.95 -12.04)"/><path class="c" d="M253.65,377.25a26.93,26.93,0,1,1,27-27A26.93,26.93,0,0,1,253.65,377.25Z" transform="translate(-5.95 -12.04)"/><path class="c" d="M226.52,191.07c0-17.6,12.11-31.93,27-31.93s27.06,14.33,27.51,31.71l-5.51,94.94c-.19,14.53-9.89,26-21.9,26s-21.72-11.5-21.72-25.72Z" transform="translate(-5.95 -12.04)"/></svg>