<svg xmlns="http://www.w3.org/2000/svg" width="50" height="50" viewBox="0 0 50 50">
  <metadata><?xpacket begin="﻿" id="W5M0MpCehiHzreSzNTczkc9d"?>
<x:xmpmeta xmlns:x="adobe:ns:meta/" x:xmptk="Adobe XMP Core 5.6-c142 79.160924, 2017/07/13-01:06:39        ">
   <rdf:RDF xmlns:rdf="http://www.w3.org/1999/02/22-rdf-syntax-ns#">
      <rdf:Description rdf:about=""/>
   </rdf:RDF>
</x:xmpmeta>
                                                                                                    
                                                                                                    
                                                                                                    
                                                                                                    
                                                                                                    
                                                                                                    
                                                                                                    
                                                                                                    
                                                                                                    
                                                                                                    
                                                                                                    
                                                                                                    
                                                                                                    
                                                                                                    
                                                                                                    
                                                                                                    
                                                                                                    
                                                                                                    
                                                                                                    
                                                                                                    
                           
<?xpacket end="w"?></metadata>
<defs>
    <style>
      .cls-1 {
        fill: #b5b6bc;
        fill-rule: evenodd;
      }
    </style>
  </defs>
  <path id="audio_on" data-name="audio on" class="cls-1" d="M30.6,38.184a1,1,0,0,1-.405.085,1.015,1.015,0,0,1-.932-0.628,1.051,1.051,0,0,1,.534-1.365,12.235,12.235,0,0,0-.024-22.271,1.044,1.044,0,0,1-.532-1.364,1,1,0,0,1,1.333-.545A14.332,14.332,0,0,1,30.6,38.184Zm4.008-13.033a9.714,9.714,0,0,1-5.733,8.918,0.988,0.988,0,0,1-.4.085,1.014,1.014,0,0,1-.936-0.628,1.05,1.05,0,0,1,.531-1.365,7.712,7.712,0,0,0-.023-14.041,1.047,1.047,0,0,1-.532-1.364,1,1,0,0,1,1.333-.546A9.729,9.729,0,0,1,34.606,25.151Zm-4.491,0a5.119,5.119,0,0,1-3.009,4.689,0.981,0.981,0,0,1-.405.087,1.015,1.015,0,0,1-.932-0.625,1.049,1.049,0,0,1,.529-1.367,3.064,3.064,0,0,0-.021-5.58,1.045,1.045,0,0,1-.535-1.363,1.006,1.006,0,0,1,1.328-.552A5.111,5.111,0,0,1,30.115,25.149ZM17.453,20.458h0.052l6.151-4.407V34.9l-6.2-4.438V20.458Zm-5.8,8.569V21.683a1.263,1.263,0,0,1,1.3-1.224h2.938v9.793H12.957A1.263,1.263,0,0,1,11.658,29.028Z"/>
</svg>
