<?xml version="1.0" encoding="utf-8"?>
<!-- Generator: Adobe Illustrator 22.1.0, SVG Export Plug-In . SVG Version: 6.00 Build 0)  -->
<svg version="1.1" id="Layer_1" xmlns="http://www.w3.org/2000/svg" xmlns:xlink="http://www.w3.org/1999/xlink" x="0px" y="0px"
	 viewBox="0 0 17 21" style="enable-background:new 0 0 17 21;" xml:space="preserve">
<style type="text/css">
	.st0{fill:#FFFFFF;}
</style>
<path id="lock" class="st0" d="M15.9,9.3H1.1C0.5,9.3,0,9.9,0,10.5c0,0,0,0,0,0v9.3C0,20.5,0.5,21,1.1,21c0,0,0,0,0,0h14.7
	c0.6,0,1.1-0.5,1.1-1.2c0,0,0,0,0,0v-9.3C17,9.9,16.5,9.3,15.9,9.3C15.9,9.3,15.9,9.3,15.9,9.3z M9.3,15.6l0.4,2.5H7.4l0.4-2.5
	c-0.8-0.4-1.2-1.5-0.8-2.3c0.4-0.8,1.4-1.2,2.2-0.8c0,0,0,0,0,0c0.8,0.4,1.2,1.5,0.8,2.3C9.9,15.1,9.6,15.4,9.3,15.6z M5.7,8.2V2.9
	h5.7v5.3h2.8V2.9c0-1.6-1.2-2.9-2.8-2.9H5.7C4.1,0,2.8,1.3,2.8,2.9v5.3H5.7z"/>
</svg>
