<svg xmlns="http://www.w3.org/2000/svg" viewBox="0 0 100.123 102.632"><defs><style>.cls-1{isolation:isolate;}.cls-2{fill:#059cbf;}.cls-3{fill:#f26524;}.cls-4{fill:#029cbf;}</style></defs><title>minerva_symbol_FINAL</title><g id="Layer_2_Image" data-name="Layer 2 Image" class="cls-1"><path class="cls-2" d="M50.972,33.278a17.21,17.21,0,1,0,17.21,17.211A17.211,17.211,0,0,0,50.972,33.278Zm-6.5,17.463a5.961,5.961,0,1,1,5.961-5.96A5.961,5.961,0,0,1,44.473,50.741Z"/><path class="cls-2" d="M77.393,54.92a3.627,3.627,0,0,1-5.1.284h0a3.652,3.652,0,0,1,.052-5.335Z"/><path class="cls-2" d="M72.181,50.038l5.065-5.05-.059.108-3.424-3.417L61.7,29.671l-.008-.01L54.274,22.2h0a3.467,3.467,0,0,1,.111-4.986,3.615,3.615,0,0,1,5.11-.07l-.042-.037,7.5,7.515L84.959,42.633l-.194-.205a3.617,3.617,0,0,1,0,5.115l-7.542,7.542Z"/><path class="cls-3" d="M47.715,77.881a3.626,3.626,0,0,1-.285-5.1h0a3.654,3.654,0,0,1,5.336.051Z"/><path class="cls-3" d="M52.6,72.671l5.05,5.065-.107-.061,3.416-3.422L72.964,62.19l.01-.008,7.458-7.419h0a3.469,3.469,0,0,1,4.987.111,3.617,3.617,0,0,1,.07,5.112l.037-.042-7.515,7.5L60,85.449l.2-.193a3.62,3.62,0,0,1-5.115,0l-7.541-7.542Z"/><path class="cls-4" d="M23.587,46.9a3.627,3.627,0,0,1,5.1-.285h0a3.653,3.653,0,0,1-.051,5.336Z"/><path class="cls-4" d="M28.8,51.777l-5.065,5.05.06-.108,3.424,3.417L39.281,72.143l.008.011,7.418,7.458h0A3.466,3.466,0,0,1,46.6,84.6a3.615,3.615,0,0,1-5.11.07l.041.037-7.5-7.514L16.021,59.181l.2.206a3.618,3.618,0,0,1-.005-5.116l7.542-7.54Z"/><path class="cls-3" d="M53.842,23.976a3.628,3.628,0,0,1,.284,5.1h0a3.653,3.653,0,0,1-5.336-.052Z"/><path class="cls-3" d="M48.959,29.188l-5.05-5.065.108.06L40.6,27.606,28.592,39.669l-.01.009L21.123,47.1h0a3.468,3.468,0,0,1-4.985-.111,3.614,3.614,0,0,1-.07-5.111l-.037.041,7.515-7.5L41.554,16.41l-.205.194a3.619,3.619,0,0,1,5.115,0l7.542,7.542Z"/></g></svg>