<svg xmlns="http://www.w3.org/2000/svg" viewBox="0 0 367.544 102.632"><defs><style>.cls-1{isolation:isolate;}.cls-2{fill:#059cbf;}.cls-3{fill:#f26524;}.cls-4{fill:#029cbf;}.cls-5{fill:#005097;}.cls-6{fill:#595a5d;}</style></defs><title>minerva_logo_FINAL</title><g id="Layer_2_Image" data-name="Layer 2 Image" class="cls-1"><path class="cls-2" d="M50.972,33.278a17.21,17.21,0,1,0,17.21,17.211A17.211,17.211,0,0,0,50.972,33.278Zm-6.5,17.463a5.961,5.961,0,1,1,5.961-5.96A5.961,5.961,0,0,1,44.473,50.741Z"/><path class="cls-2" d="M77.393,54.92a3.627,3.627,0,0,1-5.1.284h0a3.652,3.652,0,0,1,.052-5.335Z"/><path class="cls-2" d="M72.181,50.038l5.065-5.05-.059.108-3.424-3.417L61.7,29.671l-.008-.01L54.274,22.2h0a3.467,3.467,0,0,1,.111-4.986,3.615,3.615,0,0,1,5.11-.07l-.042-.037,7.5,7.515L84.959,42.633l-.194-.205a3.617,3.617,0,0,1,0,5.115l-7.542,7.542Z"/><path class="cls-3" d="M47.715,77.881a3.626,3.626,0,0,1-.285-5.1h0a3.654,3.654,0,0,1,5.336.051Z"/><path class="cls-3" d="M52.6,72.671l5.05,5.065-.107-.061,3.416-3.422L72.964,62.19l.01-.008,7.458-7.419h0a3.469,3.469,0,0,1,4.987.111,3.617,3.617,0,0,1,.07,5.112l.037-.042-7.515,7.5L60,85.449l.2-.193a3.62,3.62,0,0,1-5.115,0l-7.541-7.542Z"/><path class="cls-4" d="M23.587,46.9a3.627,3.627,0,0,1,5.1-.285h0a3.653,3.653,0,0,1-.051,5.336Z"/><path class="cls-4" d="M28.8,51.777l-5.065,5.05.06-.108,3.424,3.417L39.281,72.143l.008.011,7.418,7.458h0A3.466,3.466,0,0,1,46.6,84.6a3.615,3.615,0,0,1-5.11.07l.041.037-7.5-7.514L16.021,59.181l.2.206a3.618,3.618,0,0,1-.005-5.116l7.542-7.54Z"/><path class="cls-3" d="M53.842,23.976a3.628,3.628,0,0,1,.284,5.1h0a3.653,3.653,0,0,1-5.336-.052Z"/><path class="cls-3" d="M48.959,29.188l-5.05-5.065.108.06L40.6,27.606,28.592,39.669l-.01.009L21.123,47.1h0a3.468,3.468,0,0,1-4.985-.111,3.614,3.614,0,0,1-.07-5.111l-.037.041,7.515-7.5L41.554,16.41l-.205.194a3.619,3.619,0,0,1,5.115,0l7.542,7.542Z"/><path class="cls-5" d="M99.25,63.443v-.6a1.8,1.8,0,0,0,.919-.431,1.4,1.4,0,0,0,.21-.875V41.549a1.432,1.432,0,0,0-.221-.918,1.735,1.735,0,0,0-.908-.41v-.575h8.988v.575a1.061,1.061,0,0,0-.642.31.916.916,0,0,0-.221.642,1.35,1.35,0,0,0,.177.554,2.33,2.33,0,0,1,.133.265l6.353,12.53,6.752-12.53a3.2,3.2,0,0,0,.243-.5,1.1,1.1,0,0,0,.067-.365.75.75,0,0,0-.2-.554,1.752,1.752,0,0,0-.708-.354v-.575h8.766v.575a1.731,1.731,0,0,0-.918.443,1.438,1.438,0,0,0-.211.885v19.99a1.432,1.432,0,0,0,.222.908,1.572,1.572,0,0,0,.907.4v.6h-7.172v-.6a1.572,1.572,0,0,0,.907-.4,1.432,1.432,0,0,0,.222-.908V46.309l-9.187,16.957-8.766-16.957v15.23a1.43,1.43,0,0,0,.21.919,1.756,1.756,0,0,0,.874.387v.6Z"/><path class="cls-5" d="M143.369,61.539a1.422,1.422,0,0,0,.211.919,1.872,1.872,0,0,0,.874.409v.576h-7.438v-.6a1.587,1.587,0,0,0,.886-.409,1.51,1.51,0,0,0,.2-.9V41.549a1.067,1.067,0,0,0-1.085-1.328v-.575h7.438v.575a1.567,1.567,0,0,0-.863.388,1.467,1.467,0,0,0-.222.94Z"/><path class="cls-5" d="M158.223,47.305V61.539a1.422,1.422,0,0,0,.211.919,1.751,1.751,0,0,0,.874.387v.6h-6.8v-.6a1.8,1.8,0,0,0,.919-.431,1.4,1.4,0,0,0,.21-.875V41.549a1.432,1.432,0,0,0-.221-.918,1.739,1.739,0,0,0-.908-.41v-.575h8.523v.575a1.2,1.2,0,0,0-.543.244.627.627,0,0,0-.232.442.947.947,0,0,0,.144.487,3.263,3.263,0,0,0,.5.6l12.928,13.15V41.549a1.428,1.428,0,0,0-.21-.918,1.954,1.954,0,0,0-.919-.41v-.575h6.8v.575a1.628,1.628,0,0,0-.885.443,1.5,1.5,0,0,0-.2.885v19.99a1.481,1.481,0,0,0,.211.919,1.524,1.524,0,0,0,.874.387v.6h-7.836v-.6a1.127,1.127,0,0,0,.553-.243.544.544,0,0,0,.2-.421,1.01,1.01,0,0,0-.144-.5,2.923,2.923,0,0,0-.476-.587Z"/><path class="cls-5" d="M209.227,59.171a1.47,1.47,0,0,0,.941-.211,1.751,1.751,0,0,0,.387-.874h.576v6.486h-.576a1.783,1.783,0,0,0-.409-.9,1.378,1.378,0,0,0-.919-.232H187.6v-.6a1.8,1.8,0,0,0,.919-.431,1.4,1.4,0,0,0,.21-.875V41.549a1.432,1.432,0,0,0-.221-.918,1.739,1.739,0,0,0-.908-.41v-.575h21.363a1.369,1.369,0,0,0,.918-.222,1.878,1.878,0,0,0,.388-.907h.6v6.464h-.6a1.637,1.637,0,0,0-.377-.864,1.093,1.093,0,0,0-.752-.221H193.953V49.12h9.563a1.48,1.48,0,0,0,.929-.2,1.9,1.9,0,0,0,.4-.885h.576v6.021h-.576a1.574,1.574,0,0,0-.387-.863,1.473,1.473,0,0,0-.941-.222h-9.563v6.2Z"/><path class="cls-5" d="M218.525,63.443v-.6a1.572,1.572,0,0,0,.907-.4,1.432,1.432,0,0,0,.222-.908V41.549a1.445,1.445,0,0,0-.211-.885,1.731,1.731,0,0,0-.918-.443v-.575h14.964q4.648,0,7.217,1.815a5.857,5.857,0,0,1,2.568,5.069,6.31,6.31,0,0,1-1.583,4.417,9.924,9.924,0,0,1-4.881,2.623l5.025,7.017a5.608,5.608,0,0,0,1.007,1.118,10.992,10.992,0,0,0,1.8,1.14v.6H235.9v-.6a1.54,1.54,0,0,0,.742-.265.6.6,0,0,0,.254-.487,1.984,1.984,0,0,0-.177-.443,4.607,4.607,0,0,0-.376-.664L231.364,53.7h-6.486v7.836a1.435,1.435,0,0,0,.21.908,1.751,1.751,0,0,0,.919.4v.6ZM232.05,43.719h-7.172v6.53h7.35a9.964,9.964,0,0,0,4.637-.786,2.734,2.734,0,0,0,1.384-2.579,2.545,2.545,0,0,0-1.351-2.446A11.35,11.35,0,0,0,232.05,43.719Z"/><path class="cls-5" d="M248.963,42.5a5.742,5.742,0,0,0-.974-1.638,2.581,2.581,0,0,0-1.151-.642v-.575h8.323v.575a3.165,3.165,0,0,0-.929.454.682.682,0,0,0-.244.542,2.189,2.189,0,0,0,.222.709.41.41,0,0,1,.044.11l6.818,14.522,6.508-14.5a3.364,3.364,0,0,0,.189-.487,1.38,1.38,0,0,0,.055-.355.67.67,0,0,0-.255-.542,3.381,3.381,0,0,0-.918-.454v-.575h8.013v.575a3.1,3.1,0,0,0-1.948,1.882c-.074.162-.133.288-.177.376l-8.39,18.507a1.58,1.58,0,0,0-.066.343,4.056,4.056,0,0,0-.022.432.871.871,0,0,0,.243.642,2.214,2.214,0,0,0,.886.442v.6h-8.567v-.6a2.45,2.45,0,0,0,.874-.431.785.785,0,0,0,.255-.609,1.229,1.229,0,0,0-.045-.321,4.585,4.585,0,0,0-.177-.5Z"/><path class="cls-5" d="M273.513,63.443v-.6a3.291,3.291,0,0,0,2.015-2.036c.044-.1.088-.2.133-.288l8.832-18.485a2.875,2.875,0,0,0,.188-.431.853.853,0,0,0,.034-.233.9.9,0,0,0-.321-.686,2.394,2.394,0,0,0-.941-.465v-.575h8.058v.575a2.561,2.561,0,0,0-.9.443.732.732,0,0,0-.232.553,1.338,1.338,0,0,0,.055.355,4.089,4.089,0,0,0,.166.464l9.12,18.507a6.743,6.743,0,0,0,1.074,1.671,2.318,2.318,0,0,0,1.14.631v.6H293.37v-.6a2.456,2.456,0,0,0,.875-.431.788.788,0,0,0,.254-.609,1.4,1.4,0,0,0-.044-.332,3.634,3.634,0,0,0-.177-.487l-1.727-3.653H281.638L280,60.986a3.634,3.634,0,0,0-.177.487,1.4,1.4,0,0,0-.044.332.785.785,0,0,0,.255.609,2.441,2.441,0,0,0,.874.431v.6ZM287.26,45.711l-4.051,8.39h7.9Z"/><path class="cls-6" d="M98.4,79.265l2.482-.241a3.024,3.024,0,0,0,.909,1.835,2.746,2.746,0,0,0,1.848.586,2.846,2.846,0,0,0,1.857-.521,1.554,1.554,0,0,0,.625-1.22,1.152,1.152,0,0,0-.263-.762,2.094,2.094,0,0,0-.918-.547q-.449-.156-2.042-.552a6.934,6.934,0,0,1-2.878-1.249,3.289,3.289,0,0,1-1.163-2.542,3.245,3.245,0,0,1,.547-1.805,3.426,3.426,0,0,1,1.577-1.28,6.318,6.318,0,0,1,2.486-.439,5.332,5.332,0,0,1,3.58,1.042,3.681,3.681,0,0,1,1.262,2.784l-2.55.111a2.167,2.167,0,0,0-.7-1.4,2.572,2.572,0,0,0-1.615-.426,2.92,2.92,0,0,0-1.741.456.922.922,0,0,0-.4.785.971.971,0,0,0,.379.766,6.685,6.685,0,0,0,2.344.845,12.36,12.36,0,0,1,2.753.909,3.544,3.544,0,0,1,1.4,1.284,3.976,3.976,0,0,1-.1,4.045,3.613,3.613,0,0,1-1.706,1.409,7.162,7.162,0,0,1-2.749.461,5.472,5.472,0,0,1-3.679-1.107A4.818,4.818,0,0,1,98.4,79.265Z"/><path class="cls-6" d="M112.6,77.016l-2.2-.4a3.422,3.422,0,0,1,1.275-1.965,4.666,4.666,0,0,1,2.688-.638,5.786,5.786,0,0,1,2.413.384,2.406,2.406,0,0,1,1.116.973,5,5,0,0,1,.323,2.168l-.026,2.826a9.868,9.868,0,0,0,.116,1.779,5.19,5.19,0,0,0,.436,1.228h-2.4c-.063-.161-.141-.4-.232-.715-.041-.144-.069-.238-.087-.284a4.357,4.357,0,0,1-1.327.9,3.8,3.8,0,0,1-1.507.3,3.12,3.12,0,0,1-2.228-.767,2.547,2.547,0,0,1-.814-1.939,2.6,2.6,0,0,1,.37-1.383,2.414,2.414,0,0,1,1.039-.93A8.085,8.085,0,0,1,113.492,78a13.16,13.16,0,0,0,2.352-.594v-.242a1.253,1.253,0,0,0-.345-1,2.066,2.066,0,0,0-1.3-.3,1.735,1.735,0,0,0-1.008.254A1.769,1.769,0,0,0,112.6,77.016Zm3.24,1.965a15.042,15.042,0,0,1-1.474.37,4.448,4.448,0,0,0-1.318.422,1.011,1.011,0,0,0-.474.853,1.187,1.187,0,0,0,.379.879,1.325,1.325,0,0,0,.965.371,2.1,2.1,0,0,0,1.25-.431,1.514,1.514,0,0,0,.577-.8,4.8,4.8,0,0,0,.095-1.181Z"/><path class="cls-6" d="M119.549,74.224h1.344v-.689a4.569,4.569,0,0,1,.246-1.723,1.936,1.936,0,0,1,.905-.927,3.474,3.474,0,0,1,1.667-.357,6.737,6.737,0,0,1,2.025.31l-.328,1.689a4.776,4.776,0,0,0-1.111-.138.993.993,0,0,0-.754.245,1.426,1.426,0,0,0-.229.944v.646h1.81v1.9h-1.81v7.247h-2.421V76.128h-1.344Z"/><path class="cls-6" d="M131.785,80.463l2.412.405a3.957,3.957,0,0,1-1.469,2.02,4.311,4.311,0,0,1-2.512.694,4.091,4.091,0,0,1-3.532-1.56,5.234,5.234,0,0,1-.905-3.154,5.048,5.048,0,0,1,1.189-3.562,3.916,3.916,0,0,1,3.007-1.289,4.062,4.062,0,0,1,3.223,1.349,5.969,5.969,0,0,1,1.129,4.132H128.26a2.457,2.457,0,0,0,.586,1.676,1.834,1.834,0,0,0,1.4.6,1.484,1.484,0,0,0,.957-.31A1.926,1.926,0,0,0,131.785,80.463Zm.137-2.447a2.335,2.335,0,0,0-.542-1.6,1.748,1.748,0,0,0-2.568.03,2.238,2.238,0,0,0-.509,1.569Z"/><path class="cls-6" d="M140.5,74.224v1.93h-1.654v3.688a9.149,9.149,0,0,0,.047,1.306.537.537,0,0,0,.215.306.688.688,0,0,0,.41.12,3.126,3.126,0,0,0,.973-.232l.207,1.878a4.816,4.816,0,0,1-1.913.362,3.023,3.023,0,0,1-1.18-.22,1.715,1.715,0,0,1-.771-.568,2.244,2.244,0,0,1-.341-.944,11.864,11.864,0,0,1-.077-1.706v-3.99H135.3v-1.93h1.112V72.406l2.43-1.413v3.231Z"/><path class="cls-6" d="M141.03,74.224h2.577l2.188,6.5,2.137-6.5h2.508l-3.232,8.806-.577,1.594a6.493,6.493,0,0,1-.607,1.224,2.648,2.648,0,0,1-.664.685,2.889,2.889,0,0,1-.922.409,4.772,4.772,0,0,1-1.236.147,6.388,6.388,0,0,1-1.37-.147l-.216-1.895a5.412,5.412,0,0,0,1.026.112,1.518,1.518,0,0,0,1.249-.5,3.426,3.426,0,0,0,.62-1.262Z"/><path class="cls-6" d="M156.876,83.375V70.743h3.817l2.292,8.617,2.267-8.617h3.825V83.375h-2.369V73.432L164.2,83.375h-2.455l-2.5-9.943v9.943Z"/><path class="cls-6" d="M173.4,77.016l-2.2-.4a3.422,3.422,0,0,1,1.275-1.965,4.666,4.666,0,0,1,2.688-.638,5.79,5.79,0,0,1,2.413.384,2.411,2.411,0,0,1,1.116.973,5,5,0,0,1,.323,2.168L179,80.368a9.868,9.868,0,0,0,.116,1.779,5.19,5.19,0,0,0,.436,1.228h-2.4c-.063-.161-.141-.4-.232-.715-.041-.144-.069-.238-.087-.284a4.357,4.357,0,0,1-1.327.9,3.8,3.8,0,0,1-1.508.3,3.119,3.119,0,0,1-2.227-.767,2.547,2.547,0,0,1-.814-1.939,2.6,2.6,0,0,1,.37-1.383,2.414,2.414,0,0,1,1.039-.93A8.09,8.09,0,0,1,174.29,78a13.153,13.153,0,0,0,2.353-.594v-.242a1.253,1.253,0,0,0-.345-1,2.066,2.066,0,0,0-1.3-.3,1.735,1.735,0,0,0-1.008.254A1.769,1.769,0,0,0,173.4,77.016Zm3.24,1.965a15.042,15.042,0,0,1-1.474.37,4.448,4.448,0,0,0-1.318.422,1.011,1.011,0,0,0-.474.853,1.187,1.187,0,0,0,.379.879,1.325,1.325,0,0,0,.965.371,2.1,2.1,0,0,0,1.25-.431,1.514,1.514,0,0,0,.577-.8,4.8,4.8,0,0,0,.095-1.181Z"/><path class="cls-6" d="M189.732,83.375H187.31v-4.67a7.191,7.191,0,0,0-.155-1.917,1.343,1.343,0,0,0-.5-.677,1.448,1.448,0,0,0-.84-.241,1.941,1.941,0,0,0-1.129.345,1.74,1.74,0,0,0-.685.913,7.918,7.918,0,0,0-.185,2.1v4.145h-2.421V74.224h2.249v1.344a3.748,3.748,0,0,1,4.48-1.262,2.454,2.454,0,0,1,1,.737,2.664,2.664,0,0,1,.474,1.017,7.557,7.557,0,0,1,.134,1.628Z"/><path class="cls-6" d="M194,77.016l-2.2-.4a3.424,3.424,0,0,1,1.276-1.965,4.666,4.666,0,0,1,2.688-.638,5.79,5.79,0,0,1,2.413.384,2.416,2.416,0,0,1,1.116.973,5,5,0,0,1,.323,2.168l-.026,2.826a9.868,9.868,0,0,0,.116,1.779,5.229,5.229,0,0,0,.435,1.228h-2.395q-.095-.242-.233-.715c-.04-.144-.069-.238-.086-.284a4.357,4.357,0,0,1-1.327.9,3.8,3.8,0,0,1-1.508.3,3.119,3.119,0,0,1-2.227-.767,2.547,2.547,0,0,1-.814-1.939,2.6,2.6,0,0,1,.37-1.383,2.417,2.417,0,0,1,1.038-.93A8.085,8.085,0,0,1,194.884,78a13.153,13.153,0,0,0,2.353-.594v-.242a1.253,1.253,0,0,0-.345-1,2.068,2.068,0,0,0-1.3-.3,1.735,1.735,0,0,0-1.008.254A1.763,1.763,0,0,0,194,77.016Zm3.24,1.965a15.2,15.2,0,0,1-1.474.37,4.448,4.448,0,0,0-1.318.422,1.011,1.011,0,0,0-.474.853,1.187,1.187,0,0,0,.379.879,1.324,1.324,0,0,0,.965.371,2.1,2.1,0,0,0,1.25-.431,1.52,1.52,0,0,0,.577-.8,4.8,4.8,0,0,0,.095-1.181Z"/><path class="cls-6" d="M201.778,83.978l2.766.336a.948.948,0,0,0,.318.664,1.825,1.825,0,0,0,1.086.258,2.827,2.827,0,0,0,1.422-.284,1.17,1.17,0,0,0,.482-.612,3.665,3.665,0,0,0,.112-1.111V81.893a3.275,3.275,0,0,1-2.74,1.482,3.373,3.373,0,0,1-2.921-1.56,5.3,5.3,0,0,1-.844-3.067,5.047,5.047,0,0,1,1.107-3.516,3.573,3.573,0,0,1,2.753-1.215,3.353,3.353,0,0,1,2.8,1.491V74.224h2.266v8.212a8.182,8.182,0,0,1-.267,2.421,3.005,3.005,0,0,1-.75,1.258,3.307,3.307,0,0,1-1.288.715,6.765,6.765,0,0,1-2.038.259,5.276,5.276,0,0,1-3.3-.8,2.5,2.5,0,0,1-.974-2.021C201.769,84.191,201.772,84.093,201.778,83.978Zm2.162-5.368a3.3,3.3,0,0,0,.565,2.133,1.744,1.744,0,0,0,1.391.676,1.923,1.923,0,0,0,1.5-.694,3.021,3.021,0,0,0,.612-2.055,3.21,3.21,0,0,0-.586-2.111,1.865,1.865,0,0,0-1.483-.689,1.788,1.788,0,0,0-1.434.676A3.174,3.174,0,0,0,203.94,78.61Z"/><path class="cls-6" d="M218.08,80.463l2.413.405a3.957,3.957,0,0,1-1.469,2.02,4.313,4.313,0,0,1-2.512.694,4.094,4.094,0,0,1-3.533-1.56,5.241,5.241,0,0,1-.9-3.154,5.048,5.048,0,0,1,1.189-3.562,3.915,3.915,0,0,1,3.007-1.289,4.062,4.062,0,0,1,3.222,1.349,5.964,5.964,0,0,1,1.129,4.132h-6.066a2.452,2.452,0,0,0,.586,1.676,1.833,1.833,0,0,0,1.4.6,1.479,1.479,0,0,0,.956-.31A1.913,1.913,0,0,0,218.08,80.463Zm.138-2.447a2.33,2.33,0,0,0-.543-1.6,1.747,1.747,0,0,0-2.567.03,2.233,2.233,0,0,0-.509,1.569Z"/><path class="cls-6" d="M222.415,74.224h2.231v1.25a3.592,3.592,0,0,1,2.852-1.457,3.072,3.072,0,0,1,1.525.362,2.777,2.777,0,0,1,1.06,1.095,4.224,4.224,0,0,1,1.3-1.095,3.193,3.193,0,0,1,1.49-.362,3.318,3.318,0,0,1,1.706.41,2.5,2.5,0,0,1,1.043,1.2,5.221,5.221,0,0,1,.25,1.895v5.851h-2.422v-5.23a3.9,3.9,0,0,0-.249-1.758,1.148,1.148,0,0,0-1.034-.517,1.651,1.651,0,0,0-.957.31,1.72,1.72,0,0,0-.646.909,6.553,6.553,0,0,0-.2,1.892v4.394h-2.422V78.36a6.965,6.965,0,0,0-.129-1.723,1.093,1.093,0,0,0-.4-.577,1.263,1.263,0,0,0-.737-.19,1.762,1.762,0,0,0-1.008.3,1.651,1.651,0,0,0-.642.87,6.44,6.44,0,0,0-.194,1.887v4.446h-2.421Z"/><path class="cls-6" d="M243.586,80.463l2.412.405a3.957,3.957,0,0,1-1.469,2.02,4.311,4.311,0,0,1-2.512.694,4.094,4.094,0,0,1-3.533-1.56,5.241,5.241,0,0,1-.9-3.154,5.048,5.048,0,0,1,1.189-3.562,3.916,3.916,0,0,1,3.007-1.289A4.064,4.064,0,0,1,245,75.366a5.969,5.969,0,0,1,1.129,4.132h-6.067a2.457,2.457,0,0,0,.586,1.676,1.834,1.834,0,0,0,1.4.6,1.484,1.484,0,0,0,.957-.31A1.926,1.926,0,0,0,243.586,80.463Zm.137-2.447a2.335,2.335,0,0,0-.542-1.6,1.748,1.748,0,0,0-2.568.03,2.238,2.238,0,0,0-.509,1.569Z"/><path class="cls-6" d="M256.424,83.375H254v-4.67a7.235,7.235,0,0,0-.155-1.917,1.343,1.343,0,0,0-.5-.677,1.448,1.448,0,0,0-.84-.241,1.939,1.939,0,0,0-1.129.345,1.735,1.735,0,0,0-.685.913,7.874,7.874,0,0,0-.185,2.1v4.145h-2.422V74.224h2.249v1.344a3.749,3.749,0,0,1,4.481-1.262,2.461,2.461,0,0,1,1,.737,2.664,2.664,0,0,1,.474,1.017,7.569,7.569,0,0,1,.133,1.628Z"/><path class="cls-6" d="M263.076,74.224v1.93h-1.654v3.688a9.32,9.32,0,0,0,.047,1.306.539.539,0,0,0,.216.306.685.685,0,0,0,.409.12,3.131,3.131,0,0,0,.974-.232l.207,1.878a4.819,4.819,0,0,1-1.913.362,3.028,3.028,0,0,1-1.181-.22,1.726,1.726,0,0,1-.771-.568,2.244,2.244,0,0,1-.34-.944,11.663,11.663,0,0,1-.078-1.706v-3.99h-1.111v-1.93h1.111V72.406l2.43-1.413v3.231Z"/><path class="cls-6" d="M269.677,83.375V70.743h9.366V72.88h-6.816v2.8h6.342v2.129h-6.342v3.438h7.057v2.128Z"/><path class="cls-6" d="M289.822,83.375h-2.248V82.031a3.632,3.632,0,0,1-1.323,1.167,3.391,3.391,0,0,1-1.538.384,3.487,3.487,0,0,1-2.7-1.271,5.172,5.172,0,0,1-1.124-3.546,5.111,5.111,0,0,1,1.094-3.537,3.57,3.57,0,0,1,2.766-1.211,3.427,3.427,0,0,1,2.654,1.276v-4.55h2.421ZM283.36,78.6a4.187,4.187,0,0,0,.4,2.119,1.83,1.83,0,0,0,1.637.948,1.783,1.783,0,0,0,1.422-.711,3.285,3.285,0,0,0,.586-2.124,3.59,3.59,0,0,0-.569-2.27,1.8,1.8,0,0,0-1.456-.694,1.816,1.816,0,0,0-1.443.685A3.1,3.1,0,0,0,283.36,78.6Z"/><path class="cls-6" d="M298.232,83.375v-1.37a3.532,3.532,0,0,1-1.314,1.155,3.684,3.684,0,0,1-1.719.422,3.36,3.36,0,0,1-1.654-.4,2.392,2.392,0,0,1-1.06-1.137,5.087,5.087,0,0,1-.327-2.025V74.224h2.421v4.2a11.676,11.676,0,0,0,.133,2.365,1.293,1.293,0,0,0,.487.69,1.5,1.5,0,0,0,.9.254,1.9,1.9,0,0,0,1.112-.34,1.732,1.732,0,0,0,.672-.845,9.779,9.779,0,0,0,.181-2.468V74.224h2.421v9.151Z"/><path class="cls-6" d="M310.968,76.93l-2.387.431a1.735,1.735,0,0,0-.547-1.077,1.652,1.652,0,0,0-1.108-.362,1.81,1.81,0,0,0-1.443.624,3.2,3.2,0,0,0-.538,2.09,3.7,3.7,0,0,0,.547,2.3,1.8,1.8,0,0,0,1.469.672,1.633,1.633,0,0,0,1.129-.392,2.356,2.356,0,0,0,.62-1.349l2.378.405a4.221,4.221,0,0,1-1.421,2.473,4.4,4.4,0,0,1-2.818.836,4.185,4.185,0,0,1-3.2-1.267,5.771,5.771,0,0,1,0-7.035,4.254,4.254,0,0,1,3.24-1.263,4.414,4.414,0,0,1,2.658.72A3.992,3.992,0,0,1,310.968,76.93Z"/><path class="cls-6" d="M314.613,77.016l-2.2-.4a3.419,3.419,0,0,1,1.276-1.965,4.666,4.666,0,0,1,2.688-.638,5.79,5.79,0,0,1,2.413.384,2.408,2.408,0,0,1,1.115.973,4.985,4.985,0,0,1,.324,2.168l-.026,2.826a9.868,9.868,0,0,0,.116,1.779,5.229,5.229,0,0,0,.435,1.228h-2.395q-.094-.242-.233-.715c-.04-.144-.069-.238-.086-.284a4.369,4.369,0,0,1-1.327.9,3.8,3.8,0,0,1-1.508.3,3.117,3.117,0,0,1-2.227-.767,2.548,2.548,0,0,1-.815-1.939,2.6,2.6,0,0,1,.371-1.383,2.417,2.417,0,0,1,1.038-.93A8.085,8.085,0,0,1,315.5,78a13.112,13.112,0,0,0,2.352-.594v-.242a1.256,1.256,0,0,0-.344-1,2.068,2.068,0,0,0-1.3-.3,1.74,1.74,0,0,0-1.009.254A1.768,1.768,0,0,0,314.613,77.016Zm3.239,1.965a15.081,15.081,0,0,1-1.473.37,4.437,4.437,0,0,0-1.318.422,1.011,1.011,0,0,0-.474.853,1.187,1.187,0,0,0,.379.879,1.322,1.322,0,0,0,.965.371,2.1,2.1,0,0,0,1.249-.431,1.516,1.516,0,0,0,.578-.8,4.81,4.81,0,0,0,.094-1.181Z"/><path class="cls-6" d="M326.814,74.224v1.93h-1.655v3.688a9.071,9.071,0,0,0,.048,1.306.532.532,0,0,0,.215.306.687.687,0,0,0,.409.12,3.131,3.131,0,0,0,.974-.232l.207,1.878a4.819,4.819,0,0,1-1.913.362,3.019,3.019,0,0,1-1.18-.22,1.724,1.724,0,0,1-.772-.568,2.258,2.258,0,0,1-.34-.944,11.663,11.663,0,0,1-.078-1.706v-3.99h-1.111v-1.93h1.111V72.406l2.43-1.413v3.231Z"/><path class="cls-6" d="M328.494,72.983v-2.24h2.421v2.24Zm0,10.392V74.224h2.421v9.151Z"/><path class="cls-6" d="M332.837,78.67a4.955,4.955,0,0,1,.594-2.335,4.084,4.084,0,0,1,1.685-1.723,5,5,0,0,1,2.434-.595,4.571,4.571,0,0,1,3.4,1.349,4.662,4.662,0,0,1,1.327,3.408,4.715,4.715,0,0,1-1.34,3.442,4.529,4.529,0,0,1-3.374,1.366,5.322,5.322,0,0,1-2.4-.569,3.905,3.905,0,0,1-1.736-1.667A5.561,5.561,0,0,1,332.837,78.67Zm2.481.13a3.032,3.032,0,0,0,.647,2.085,2.111,2.111,0,0,0,3.183,0,3.074,3.074,0,0,0,.642-2.1,3.018,3.018,0,0,0-.642-2.068,2.113,2.113,0,0,0-3.183,0A3.033,3.033,0,0,0,335.318,78.8Z"/><path class="cls-6" d="M352.5,83.375h-2.421v-4.67a7.235,7.235,0,0,0-.155-1.917,1.354,1.354,0,0,0-.5-.677,1.449,1.449,0,0,0-.841-.241,1.938,1.938,0,0,0-1.128.345,1.73,1.73,0,0,0-.685.913,7.862,7.862,0,0,0-.186,2.1v4.145h-2.421V74.224h2.249v1.344a3.749,3.749,0,0,1,4.481-1.262,2.461,2.461,0,0,1,1,.737,2.677,2.677,0,0,1,.473,1.017,7.557,7.557,0,0,1,.134,1.628Z"/></g></svg>