<svg id="bottom_bar" data-name="bottom bar" xmlns="http://www.w3.org/2000/svg" xmlns:xlink="http://www.w3.org/1999/xlink" width="1209" height="217" viewBox="0 0 1209 217">
  <defs>
    <style>
      .cls-1, .cls-6 {
        fill: #fff;
      }

      .cls-1 {
        stroke: #cdcdcd;
        stroke-width: 1px;
      }

      .cls-10, .cls-11, .cls-12, .cls-13, .cls-14, .cls-2, .cls-4, .cls-5, .cls-6, .cls-9 {
        fill-rule: evenodd;
      }

      .cls-2 {
        fill: url(#linear-gradient);
      }

      .cls-3 {
        fill: url(#linear-gradient-2);
      }

      .cls-4 {
        fill: url(#linear-gradient-3);
      }

      .cls-5 {
        fill: url(#linear-gradient-4);
      }

      .cls-7 {
        fill: #e4e4e9;
      }

      .cls-10, .cls-8 {
        fill: #059cbf;
      }

      .cls-13, .cls-9 {
        fill: #595a5d;
      }

      .cls-11 {
        fill: #f1f7fe;
      }

      .cls-12 {
        fill: #a3a3a6;
      }

      .cls-13 {
        fill-opacity: 0.15;
      }

      .cls-14 {
        fill: #b5b6bc;
      }

      .cls-15 {
        fill: #f26524;
      }
    </style>
    <linearGradient id="linear-gradient" x1="604.5" y1="129" x2="604.5" y2="92" gradientUnits="userSpaceOnUse">
      <stop offset="0" stop-color="#003b76"/>
      <stop offset="1" stop-color="#005097"/>
    </linearGradient>
    <linearGradient id="linear-gradient-2" x1="1117.77" y1="129" x2="1117.77" y2="92" gradientUnits="userSpaceOnUse">
      <stop offset="0" stop-color="#d95b20"/>
      <stop offset="1" stop-color="#f3743a"/>
    </linearGradient>
    <linearGradient id="linear-gradient-3" x1="1171.19" x2="1171.19" xlink:href="#linear-gradient-2"/>
    <linearGradient id="linear-gradient-4" x1="1064.33" x2="1064.33" xlink:href="#linear-gradient-2"/>
  </defs>
  <rect id="white_bar" data-name="white bar" class="cls-1" x="4" y="92" width="1202" height="36.625"/>
  <path id="blue_bar" data-name="blue bar" class="cls-2" d="M1208.25,129H0.746V92l472.64,0.029s15.726,0.478,24.783,11.659c5.831,7.2,10.413,14.179,21.263,14.179h446.8c10.85,0,15.432-6.982,21.263-14.179,9.057-11.18,24.783-11.659,24.783-11.659L1208.25,92v37Z"/>
  <rect id="menu_button" data-name="menu button" class="cls-3" x="1099.13" y="92" width="37.28" height="37"/>
  <path id="next_button" data-name="next button" class="cls-4" d="M1189.54,129.009h-54.15V92h54.15a17.511,17.511,0,0,1,17.44,17.579v1.851A17.511,17.511,0,0,1,1189.54,129.009Z"/>
  <path id="back_button" data-name="back button" class="cls-5" d="M1045.98,129.009h54.15V92h-54.15a17.5,17.5,0,0,0-17.43,17.579v1.851A17.5,17.5,0,0,0,1045.98,129.009Z"/>
  <path id="Back" class="cls-6" d="M1060.47,106.962a2.011,2.011,0,0,0-.78-0.7,3.713,3.713,0,0,0-1.12-.349,8.077,8.077,0,0,0-1.28-.1q-0.39,0-.78.013t-0.78.039c-0.25.018-.48,0.04-0.7,0.066s-0.41.053-.58,0.079v9.1a5.891,5.891,0,0,0,.77.119c0.28,0.026.56,0.046,0.83,0.059s0.53,0.02.76,0.02h0.59a5.734,5.734,0,0,0,1.35-.158,3.914,3.914,0,0,0,1.18-.488,2.49,2.49,0,0,0,.82-0.851,2.334,2.334,0,0,0,.31-1.233,2.64,2.64,0,0,0-.15-0.936,1.932,1.932,0,0,0-.42-0.673,2.006,2.006,0,0,0-.63-0.435,3.092,3.092,0,0,0-.76-0.224v-0.079a2.269,2.269,0,0,0,.77-0.323,1.865,1.865,0,0,0,.52-0.5,1.791,1.791,0,0,0,.29-0.626,2.693,2.693,0,0,0,.09-0.686A2,2,0,0,0,1060.47,106.962Zm-3.36,6.825-0.35-.013c-0.11,0-.21-0.011-0.3-0.02a0.877,0.877,0,0,1-.22-0.039V111.2h0.97a6.1,6.1,0,0,1,.68.04,1.807,1.807,0,0,1,.62.176,1.168,1.168,0,0,1,.45.385,1.212,1.212,0,0,1,.17.679,1.112,1.112,0,0,1-.15.587,1.179,1.179,0,0,1-.38.412,1.74,1.74,0,0,1-.54.241,2.633,2.633,0,0,1-.64.078C1057.33,113.793,1057.23,113.791,1057.11,113.787Zm-0.87-3.963v-2.441a4.469,4.469,0,0,1,.46-0.039c0.2-.008.41-0.013,0.64-0.013a3.308,3.308,0,0,1,.6.053,1.582,1.582,0,0,1,.5.182,0.979,0.979,0,0,1,.35.353,1.062,1.062,0,0,1,.14.561,1.015,1.015,0,0,1-.37.822,2.5,2.5,0,0,1-.88.47,4.1,4.1,0,0,1-.41.039c-0.16.009-.31,0.013-0.44,0.013h-0.59Zm6.47,0.422a4.085,4.085,0,0,1,.96-0.277,6.3,6.3,0,0,1,1.11-.106,1.01,1.01,0,0,1,.9.324,1.73,1.73,0,0,1,.11,1.061,9.106,9.106,0,0,0-1.61.059,3.9,3.9,0,0,0-1.23.357,1.911,1.911,0,0,0-.79.672,1.763,1.763,0,0,0-.28,1.022,1.9,1.9,0,0,0,.56,1.392,1.876,1.876,0,0,0,.65.395,2.4,2.4,0,0,0,.84.139,2.281,2.281,0,0,0,1.23-.3,2.374,2.374,0,0,0,.75-0.706h0.06l0.29,0.91h1.42a3.682,3.682,0,0,1-.2-1.008c-0.03-.357-0.04-0.724-0.04-1.1s0.02-.762.05-1.154,0.04-.78.04-1.167a3.926,3.926,0,0,0-.11-0.949,1.827,1.827,0,0,0-.39-0.726,1.8,1.8,0,0,0-.75-0.468,3.519,3.519,0,0,0-1.16-.165,8.329,8.329,0,0,0-1.55.139,5.619,5.619,0,0,0-1.27.376Zm1.19,3.422a0.732,0.732,0,0,1-.22-0.574,0.608,0.608,0,0,1,.17-0.435,1.214,1.214,0,0,1,.47-0.263,3.061,3.061,0,0,1,.68-0.119,4.893,4.893,0,0,1,.8.013v0.857a1.6,1.6,0,0,1-.46.495,1.337,1.337,0,0,1-.83.231A0.864,0.864,0,0,1,1063.9,113.668Zm9.44-.2a2.515,2.515,0,0,1-.55.27,2.156,2.156,0,0,1-.75.112,1.524,1.524,0,0,1-.7-0.151,1.214,1.214,0,0,1-.49-0.416,1.95,1.95,0,0,1-.29-0.62,3.165,3.165,0,0,1-.09-0.778,2.332,2.332,0,0,1,.38-1.5,1.317,1.317,0,0,1,1.1-.468,2.751,2.751,0,0,1,.69.079,3.817,3.817,0,0,1,.61.224l0.41-1.4a4.013,4.013,0,0,0-.81-0.3,4.8,4.8,0,0,0-1.19-.118,2.747,2.747,0,0,0-2.22.9,3.881,3.881,0,0,0-.77,2.578,5.753,5.753,0,0,0,.16,1.424,2.885,2.885,0,0,0,.5,1.1,2.288,2.288,0,0,0,.9.7,3.37,3.37,0,0,0,1.37.251,4.536,4.536,0,0,0,1.17-.152,2.837,2.837,0,0,0,.97-0.442Zm5.32,1.714h2l-1.82-3.073-0.73-.514,0.68-.5,1.61-2.506h-1.92l-1.53,2.625-0.4.184v-5.446h-1.75v9.231h1.75v-2.73h0.47Z"/>
  <path id="menu_icon" data-name="menu icon" class="cls-6" d="M1109.73,105.188h18.29a0.922,0.922,0,0,1,0,1.843h-18.29A0.922,0.922,0,0,1,1109.73,105.188Zm0.02,4.562H1128a0.938,0.938,0,1,1,0,1.875h-18.25A0.938,0.938,0,1,1,1109.75,109.75Zm-0.01,4.563h18.27a0.931,0.931,0,0,1,.93.927v0.02a0.932,0.932,0,0,1-.93.928h-18.27a0.932,0.932,0,0,1-.93-0.928v-0.02A0.931,0.931,0,0,1,1109.74,114.313Z"/>
  <path id="Next" class="cls-6" d="M1161.71,115.244h1.34v-9.3h-1.74V110.8l0.21,1.411h-0.07l-0.71-1.411-3.55-4.919h-1.35v9.3h1.75v-4.813l-0.22-1.451h0.07l0.74,1.451Zm7.7-1.754a2.662,2.662,0,0,1-.66.336,2.76,2.76,0,0,1-.98.165,1.693,1.693,0,0,1-1.28-.422,1.894,1.894,0,0,1-.43-1.253h4.01a5.465,5.465,0,0,0,.1-0.659q0.03-.317.03-0.593a3.205,3.205,0,0,0-.22-1.28,2.174,2.174,0,0,0-1.47-1.253,3.757,3.757,0,0,0-.99-0.131,3.141,3.141,0,0,0-2.37.87,3.585,3.585,0,0,0-.85,2.611,3.954,3.954,0,0,0,.75,2.552,2.874,2.874,0,0,0,2.38.93,4.862,4.862,0,0,0,1.47-.218,3.438,3.438,0,0,0,1.09-.534Zm-1.05-3.336a1.631,1.631,0,0,1,.22,1.094h-2.48a1.927,1.927,0,0,1,.39-1.075,1.235,1.235,0,0,1,1.01-.4A0.984,0.984,0,0,1,1168.36,110.154Zm2.14,5.024h1.91l1.03-1.582,0.43-.976,0.4,0.976,1.03,1.582h2.03l-2.16-3.429,2.03-3.165h-1.9L1174.39,110l-0.4.923-0.38-.923-0.87-1.411h-2.08l2.01,3.218Zm7.01-5.143h0.92v3.323a2.222,2.222,0,0,0,.44,1.537,1.77,1.77,0,0,0,1.36.468,4.1,4.1,0,0,0,.98-0.119,4.445,4.445,0,0,0,.84-0.29l-0.3-1.319a3.559,3.559,0,0,1-.44.158,1.721,1.721,0,0,1-.46.053,0.527,0.527,0,0,1-.53-0.3,2.362,2.362,0,0,1-.14-0.982v-2.532h1.63v-1.451h-1.63v-1.727l-1.75.487v1.24h-0.92v1.451Z"/>
  <path id="Topic_1:_Introduction_to_Minerva_Safety_Management_Training" data-name="Topic 1: Introduction to Minerva Safety Management Training" class="cls-6" d="M46.992,106.035H39.664v1.608h2.751v7.623h1.839v-7.623h2.738v-1.608Zm-0.933,7.359a2.954,2.954,0,0,0,.59,1.1,2.664,2.664,0,0,0,.986.7,3.557,3.557,0,0,0,1.4.251,2.992,2.992,0,0,0,2.328-.9,3.687,3.687,0,0,0,.825-2.578,4.928,4.928,0,0,0-.195-1.424,2.994,2.994,0,0,0-.584-1.1,2.6,2.6,0,0,0-.98-0.706,3.558,3.558,0,0,0-1.4-.25,3.017,3.017,0,0,0-2.335.9,3.669,3.669,0,0,0-.832,2.578A4.927,4.927,0,0,0,46.059,113.394Zm1.966-2.981a1.194,1.194,0,0,1,1.007-.475,1.1,1.1,0,0,1,1.047.561,3.043,3.043,0,0,1,.309,1.47,2.773,2.773,0,0,1-.336,1.543,1.152,1.152,0,0,1-1.02.488,1.215,1.215,0,0,1-.624-0.152,1.142,1.142,0,0,1-.423-0.428,2.222,2.222,0,0,1-.242-0.646,3.78,3.78,0,0,1-.08-0.805A2.6,2.6,0,0,1,48.025,110.413Zm5.368,7.491h1.745v-2.7a2.4,2.4,0,0,0,.537.192,3.3,3.3,0,0,0,.684.059,3.227,3.227,0,0,0,1.309-.251,2.61,2.61,0,0,0,.966-0.725,3.2,3.2,0,0,0,.6-1.154,5.357,5.357,0,0,0,.2-1.523,4.038,4.038,0,0,0-.631-2.526,2.283,2.283,0,0,0-1.892-.784,2.586,2.586,0,0,0-1.161.237,2.208,2.208,0,0,0-.825.738H54.869l-0.2-.791H53.393V117.9Zm3.946-7.491a2.555,2.555,0,0,1,.3,1.345,3.015,3.015,0,0,1-.376,1.721,1.3,1.3,0,0,1-1.127.521,1.458,1.458,0,0,1-.993-0.316v-2.743a1.625,1.625,0,0,1,.45-0.752,1.178,1.178,0,0,1,.8-0.251A1.036,1.036,0,0,1,57.339,110.413Zm3.449,4.853h1.745v-6.594H60.788v6.594Zm0.034-7.814a1.155,1.155,0,0,0,.8.257,1.262,1.262,0,0,0,.825-0.257,0.793,0.793,0,0,0,.315-0.639,0.832,0.832,0,0,0-.315-0.653,1.226,1.226,0,0,0-.825-0.271,1.123,1.123,0,0,0-.8.271,0.862,0.862,0,0,0-.289.653A0.82,0.82,0,0,0,60.821,107.452Zm7.777,6.1a2.644,2.644,0,0,1-.55.27,2.207,2.207,0,0,1-.752.112,1.552,1.552,0,0,1-.7-0.151,1.313,1.313,0,0,1-.49-0.416,1.876,1.876,0,0,1-.282-0.62,3.035,3.035,0,0,1-.094-0.778,2.393,2.393,0,0,1,.376-1.5A1.327,1.327,0,0,1,67.2,110a2.772,2.772,0,0,1,.691.079,3.644,3.644,0,0,1,.611.224l0.416-1.4a4.073,4.073,0,0,0-.812-0.3,4.819,4.819,0,0,0-1.188-.118,2.757,2.757,0,0,0-2.228.9,3.881,3.881,0,0,0-.765,2.578,6.132,6.132,0,0,0,.154,1.425,2.89,2.89,0,0,0,.5,1.1,2.317,2.317,0,0,0,.906.7,3.312,3.312,0,0,0,1.362.251,4.556,4.556,0,0,0,1.174-.152A2.926,2.926,0,0,0,69,114.857Zm5.127,1.714H79.08v-1.45H77.255v-7.94h-0.98l-3.06,2.427,0.738,0.989,1.194-.8,0.644-.779-0.2.9v5.21H73.725v1.45Zm7.8-4.906a1.09,1.09,0,0,0,.778.277,1.129,1.129,0,0,0,.805-0.277,0.963,0.963,0,0,0,.3-0.738,0.943,0.943,0,0,0-.3-0.732,1.148,1.148,0,0,0-.805-0.271,1.109,1.109,0,0,0-.778.271,0.943,0.943,0,0,0-.3.732A0.962,0.962,0,0,0,81.522,110.36Zm0,4.774a1.09,1.09,0,0,0,.778.277,1.129,1.129,0,0,0,.805-0.277,0.963,0.963,0,0,0,.3-0.738,0.943,0.943,0,0,0-.3-0.732,1.148,1.148,0,0,0-.805-0.27,1.108,1.108,0,0,0-.778.27,0.943,0.943,0,0,0-.3.732A0.962,0.962,0,0,0,81.522,115.134Zm6.455,0.132h1.839v-9.231H87.977v9.231Zm9.448,0v-4.1a5.244,5.244,0,0,0-.134-1.286,1.965,1.965,0,0,0-.4-0.824,1.506,1.506,0,0,0-.658-0.436,2.78,2.78,0,0,0-.886-0.131,2.461,2.461,0,0,0-1.315.316,2.862,2.862,0,0,0-.819.739H93.157l-0.2-.871H91.574v6.594h1.745v-4.273a1.574,1.574,0,0,1,.49-0.7A1.272,1.272,0,0,1,94.647,110a0.885,0.885,0,0,1,.8.356,2.184,2.184,0,0,1,.235,1.161v3.745h1.745Zm0.765-5.143h0.926v3.323a2.219,2.219,0,0,0,.436,1.537,1.78,1.78,0,0,0,1.362.468,4.1,4.1,0,0,0,.98-0.119,4.477,4.477,0,0,0,.845-0.29l-0.308-1.319a3.114,3.114,0,0,1-.436.158,1.758,1.758,0,0,1-.464.053,0.532,0.532,0,0,1-.53-0.3,2.464,2.464,0,0,1-.141-0.982v-2.532H102.5v-1.451H100.86v-1.727l-1.744.487v1.24H98.19v1.451Zm9.314-1.451a2.608,2.608,0,0,0-.792-0.145,1.589,1.589,0,0,0-.913.264,1.8,1.8,0,0,0-.617.752h-0.054l-0.2-.871h-1.356v6.594h1.745v-4.26a1.171,1.171,0,0,1,.423-0.626,1.242,1.242,0,0,1,.785-0.244,2.3,2.3,0,0,1,.751.145Zm0.65,4.722a2.961,2.961,0,0,0,.591,1.1,2.672,2.672,0,0,0,.986.7,3.559,3.559,0,0,0,1.4.251,2.991,2.991,0,0,0,2.328-.9,3.684,3.684,0,0,0,.826-2.578,4.918,4.918,0,0,0-.2-1.424,2.991,2.991,0,0,0-.584-1.1,2.6,2.6,0,0,0-.979-0.706,3.56,3.56,0,0,0-1.4-.25,3.017,3.017,0,0,0-2.335.9,3.668,3.668,0,0,0-.832,2.578A4.955,4.955,0,0,0,108.154,113.394Zm1.966-2.981a1.2,1.2,0,0,1,1.007-.475,1.1,1.1,0,0,1,1.047.561,3.039,3.039,0,0,1,.308,1.47,2.77,2.77,0,0,1-.335,1.543,1.153,1.153,0,0,1-1.02.488,1.212,1.212,0,0,1-.624-0.152,1.151,1.151,0,0,1-.423-0.428,2.213,2.213,0,0,1-.241-0.646,3.76,3.76,0,0,1-.081-0.805A2.606,2.606,0,0,1,110.12,110.413Zm11.072-4.378h-1.744v2.677a2.723,2.723,0,0,0-.537-0.152,4.151,4.151,0,0,0-.685-0.046,2.8,2.8,0,0,0-2.281.936,3.994,3.994,0,0,0-.779,2.625,3.889,3.889,0,0,0,.7,2.558,2.438,2.438,0,0,0,1.96.818,2.378,2.378,0,0,0,1.187-.284,2.007,2.007,0,0,0,.772-0.745h0.054l0.241,0.857h1.248a9.182,9.182,0,0,1-.12-1.226c-0.009-.369-0.014-0.739-0.014-1.108v-6.91Zm-3.925,7.451a2.662,2.662,0,0,1-.3-1.359,2.855,2.855,0,0,1,.369-1.674,1.3,1.3,0,0,1,1.107-.488,2,2,0,0,1,.59.072,1.362,1.362,0,0,1,.417.218v2.8a1.316,1.316,0,0,1-.417.7,1.222,1.222,0,0,1-.805.244A1.029,1.029,0,0,1,117.267,113.486Zm5.388-4.814v4.1a4.979,4.979,0,0,0,.141,1.292,2.02,2.02,0,0,0,.409.818,1.506,1.506,0,0,0,.671.435,2.924,2.924,0,0,0,.913.132,2.466,2.466,0,0,0,2.16-1.161H127l0.309,0.976h1.315a6.384,6.384,0,0,1-.161-0.943,10.281,10.281,0,0,1-.054-1.061v-4.59h-1.744v4.26a1.788,1.788,0,0,1-.49.712,1.2,1.2,0,0,1-.826.29,0.784,0.784,0,0,1-.758-0.356,2.551,2.551,0,0,1-.195-1.16v-3.746h-1.744Zm11.635,4.88a2.632,2.632,0,0,1-.55.27,2.207,2.207,0,0,1-.752.112,1.55,1.55,0,0,1-.7-0.151,1.307,1.307,0,0,1-.49-0.416,1.9,1.9,0,0,1-.282-0.62,3.022,3.022,0,0,1-.094-0.778,2.39,2.39,0,0,1,.376-1.5,1.327,1.327,0,0,1,1.1-.468,2.776,2.776,0,0,1,.691.079,3.648,3.648,0,0,1,.61.224l0.416-1.4a4.056,4.056,0,0,0-.812-0.3,4.814,4.814,0,0,0-1.187-.118,2.756,2.756,0,0,0-2.228.9,3.881,3.881,0,0,0-.765,2.578,6.133,6.133,0,0,0,.154,1.425,2.906,2.906,0,0,0,.5,1.1,2.322,2.322,0,0,0,.906.7,3.318,3.318,0,0,0,1.363.251,4.561,4.561,0,0,0,1.174-.152,2.934,2.934,0,0,0,.973-0.442Zm0.765-3.429h0.926v3.323a2.218,2.218,0,0,0,.436,1.537,1.781,1.781,0,0,0,1.362.468,4.1,4.1,0,0,0,.98-0.119,4.513,4.513,0,0,0,.846-0.29l-0.309-1.319a3.114,3.114,0,0,1-.436.158,1.75,1.75,0,0,1-.463.053,0.531,0.531,0,0,1-.53-0.3,2.464,2.464,0,0,1-.141-0.982v-2.532h1.637v-1.451h-1.637v-1.727l-1.745.487v1.24h-0.926v1.451Zm5.529,5.143h1.745v-6.594h-1.745v6.594Zm0.034-7.814a1.153,1.153,0,0,0,.8.257,1.265,1.265,0,0,0,.826-0.257,0.792,0.792,0,0,0,.315-0.639,0.831,0.831,0,0,0-.315-0.653,1.228,1.228,0,0,0-.826-0.271,1.121,1.121,0,0,0-.8.271,0.86,0.86,0,0,0-.289.653A0.818,0.818,0,0,0,140.618,107.452Zm3.3,5.942a2.961,2.961,0,0,0,.591,1.1,2.664,2.664,0,0,0,.986.7,3.559,3.559,0,0,0,1.4.251,2.991,2.991,0,0,0,2.328-.9,3.684,3.684,0,0,0,.826-2.578,4.918,4.918,0,0,0-.195-1.424,2.991,2.991,0,0,0-.584-1.1,2.6,2.6,0,0,0-.979-0.706,3.56,3.56,0,0,0-1.4-.25,3.015,3.015,0,0,0-2.335.9,3.668,3.668,0,0,0-.832,2.578A4.921,4.921,0,0,0,143.919,113.394Zm1.966-2.981a1.194,1.194,0,0,1,1.007-.475,1.1,1.1,0,0,1,1.047.561,3.051,3.051,0,0,1,.308,1.47,2.779,2.779,0,0,1-.335,1.543,1.153,1.153,0,0,1-1.02.488,1.212,1.212,0,0,1-.624-0.152,1.136,1.136,0,0,1-.423-0.428,2.213,2.213,0,0,1-.241-0.646,3.76,3.76,0,0,1-.081-0.805A2.606,2.606,0,0,1,145.885,110.413Zm11.22,4.853v-4.1a5.211,5.211,0,0,0-.135-1.286,1.956,1.956,0,0,0-.4-0.824,1.5,1.5,0,0,0-.658-0.436,2.78,2.78,0,0,0-.886-0.131,2.462,2.462,0,0,0-1.315.316,2.852,2.852,0,0,0-.818.739h-0.054l-0.2-.871h-1.383v6.594H153v-4.273a1.573,1.573,0,0,1,.49-0.7,1.27,1.27,0,0,1,.839-0.284,0.884,0.884,0,0,1,.8.356,2.178,2.178,0,0,1,.235,1.161v3.745H157.1Zm4.16-5.143h0.926v3.323a2.218,2.218,0,0,0,.436,1.537,1.781,1.781,0,0,0,1.362.468,4.1,4.1,0,0,0,.98-0.119,4.477,4.477,0,0,0,.845-0.29l-0.308-1.319a3.114,3.114,0,0,1-.436.158,1.755,1.755,0,0,1-.463.053,0.532,0.532,0,0,1-.531-0.3,2.464,2.464,0,0,1-.141-0.982v-2.532h1.638v-1.451h-1.638v-1.727l-1.744.487v1.24h-0.926v1.451Zm5.187,3.271a2.959,2.959,0,0,0,.59,1.1,2.668,2.668,0,0,0,.987.7,3.556,3.556,0,0,0,1.4.251,2.992,2.992,0,0,0,2.328-.9,3.688,3.688,0,0,0,.825-2.578,4.953,4.953,0,0,0-.194-1.424,3.006,3.006,0,0,0-.584-1.1,2.6,2.6,0,0,0-.98-0.706,3.558,3.558,0,0,0-1.395-.25,3.018,3.018,0,0,0-2.336.9,3.673,3.673,0,0,0-.832,2.578A4.92,4.92,0,0,0,166.452,113.394Zm1.966-2.981a1.194,1.194,0,0,1,1.007-.475,1.1,1.1,0,0,1,1.046.561,3.039,3.039,0,0,1,.309,1.47,2.779,2.779,0,0,1-.335,1.543,1.153,1.153,0,0,1-1.02.488,1.212,1.212,0,0,1-.624-0.152,1.136,1.136,0,0,1-.423-0.428,2.214,2.214,0,0,1-.242-0.646,3.762,3.762,0,0,1-.08-0.805A2.6,2.6,0,0,1,168.418,110.413Zm16.091,4.853h1.838v-9.231h-1.664l-2.375,4.193-0.4,1.082h-0.053l-0.443-1.055-2.51-4.22h-1.678v9.231h1.745v-4.8l-0.268-1.82h0.067l0.59,1.464,2.107,3.455h0.591l2-3.442,0.578-1.477h0.08l-0.2,1.833v4.787Zm3.556,0h1.745v-6.594h-1.745v6.594Zm0.034-7.814a1.153,1.153,0,0,0,.8.257,1.26,1.26,0,0,0,.825-0.257,0.79,0.79,0,0,0,.316-0.639,0.829,0.829,0,0,0-.316-0.653,1.224,1.224,0,0,0-.825-0.271,1.121,1.121,0,0,0-.8.271,0.86,0.86,0,0,0-.289.653A0.818,0.818,0,0,0,188.1,107.452Zm9.28,7.814v-4.1a5.265,5.265,0,0,0-.134-1.286,1.969,1.969,0,0,0-.4-0.824,1.5,1.5,0,0,0-.658-0.436,2.778,2.778,0,0,0-.885-0.131,2.464,2.464,0,0,0-1.316.316,2.852,2.852,0,0,0-.818.739h-0.054l-0.2-.871h-1.383v6.594h1.745v-4.273a1.573,1.573,0,0,1,.49-0.7A1.272,1.272,0,0,1,194.6,110a0.884,0.884,0,0,1,.8.356,2.178,2.178,0,0,1,.235,1.161v3.745h1.745Zm6.255-1.688a2.664,2.664,0,0,1-.662.336,2.749,2.749,0,0,1-.983.165,1.678,1.678,0,0,1-1.277-.422,1.917,1.917,0,0,1-.435-1.253h4.014c0.044-.228.078-0.448,0.1-0.659a5.742,5.742,0,0,0,.033-0.593,3.163,3.163,0,0,0-.228-1.28,2.133,2.133,0,0,0-.6-0.817,2.307,2.307,0,0,0-.859-0.436,3.791,3.791,0,0,0-.993-0.131,3.159,3.159,0,0,0-2.375.87,3.61,3.61,0,0,0-.846,2.611,3.949,3.949,0,0,0,.752,2.552,2.875,2.875,0,0,0,2.375.93,4.872,4.872,0,0,0,1.47-.218,3.442,3.442,0,0,0,1.094-.534Zm-1.054-3.336a1.642,1.642,0,0,1,.221,1.094h-2.483a1.975,1.975,0,0,1,.393-1.075,1.223,1.223,0,0,1,1.008-.4A0.985,0.985,0,0,1,202.58,110.242Zm7.011-1.57a2.6,2.6,0,0,0-.792-0.145,1.583,1.583,0,0,0-.912.264,1.806,1.806,0,0,0-.618.752h-0.053l-0.2-.871h-1.355v6.594H207.4v-4.26a1.175,1.175,0,0,1,.422-0.626,1.244,1.244,0,0,1,.785-0.244,2.3,2.3,0,0,1,.752.145Zm1.852,0h-2.026l2.912,6.66h1.06l2.8-6.66h-1.879l-1.141,3.429-0.187,1.042h-0.068l-0.228-1.016Zm5.7,1.662a4.09,4.09,0,0,1,.959-0.277,6.273,6.273,0,0,1,1.107-.106,1,1,0,0,1,.9.324,1.691,1.691,0,0,1,.107,1.061,8.93,8.93,0,0,0-1.6.06,3.942,3.942,0,0,0-1.234.356,1.969,1.969,0,0,0-.792.672,1.807,1.807,0,0,0-.275,1.022,2.008,2.008,0,0,0,.147.785,1.815,1.815,0,0,0,.416.607,1.84,1.84,0,0,0,.644.4,2.422,2.422,0,0,0,.846.139,2.291,2.291,0,0,0,1.228-.3,2.376,2.376,0,0,0,.745-0.706h0.067l0.282,0.91h1.422a4.1,4.1,0,0,1-.2-1.008q-0.041-.535-0.034-1.1t0.047-1.154q0.04-.587.041-1.167a3.685,3.685,0,0,0-.114-0.949,1.744,1.744,0,0,0-.39-0.726,1.774,1.774,0,0,0-.744-0.468,3.566,3.566,0,0,0-1.168-.165,8.292,8.292,0,0,0-1.543.139,5.73,5.73,0,0,0-1.275.376Zm1.187,3.422a0.743,0.743,0,0,1-.221-0.574,0.587,0.587,0,0,1,.174-0.435,1.145,1.145,0,0,1,.47-0.263,2.961,2.961,0,0,1,.678-0.119,4.872,4.872,0,0,1,.8.013v0.857a1.612,1.612,0,0,1-.456.5,1.358,1.358,0,0,1-.832.231A0.863,0.863,0,0,1,218.334,113.756Zm12.146-.145a2.4,2.4,0,0,1-1.255.27,4.291,4.291,0,0,1-.678-0.052,6.12,6.12,0,0,1-.624-0.132,4.87,4.87,0,0,1-.53-0.172,3.556,3.556,0,0,1-.383-0.171l-0.59,1.543a5.47,5.47,0,0,0,1.127.369,7.606,7.606,0,0,0,1.772.185,5.358,5.358,0,0,0,1.4-.172,2.971,2.971,0,0,0,1.087-.527,2.426,2.426,0,0,0,.7-0.89,2.99,2.99,0,0,0,.248-1.273,2.254,2.254,0,0,0-.315-1.233,2.931,2.931,0,0,0-.792-0.831,5.654,5.654,0,0,0-1.033-.574q-0.558-.237-1.034-0.461a3.677,3.677,0,0,1-.791-0.488,0.824,0.824,0,0,1-.316-0.66,0.791,0.791,0,0,1,.342-0.672,1.655,1.655,0,0,1,.987-0.251,5.122,5.122,0,0,1,1.275.152,3.276,3.276,0,0,1,.886.336l0.577-1.516a4,4,0,0,0-1.195-.4,8.239,8.239,0,0,0-1.543-.138,4.886,4.886,0,0,0-1.288.158,2.821,2.821,0,0,0-1,.488,2.2,2.2,0,0,0-.651.824,2.769,2.769,0,0,0-.228,1.168,2.367,2.367,0,0,0,.315,1.279,2.9,2.9,0,0,0,.792.837,5.263,5.263,0,0,0,1.033.567q0.556,0.231,1.034.449a3.483,3.483,0,0,1,.791.481,0.851,0.851,0,0,1,.316.686A0.9,0.9,0,0,1,230.48,113.611Zm3.831-3.277a4.085,4.085,0,0,1,.96-0.277,6.265,6.265,0,0,1,1.107-.106,0.994,0.994,0,0,1,.9.324,1.684,1.684,0,0,1,.107,1.061,8.918,8.918,0,0,0-1.6.06,3.941,3.941,0,0,0-1.235.356,1.969,1.969,0,0,0-.792.672,1.815,1.815,0,0,0-.275,1.022,1.99,1.99,0,0,0,.148.785,1.8,1.8,0,0,0,.416.607,1.831,1.831,0,0,0,.644.4,2.412,2.412,0,0,0,.845.139,2.288,2.288,0,0,0,1.228-.3,2.365,2.365,0,0,0,.745-0.706h0.067l0.282,0.91h1.423a4.051,4.051,0,0,1-.2-1.008c-0.026-.357-0.038-0.724-0.033-1.1s0.02-.762.047-1.154,0.04-.78.04-1.167a3.641,3.641,0,0,0-.114-0.949,1.742,1.742,0,0,0-.389-0.726,1.784,1.784,0,0,0-.745-0.468,3.561,3.561,0,0,0-1.168-.165,8.3,8.3,0,0,0-1.543.139,5.762,5.762,0,0,0-1.275.376Zm1.188,3.422a0.74,0.74,0,0,1-.222-0.574,0.584,0.584,0,0,1,.175-0.435,1.139,1.139,0,0,1,.47-0.263,2.942,2.942,0,0,1,.677-0.119,4.886,4.886,0,0,1,.8.013v0.857a1.637,1.637,0,0,1-.456.5,1.361,1.361,0,0,1-.833.231A0.861,0.861,0,0,1,235.5,113.756Zm4.475-3.633H240.9v5.143h1.745v-5.143h1.476v-1.451h-1.476c0-.211.007-0.4,0.02-0.56a1.278,1.278,0,0,1,.094-0.409,0.489,0.489,0,0,1,.228-0.244,0.935,0.935,0,0,1,.423-0.079,3.526,3.526,0,0,1,.49.033,3.045,3.045,0,0,1,.543.138l0.336-1.371a5.439,5.439,0,0,0-1.785-.251,2.055,2.055,0,0,0-1.557.561,2.558,2.558,0,0,0-.537,1.813v0.369h-0.926v1.451Zm9.652,3.455a2.7,2.7,0,0,1-.662.336,2.757,2.757,0,0,1-.983.165,1.679,1.679,0,0,1-1.278-.422,1.911,1.911,0,0,1-.434-1.253h4.013c0.044-.228.078-0.448,0.1-0.659a5.756,5.756,0,0,0,.034-0.593,3.162,3.162,0,0,0-.229-1.28,2.133,2.133,0,0,0-.6-0.817,2.31,2.31,0,0,0-.858-0.436,3.8,3.8,0,0,0-.994-0.131,3.16,3.16,0,0,0-2.375.87,3.61,3.61,0,0,0-.845,2.611,3.949,3.949,0,0,0,.751,2.552,2.875,2.875,0,0,0,2.375.93,4.872,4.872,0,0,0,1.47-.218,3.442,3.442,0,0,0,1.094-.534Zm-1.055-3.336a1.642,1.642,0,0,1,.221,1.094h-2.483a1.975,1.975,0,0,1,.393-1.075,1.224,1.224,0,0,1,1.008-.4A0.985,0.985,0,0,1,248.571,110.242Zm2.381-.119h0.926v3.323a2.223,2.223,0,0,0,.436,1.537,1.782,1.782,0,0,0,1.363.468,4.092,4.092,0,0,0,.979-0.119,4.513,4.513,0,0,0,.846-0.29l-0.309-1.319a3.069,3.069,0,0,1-.436.158,1.75,1.75,0,0,1-.463.053,0.531,0.531,0,0,1-.53-0.3,2.464,2.464,0,0,1-.141-0.982v-2.532h1.637v-1.451h-1.637v-1.727l-1.745.487v1.24h-0.926v1.451Zm6.281-1.451H255.14l2.8,6.594a1.723,1.723,0,0,1-.436.93,0.893,0.893,0,0,1-.6.257,1.094,1.094,0,0,1-.4-0.079l-0.322,1.372a2.363,2.363,0,0,0,1.114.224,1.367,1.367,0,0,0,.812-0.244,2.415,2.415,0,0,0,.624-0.693,6.1,6.1,0,0,0,.517-1.061q0.234-.613.49-1.352l2.04-5.948h-1.8l-1.02,3.693-0.174,1.042h-0.081l-0.241-1.029Zm15.447,6.594h1.838v-9.231h-1.664l-2.375,4.193-0.4,1.082h-0.053l-0.443-1.055-2.51-4.22h-1.677v9.231h1.744v-4.8l-0.268-1.82h0.067l0.59,1.464,2.107,3.455h0.591l2-3.442,0.577-1.477h0.08l-0.2,1.833v4.787Zm3.784-4.932a4.114,4.114,0,0,1,.96-0.277,6.265,6.265,0,0,1,1.107-.106,0.994,0.994,0,0,1,.9.324,1.689,1.689,0,0,1,.108,1.061,8.926,8.926,0,0,0-1.6.06,3.941,3.941,0,0,0-1.235.356,1.983,1.983,0,0,0-.792.672,1.815,1.815,0,0,0-.275,1.022,1.99,1.99,0,0,0,.148.785,1.8,1.8,0,0,0,.416.607,1.831,1.831,0,0,0,.644.4,2.412,2.412,0,0,0,.845.139,2.288,2.288,0,0,0,1.228-.3,2.365,2.365,0,0,0,.745-0.706h0.067l0.282,0.91h1.423a4.006,4.006,0,0,1-.2-1.008c-0.027-.357-0.039-0.724-0.034-1.1s0.02-.762.047-1.154,0.04-.78.04-1.167a3.641,3.641,0,0,0-.114-0.949,1.742,1.742,0,0,0-.389-0.726,1.784,1.784,0,0,0-.745-0.468,3.557,3.557,0,0,0-1.168-.165,8.3,8.3,0,0,0-1.543.139,5.762,5.762,0,0,0-1.275.376Zm1.188,3.422a0.74,0.74,0,0,1-.222-0.574,0.588,0.588,0,0,1,.175-0.435,1.139,1.139,0,0,1,.47-0.263,2.942,2.942,0,0,1,.677-0.119,4.886,4.886,0,0,1,.8.013v0.857a1.637,1.637,0,0,1-.456.5,1.358,1.358,0,0,1-.832.231A0.863,0.863,0,0,1,277.652,113.756Zm10.944,1.51v-4.1a5.265,5.265,0,0,0-.134-1.286,1.969,1.969,0,0,0-.4-0.824,1.506,1.506,0,0,0-.657-0.436,2.784,2.784,0,0,0-.886-0.131,2.46,2.46,0,0,0-1.315.316,2.87,2.87,0,0,0-.819.739h-0.054l-0.2-.871h-1.382v6.594h1.744v-4.273a1.581,1.581,0,0,1,.49-0.7,1.272,1.272,0,0,1,.839-0.284,0.886,0.886,0,0,1,.8.356,2.189,2.189,0,0,1,.234,1.161v3.745H288.6Zm1.839-4.932a4.09,4.09,0,0,1,.959-0.277,6.265,6.265,0,0,1,1.107-.106,1,1,0,0,1,.9.324,1.691,1.691,0,0,1,.107,1.061,8.93,8.93,0,0,0-1.6.06,3.942,3.942,0,0,0-1.234.356,1.969,1.969,0,0,0-.792.672,1.807,1.807,0,0,0-.275,1.022,2.008,2.008,0,0,0,.147.785,1.815,1.815,0,0,0,.416.607,1.84,1.84,0,0,0,.644.4,2.422,2.422,0,0,0,.846.139,2.291,2.291,0,0,0,1.228-.3,2.376,2.376,0,0,0,.745-0.706H293.7l0.282,0.91H295.4a4.1,4.1,0,0,1-.2-1.008q-0.041-.535-0.034-1.1t0.047-1.154q0.04-.587.041-1.167a3.685,3.685,0,0,0-.114-0.949,1.744,1.744,0,0,0-.39-0.726,1.774,1.774,0,0,0-.744-0.468,3.566,3.566,0,0,0-1.168-.165,8.292,8.292,0,0,0-1.543.139,5.73,5.73,0,0,0-1.275.376Zm1.187,3.422a0.743,0.743,0,0,1-.221-0.574,0.587,0.587,0,0,1,.174-0.435,1.145,1.145,0,0,1,.47-0.263,2.961,2.961,0,0,1,.678-0.119,4.872,4.872,0,0,1,.8.013v0.857a1.612,1.612,0,0,1-.456.5,1.358,1.358,0,0,1-.832.231A0.863,0.863,0,0,1,291.622,113.756Zm10.77-4.846a6.474,6.474,0,0,0-1.107-.277,8.88,8.88,0,0,0-1.537-.119,3.267,3.267,0,0,0-2.5.91,3.761,3.761,0,0,0-.859,2.677,3.928,3.928,0,0,0,.638,2.479,2.339,2.339,0,0,0,1.939.792,1.967,1.967,0,0,0,1.664-.62h0.054v0.422a1.638,1.638,0,0,1-.329,1.088,1.58,1.58,0,0,1-1.242.389,3.7,3.7,0,0,1-1.013-.119q-0.409-.118-0.718-0.237l-0.362,1.358a3.858,3.858,0,0,0,.839.277,6.906,6.906,0,0,0,1.523.132,3.3,3.3,0,0,0,2.214-.679,2.641,2.641,0,0,0,.792-2.117V108.91Zm-3.878,4.589a2.721,2.721,0,0,1-.323-1.464,2.628,2.628,0,0,1,.376-1.576,1.24,1.24,0,0,1,1.047-.494,2.724,2.724,0,0,1,1.033.171V113.1a1.407,1.407,0,0,1-.422.673,1.213,1.213,0,0,1-.785.224A1.035,1.035,0,0,1,298.514,113.5Zm10.187,0.079a2.673,2.673,0,0,1-.661.336,2.759,2.759,0,0,1-.984.165,1.678,1.678,0,0,1-1.277-.422,1.917,1.917,0,0,1-.435-1.253h4.014c0.044-.228.078-0.448,0.1-0.659a5.742,5.742,0,0,0,.033-0.593,3.163,3.163,0,0,0-.228-1.28,2.133,2.133,0,0,0-.6-0.817,2.307,2.307,0,0,0-.859-0.436,3.791,3.791,0,0,0-.993-0.131,3.159,3.159,0,0,0-2.375.87,3.61,3.61,0,0,0-.846,2.611,3.949,3.949,0,0,0,.752,2.552,2.875,2.875,0,0,0,2.375.93,4.872,4.872,0,0,0,1.47-.218,3.442,3.442,0,0,0,1.094-.534Zm-1.054-3.336a1.642,1.642,0,0,1,.221,1.094h-2.483a1.975,1.975,0,0,1,.393-1.075,1.223,1.223,0,0,1,1.008-.4A0.985,0.985,0,0,1,307.647,110.242Zm8.635,5.024v-4.325a1.5,1.5,0,0,1,.409-0.686,1.066,1.066,0,0,1,.745-0.251,0.722,0.722,0,0,1,.745.389,3.1,3.1,0,0,1,.168,1.167v3.706h1.744V111.31a6.5,6.5,0,0,0-.12-1.372,2.21,2.21,0,0,0-.369-0.864,1.326,1.326,0,0,0-.645-0.455,3.082,3.082,0,0,0-.959-0.131,2.156,2.156,0,0,0-1.168.3,2.4,2.4,0,0,0-.791.818,1.666,1.666,0,0,0-.638-0.864,1.946,1.946,0,0,0-1.053-.257,2.175,2.175,0,0,0-1.228.316,3.023,3.023,0,0,0-.785.739h-0.054l-0.2-.871h-1.355v6.594h1.745v-4.391a1.547,1.547,0,0,1,.429-0.627,1.091,1.091,0,0,1,.738-0.244,0.714,0.714,0,0,1,.725.383,3.4,3.4,0,0,1,.174,1.292v3.587h1.745Zm10.04-1.688a2.664,2.664,0,0,1-.662.336,2.753,2.753,0,0,1-.983.165,1.678,1.678,0,0,1-1.277-.422,1.917,1.917,0,0,1-.435-1.253h4.013c0.045-.228.078-0.448,0.1-0.659a5.742,5.742,0,0,0,.033-0.593,3.163,3.163,0,0,0-.228-1.28,2.133,2.133,0,0,0-.6-0.817,2.314,2.314,0,0,0-.859-0.436,3.791,3.791,0,0,0-.993-0.131,3.157,3.157,0,0,0-2.375.87,3.61,3.61,0,0,0-.846,2.611,3.949,3.949,0,0,0,.752,2.552,2.875,2.875,0,0,0,2.375.93,4.872,4.872,0,0,0,1.47-.218,3.436,3.436,0,0,0,1.093-.534Zm-1.054-3.336a1.636,1.636,0,0,1,.22,1.094h-2.482a1.975,1.975,0,0,1,.393-1.075,1.223,1.223,0,0,1,1.008-.4A0.985,0.985,0,0,1,325.268,110.242Zm8.93,5.024v-4.1a5.265,5.265,0,0,0-.134-1.286,1.969,1.969,0,0,0-.4-0.824,1.506,1.506,0,0,0-.657-0.436,2.784,2.784,0,0,0-.886-0.131,2.46,2.46,0,0,0-1.315.316,2.87,2.87,0,0,0-.819.739H329.93l-0.2-.871h-1.382v6.594h1.744v-4.273a1.581,1.581,0,0,1,.49-0.7A1.272,1.272,0,0,1,331.42,110a0.886,0.886,0,0,1,.8.356,2.189,2.189,0,0,1,.234,1.161v3.745H334.2Zm0.765-5.143h0.926v3.323a2.218,2.218,0,0,0,.436,1.537,1.781,1.781,0,0,0,1.362.468,4.1,4.1,0,0,0,.98-0.119,4.513,4.513,0,0,0,.846-0.29l-0.309-1.319a3.114,3.114,0,0,1-.436.158,1.75,1.75,0,0,1-.463.053,0.531,0.531,0,0,1-.53-0.3,2.464,2.464,0,0,1-.141-0.982v-2.532h1.637v-1.451h-1.637v-1.727l-1.745.487v1.24h-0.926v1.451Zm15-4.088h-7.328v1.608h2.752v7.623h1.838v-7.623h2.738v-1.608Zm3.436,2.637a2.608,2.608,0,0,0-.792-0.145,1.589,1.589,0,0,0-.913.264,1.8,1.8,0,0,0-.617.752h-0.054l-0.2-.871H349.47v6.594h1.745v-4.26a1.177,1.177,0,0,1,.423-0.626,1.242,1.242,0,0,1,.785-0.244,2.3,2.3,0,0,1,.751.145Zm1.154,1.662a4.09,4.09,0,0,1,.959-0.277,6.273,6.273,0,0,1,1.107-.106,1,1,0,0,1,.9.324,1.691,1.691,0,0,1,.107,1.061,8.93,8.93,0,0,0-1.6.06,3.942,3.942,0,0,0-1.234.356,1.969,1.969,0,0,0-.792.672,1.807,1.807,0,0,0-.275,1.022,2.008,2.008,0,0,0,.147.785,1.815,1.815,0,0,0,.416.607,1.84,1.84,0,0,0,.644.4,2.422,2.422,0,0,0,.846.139,2.291,2.291,0,0,0,1.228-.3,2.376,2.376,0,0,0,.745-0.706h0.067l0.282,0.91h1.422a4.1,4.1,0,0,1-.2-1.008q-0.041-.535-0.034-1.1t0.047-1.154q0.041-.587.041-1.167a3.64,3.64,0,0,0-.115-0.949,1.731,1.731,0,0,0-.389-0.726,1.774,1.774,0,0,0-.744-0.468,3.566,3.566,0,0,0-1.168-.165,8.292,8.292,0,0,0-1.543.139,5.73,5.73,0,0,0-1.275.376Zm1.187,3.422a0.743,0.743,0,0,1-.221-0.574,0.587,0.587,0,0,1,.174-0.435,1.145,1.145,0,0,1,.47-0.263,2.961,2.961,0,0,1,.678-0.119,4.872,4.872,0,0,1,.8.013v0.857a1.612,1.612,0,0,1-.456.5,1.358,1.358,0,0,1-.832.231A0.863,0.863,0,0,1,355.744,113.756Zm5.241,1.51h1.745v-6.594h-1.745v6.594Zm0.033-7.814a1.158,1.158,0,0,0,.8.257,1.26,1.26,0,0,0,.825-0.257,0.793,0.793,0,0,0,.316-0.639,0.832,0.832,0,0,0-.316-0.653,1.224,1.224,0,0,0-.825-0.271,1.126,1.126,0,0,0-.8.271,0.863,0.863,0,0,0-.288.653A0.821,0.821,0,0,0,361.018,107.452Zm9.281,7.814v-4.1a5.211,5.211,0,0,0-.135-1.286,1.956,1.956,0,0,0-.4-0.824,1.5,1.5,0,0,0-.658-0.436,2.78,2.78,0,0,0-.886-0.131,2.462,2.462,0,0,0-1.315.316,2.852,2.852,0,0,0-.818.739h-0.054l-0.2-.871h-1.383v6.594h1.745v-4.273a1.573,1.573,0,0,1,.49-0.7,1.27,1.27,0,0,1,.839-0.284,0.885,0.885,0,0,1,.8.356,2.188,2.188,0,0,1,.235,1.161v3.745H370.3Zm1.61,0h1.745v-6.594h-1.745v6.594Zm0.034-7.814a1.153,1.153,0,0,0,.8.257,1.26,1.26,0,0,0,.825-0.257,0.79,0.79,0,0,0,.316-0.639,0.829,0.829,0,0,0-.316-0.653,1.224,1.224,0,0,0-.825-0.271,1.121,1.121,0,0,0-.8.271,0.86,0.86,0,0,0-.289.653A0.818,0.818,0,0,0,371.943,107.452Zm9.28,7.814v-4.1a5.265,5.265,0,0,0-.134-1.286,1.969,1.969,0,0,0-.4-0.824,1.5,1.5,0,0,0-.658-0.436,2.778,2.778,0,0,0-.885-0.131,2.464,2.464,0,0,0-1.316.316,2.852,2.852,0,0,0-.818.739h-0.054l-0.2-.871h-1.383v6.594h1.745v-4.273a1.573,1.573,0,0,1,.49-0.7,1.272,1.272,0,0,1,.839-0.284,0.883,0.883,0,0,1,.8.356,2.178,2.178,0,0,1,.235,1.161v3.745h1.745Zm7.139-6.356a6.474,6.474,0,0,0-1.107-.277,8.876,8.876,0,0,0-1.536-.119,3.27,3.27,0,0,0-2.5.91,3.766,3.766,0,0,0-.859,2.677A3.928,3.928,0,0,0,383,114.58a2.34,2.34,0,0,0,1.939.792,1.967,1.967,0,0,0,1.664-.62h0.054v0.422a1.638,1.638,0,0,1-.329,1.088,1.579,1.579,0,0,1-1.241.389,3.688,3.688,0,0,1-1.013-.119c-0.273-.079-0.513-0.158-0.718-0.237l-0.363,1.358a3.877,3.877,0,0,0,.839.277,6.906,6.906,0,0,0,1.523.132,3.3,3.3,0,0,0,2.215-.679,2.644,2.644,0,0,0,.791-2.117V108.91Zm-3.878,4.589a2.722,2.722,0,0,1-.322-1.464,2.62,2.62,0,0,1,.376-1.576,1.237,1.237,0,0,1,1.046-.494,2.733,2.733,0,0,1,1.034.171V113.1a1.416,1.416,0,0,1-.423.673,1.211,1.211,0,0,1-.785.224A1.036,1.036,0,0,1,384.484,113.5Z"/>
  <rect id="Rounded_Rectangle_3" data-name="Rounded Rectangle 3" class="cls-7" x="656.469" y="103.344" width="280.125" height="5.156" rx="2.564" ry="2.564"/>
  <rect id="Rounded_Rectangle_3_copy_2" data-name="Rounded Rectangle 3 copy 2" class="cls-7" x="536.469" y="103.344" width="51.125" height="5.156" rx="2.564" ry="2.564"/>
  <rect id="Rounded_Rectangle_3_copy" data-name="Rounded Rectangle 3 copy" class="cls-8" x="655.906" y="103.344" width="171.813" height="5.156" rx="2.564" ry="2.564"/>
  <path id="_65_" data-name="65%" class="cls-9" d="M955.438,105.57a1.79,1.79,0,0,0-1.32-.475,1.629,1.629,0,0,0-.832.2,1.317,1.317,0,0,0-.483.435,3.609,3.609,0,0,1,.268-0.923,3.217,3.217,0,0,1,.506-0.809,2.919,2.919,0,0,1,.72-0.607,2.657,2.657,0,0,1,.913-0.334l-0.153-.562a3.025,3.025,0,0,0-1.194.426,3.387,3.387,0,0,0-.953.884,4.256,4.256,0,0,0-.63,1.279,5.351,5.351,0,0,0-.229,1.6,2.851,2.851,0,0,0,.139.932,1.862,1.862,0,0,0,.4.682,1.675,1.675,0,0,0,.617.417,2.184,2.184,0,0,0,.806.141,2.037,2.037,0,0,0,.814-0.154,1.687,1.687,0,0,0,.6-0.422,1.826,1.826,0,0,0,.367-0.624,2.267,2.267,0,0,0,.125-0.761A1.785,1.785,0,0,0,955.438,105.57Zm-0.349,1.908a1.2,1.2,0,0,1-.237.4,1.139,1.139,0,0,1-.363.264,1.114,1.114,0,0,1-.469.1,1.166,1.166,0,0,1-.56-0.128,1.251,1.251,0,0,1-.4-0.334,1.4,1.4,0,0,1-.237-0.47,1.919,1.919,0,0,1-.076-0.537V106.6a1.458,1.458,0,0,1,.018-0.2,1.206,1.206,0,0,1,.443-0.475,1.341,1.341,0,0,1,.756-0.211,1.191,1.191,0,0,1,.912.317,1.334,1.334,0,0,1,.3.941A1.525,1.525,0,0,1,955.089,107.478Zm2.621,0.725a2.23,2.23,0,0,1-.443-0.119l-0.188.6a2.737,2.737,0,0,0,.519.132,4.483,4.483,0,0,0,.68.044,2.623,2.623,0,0,0,.841-0.132,1.978,1.978,0,0,0,.685-0.387,1.818,1.818,0,0,0,.461-0.637,2.141,2.141,0,0,0,.17-0.875,1.772,1.772,0,0,0-.51-1.363,2,2,0,0,0-1.4-.483l-0.385.017v-1.749h2.121V102.6h-2.792v3.042l0.752-.044a1.718,1.718,0,0,1,1.1.317,1.15,1.15,0,0,1,.4.958,1.281,1.281,0,0,1-.4,1.02,1.5,1.5,0,0,1-1.02.352A3.687,3.687,0,0,1,957.71,108.2Zm4.29-3.517a1.228,1.228,0,0,0,.291.462,1.092,1.092,0,0,0,.438.255,1.958,1.958,0,0,0,1.1,0,1.092,1.092,0,0,0,.438-0.255,1.216,1.216,0,0,0,.291-0.462,2.337,2.337,0,0,0,0-1.4,1.22,1.22,0,0,0-.291-0.461,1.07,1.07,0,0,0-.438-0.255,1.837,1.837,0,0,0-.55-0.079,1.753,1.753,0,0,0-.551.083,1.085,1.085,0,0,0-.438.268,1.331,1.331,0,0,0-.291.466,1.916,1.916,0,0,0-.107.677A2.007,2.007,0,0,0,962,104.686Zm0.747-1.477A0.693,0.693,0,0,1,963.28,103a0.9,0.9,0,0,1,.3.049,0.538,0.538,0,0,1,.228.158,0.738,0.738,0,0,1,.143.3,2.366,2.366,0,0,1,0,.958,0.738,0.738,0,0,1-.143.3,0.54,0.54,0,0,1-.228.159,0.9,0.9,0,0,1-.3.048,0.659,0.659,0,0,1-.533-0.229A1.628,1.628,0,0,1,962.747,103.209Zm2.447,4.739a1.236,1.236,0,0,0,.291.462,1.1,1.1,0,0,0,.438.255,1.958,1.958,0,0,0,1.1,0,1.092,1.092,0,0,0,.438-0.255,1.212,1.212,0,0,0,.291-0.462,2.316,2.316,0,0,0,0-1.4,1.219,1.219,0,0,0-.291-0.462,1.092,1.092,0,0,0-.438-0.255,1.87,1.87,0,0,0-.55-0.079,1.753,1.753,0,0,0-.551.084,1.091,1.091,0,0,0-.438.268,1.331,1.331,0,0,0-.291.466,1.916,1.916,0,0,0-.107.677A2.007,2.007,0,0,0,965.194,107.948Zm0.747-1.477a0.693,0.693,0,0,1,.533-0.207,0.9,0.9,0,0,1,.3.049,0.538,0.538,0,0,1,.228.158,0.738,0.738,0,0,1,.143.3,2.366,2.366,0,0,1,0,.958,0.738,0.738,0,0,1-.143.3,0.538,0.538,0,0,1-.228.158,0.877,0.877,0,0,1-.3.049,0.659,0.659,0,0,1-.533-0.229A1.628,1.628,0,0,1,965.941,106.471Zm-3.574,2.044,0.447,0.343,4.59-6.04-0.438-.334Z"/>
  <path id="Color_Fill_7_copy_3" data-name="Color Fill 7 copy 3" class="cls-10" d="M284,126a2.991,2.991,0,0,1-1.018-.189l-74.583,73.6-0.071-.071L208,200H162.975a17.444,17.444,0,1,1-.051-2h44.061l74.447-73.47A2.992,2.992,0,1,1,284,126Zm899,73.5a17.5,17.5,0,1,1-18.52-17.468l0.6-56.192a2.986,2.986,0,1,1,2-.047l-0.6,56.236A17.5,17.5,0,0,1,1183,199.5ZM779,116a2.951,2.951,0,0,1-1.016-.189l-84.585,83.6-0.071-.071L693,200H649.975a17.444,17.444,0,1,1-.051-2h42.061l84.448-83.468A2.992,2.992,0,1,1,779,116Zm267,8a2.978,2.978,0,0,1-1.02-.189l-76.581,75.6-0.071-.071L968,200H922.975a17.444,17.444,0,1,1-.051-2h44.061l76.445-75.469A2.958,2.958,0,0,1,1043,121,3,3,0,1,1,1046,124Zm72-26a3,3,0,0,1-3-3,2.956,2.956,0,0,1,.43-1.531L1038.98,18h-32.01a17.435,17.435,0,1,1-.05-2H1040l0.33,0.657,0.07-.071,76.58,75.6A3,3,0,1,1,1118,98ZM562,98a3,3,0,0,1-3-3,2.968,2.968,0,0,1,.433-1.531L482.985,18h-42.01a17.444,17.444,0,1,1-.051-2H484l0.328,0.657,0.071-.071,76.583,75.6A3,3,0,1,1,562,98Zm43-63.076v57.26a3,3,0,1,1-2,0V34.975A17.44,17.44,0,1,1,605,34.924ZM631,98a3,3,0,0,0,3-3,2.968,2.968,0,0,0-.433-1.531L710.015,18h42.01a17.444,17.444,0,1,0,.051-2H709l-0.328.657-0.071-.071-76.584,75.6A3,3,0,1,0,631,98Z"/>
  <path id="_1_copy_2" data-name="1 copy 2" class="cls-6" d="M1163.62,204.5H1170v-1.76h-2.18v-9.632h-1.16l-3.65,2.944,0.88,1.2,1.42-.976,0.77-.944-0.24,1.088v6.32h-2.22v1.76Z"/>
  <path id="_2_copy" data-name="2 copy" class="cls-6" d="M993.36,12.748a2.588,2.588,0,0,0-.656-0.92,2.832,2.832,0,0,0-.992-0.56,3.98,3.98,0,0,0-1.264-.192,5.071,5.071,0,0,0-1.864.312,5.247,5.247,0,0,0-1.416.824L988,13.684a2.96,2.96,0,0,1,.9-0.552,2.789,2.789,0,0,1,1.048-.216,1.517,1.517,0,0,1,1.192.424,1.571,1.571,0,0,1,.376,1.08,3.444,3.444,0,0,1-.216,1.152,7.958,7.958,0,0,1-.584,1.256,14.027,14.027,0,0,1-.832,1.288q-0.465.64-.952,1.24t-0.968,1.136q-0.48.536-.864,0.936V22.5h6.736V20.74h-3.072l-1.152.224v-0.08l0.848-.656q0.528-.624,1.08-1.368a15.31,15.31,0,0,0,1.008-1.544,10.247,10.247,0,0,0,.752-1.632,4.9,4.9,0,0,0,.3-1.648A3.209,3.209,0,0,0,993.36,12.748Z"/>
  <path id="_3_copy" data-name="3 copy" class="cls-6" d="M903.728,202.836a4.516,4.516,0,0,1-.92-0.336l-0.56,1.728a4.23,4.23,0,0,0,1.216.368,8.7,8.7,0,0,0,1.456.128,5.429,5.429,0,0,0,1.584-.224,3.615,3.615,0,0,0,1.288-.688,3.211,3.211,0,0,0,.864-1.152,3.927,3.927,0,0,0,.312-1.632,3.656,3.656,0,0,0-.224-1.328,2.911,2.911,0,0,0-.6-0.968,2.571,2.571,0,0,0-.88-0.6,3.564,3.564,0,0,0-1.064-.256l-0.672.1v-0.08l0.7-.432,2.256-3.024V193.3h-6.112v1.76h2.688l1.264-.144-0.912.72-1.936,2.64v1.1h1.152a2.749,2.749,0,0,1,1.712.432,1.614,1.614,0,0,1,.544,1.344,1.76,1.76,0,0,1-.52,1.28,2.031,2.031,0,0,1-1.512.528A4.6,4.6,0,0,1,903.728,202.836Z"/>
  <path id="_4_copy" data-name="4 copy" class="cls-6" d="M636.848,200.716h-1.76v-6.5h-1.712L628.3,201.2v1.184h4.848v3.12h1.936v-3.12h1.76v-1.664Zm-3.7,0h-1.9l-1.024.128,0.8-.608,1.664-2.16,0.544-1.152H633.3l-0.144,1.344v2.448Z"/>
  <path id="_5" data-name="5" class="cls-6" d="M768.456,21.8a3.947,3.947,0,0,1-.808-0.248l-0.56,1.728a4.6,4.6,0,0,0,1.1.328,7.505,7.505,0,0,0,1.368.12,5.609,5.609,0,0,0,1.68-.24,3.8,3.8,0,0,0,1.336-.72,3.314,3.314,0,0,0,.888-1.2,4.067,4.067,0,0,0,.32-1.664,4.144,4.144,0,0,0-.24-1.448,3.085,3.085,0,0,0-.688-1.1,3.158,3.158,0,0,0-1.08-.712,4.22,4.22,0,0,0-1.416-.288l-0.656.064v-2.16h3.712V12.3h-5.5v5.856l1.264-.048a3.307,3.307,0,0,1,1.872.448,1.585,1.585,0,0,1,.656,1.408,1.813,1.813,0,0,1-.56,1.408,2.314,2.314,0,0,1-1.616.512A5.511,5.511,0,0,1,768.456,21.8Z"/>
  <path id="_6" data-name="6" class="cls-6" d="M607.08,17.556a3.045,3.045,0,0,0-.672-1.08,2.79,2.79,0,0,0-1.04-.664,3.817,3.817,0,0,0-1.328-.224,2.644,2.644,0,0,0-1.28.28,2.707,2.707,0,0,0-.832.68,4.554,4.554,0,0,1,.5-1.3,5.228,5.228,0,0,1,.88-1.144,5.341,5.341,0,0,1,1.192-.88,4.528,4.528,0,0,1,1.472-.5l-0.464-1.648a6.61,6.61,0,0,0-2.184.776,6.363,6.363,0,0,0-1.808,1.536,7.445,7.445,0,0,0-1.232,2.232,8.492,8.492,0,0,0-.456,2.864,5.47,5.47,0,0,0,.288,1.856,3.643,3.643,0,0,0,.8,1.328,3.281,3.281,0,0,0,1.208.792,4.274,4.274,0,0,0,1.528.264,3.8,3.8,0,0,0,1.5-.288,3.426,3.426,0,0,0,1.9-1.952,3.947,3.947,0,0,0,.264-1.456A4.177,4.177,0,0,0,607.08,17.556Zm-2.248,2.9a1.589,1.589,0,0,1-1.224.512,1.6,1.6,0,0,1-1.352-.664,2.175,2.175,0,0,1-.328-0.672,2.637,2.637,0,0,1-.112-0.76V18.612a1.674,1.674,0,0,1,.032-0.3,1.622,1.622,0,0,1,.616-0.672,1.929,1.929,0,0,1,1.08-.288,1.57,1.57,0,0,1,1.76,1.792A1.862,1.862,0,0,1,604.832,20.452Z"/>
  <path id="_7" data-name="7" class="cls-6" d="M423.7,22.5l4.48-10.592V11.3H420.96v1.952h4.112l0.96-.16-0.7.784L421.664,22.5H423.7Z"/>
  <path id="_8" data-name="8" class="cls-11" d="M148.078,194.32a4.2,4.2,0,0,0-5.07,0,2.96,2.96,0,0,0-.938,2.305,2.661,2.661,0,0,0,.426,1.488,2.969,2.969,0,0,0,1.16,1.028,3.105,3.105,0,0,0-1.359,1.117,2.889,2.889,0,0,0-.485,1.64,2.98,2.98,0,0,0,1.02,2.375,4.605,4.605,0,0,0,5.418,0,2.985,2.985,0,0,0,1.016-2.379,2.863,2.863,0,0,0-.481-1.625,3.242,3.242,0,0,0-1.371-1.132,2.984,2.984,0,0,0,1.172-1.028,2.648,2.648,0,0,0,.43-1.488A2.96,2.96,0,0,0,148.078,194.32Zm-1.191,8.836a2.08,2.08,0,0,1-2.688-.015,1.834,1.834,0,0,1-.488-1.336,1.89,1.89,0,0,1,.5-1.368,1.964,1.964,0,0,1,2.656,0,1.877,1.877,0,0,1,.5,1.364A1.836,1.836,0,0,1,146.887,203.156Zm-0.188-5.219a1.671,1.671,0,0,1-2.305,0,2.039,2.039,0,0,1,0-2.488,1.488,1.488,0,0,1,1.148-.457,1.471,1.471,0,0,1,1.156.481A1.987,1.987,0,0,1,146.7,197.937Z"/>
  <g id="audio_on" data-name="audio on">
    <path id="Rounded_Rectangle_2_copy" data-name="Rounded Rectangle 2 copy" class="cls-12" d="M525.553,110.793a0.411,0.411,0,0,1-.166.036,0.418,0.418,0,0,1-.383-0.258,0.432,0.432,0,0,1,.219-0.56,5.02,5.02,0,0,0-.01-9.137,0.428,0.428,0,0,1-.218-0.56,0.41,0.41,0,0,1,.547-0.223A5.879,5.879,0,0,1,525.553,110.793Zm1.644-5.347a3.986,3.986,0,0,1-2.352,3.659,0.4,0.4,0,0,1-.164.035,0.416,0.416,0,0,1-.384-0.257,0.43,0.43,0,0,1,.218-0.56,3.165,3.165,0,0,0-.01-5.761,0.43,0.43,0,0,1-.218-0.56,0.413,0.413,0,0,1,.547-0.224A3.991,3.991,0,0,1,527.2,105.446Zm-1.842,0a2.1,2.1,0,0,1-1.235,1.923,0.4,0.4,0,0,1-.166.036,0.419,0.419,0,0,1-.383-0.256,0.431,0.431,0,0,1,.217-0.561,1.257,1.257,0,0,0-.009-2.289,0.43,0.43,0,0,1-.219-0.56,0.413,0.413,0,0,1,.545-0.226A2.1,2.1,0,0,1,525.355,105.446Zm-5.2-1.925h0.022l2.523-1.808v7.734l-2.545-1.82v-4.106Zm-2.377,3.516v-3.013a0.518,0.518,0,0,1,.533-0.5h1.2v4.018h-1.2A0.518,0.518,0,0,1,517.783,107.037Z"/>
  </g>
  <path class="cls-13" d="M1099,128h-1V92h1v36Z"/>
  <path id="Shape_1_copy" data-name="Shape 1 copy" class="cls-13" d="M1138,128h-1V92h1v36Z"/>
  <path id="pause" class="cls-14" d="M604.75,110v-9H607v9H604.75ZM601,101h2.251v9H601v-9Z"/>
  <path id="replay" class="cls-14" d="M634.964,105.55a5.124,5.124,0,0,1,.036.607,4.513,4.513,0,1,1-4.5-4.843,4.255,4.255,0,0,1,2.58.878L634.11,101l-0.136,3.542-3.057.23,1.076-1.248a2.715,2.715,0,0,0-1.453-.426,3.11,3.11,0,1,0,2.881,3.1c0-.059,0-0.117,0-0.175Z"/>
  <circle class="cls-15" cx="563" cy="106" r="4"/>
</svg>
