<svg id="bottom_bar" data-name="bottom bar" xmlns="http://www.w3.org/2000/svg" xmlns:xlink="http://www.w3.org/1999/xlink" width="347" height="178" viewBox="0 0 347 178">
  <defs>
    <style>
      .cls-1, .cls-6 {
        fill: #fff;
      }

      .cls-1 {
        stroke: #cdcdcd;
        stroke-width: 1px;
      }

      .cls-1, .cls-10, .cls-11, .cls-2, .cls-4, .cls-5, .cls-6, .cls-7, .cls-8, .cls-9 {
        fill-rule: evenodd;
      }

      .cls-2 {
        fill: url(#linear-gradient);
      }

      .cls-3 {
        fill: url(#linear-gradient-2);
      }

      .cls-4 {
        fill: url(#linear-gradient-3);
      }

      .cls-5 {
        fill: url(#linear-gradient-4);
      }

      .cls-10, .cls-7 {
        fill: #595a5d;
      }

      .cls-8 {
        fill: #059cbf;
      }

      .cls-9 {
        fill: #a3a3a6;
      }

      .cls-10 {
        fill-opacity: 0.15;
      }

      .cls-11 {
        fill: #b5b6bc;
      }
    </style>
    <linearGradient id="linear-gradient" x1="173.625" y1="112" x2="173.625" y2="75" gradientUnits="userSpaceOnUse">
      <stop offset="0" stop-color="#003b76"/>
      <stop offset="1" stop-color="#005097"/>
    </linearGradient>
    <linearGradient id="linear-gradient-2" x1="255.766" y1="112" x2="255.766" y2="75" gradientUnits="userSpaceOnUse">
      <stop offset="0" stop-color="#d95b20"/>
      <stop offset="1" stop-color="#f3743a"/>
    </linearGradient>
    <linearGradient id="linear-gradient-3" x1="309.188" x2="309.188" xlink:href="#linear-gradient-2"/>
    <linearGradient id="linear-gradient-4" x1="202.328" x2="202.328" xlink:href="#linear-gradient-2"/>
  </defs>
  <path id="white_bar" data-name="white bar" class="cls-1" d="M1,75H344v37.009H1V75Z"/>
  <path id="blue_bar" data-name="blue bar" class="cls-2" d="M1,112V100.919c74.453-.028,41.257-0.053,123.234-0.053,10.85,0,15.432-6.982,21.263-14.179,9.057-11.18,24.783-11.659,24.783-11.659L346.254,75v37H1Z"/>
  <rect id="menu_button" data-name="menu button" class="cls-3" x="237.125" y="75" width="37.281" height="37"/>
  <path id="next_button" data-name="next button" class="cls-4" d="M327.538,112.009H273.391V75h54.147a17.509,17.509,0,0,1,17.437,17.579v1.85A17.509,17.509,0,0,1,327.538,112.009Z"/>
  <path id="back_button" data-name="back button" class="cls-5" d="M183.983,112.009H238.13V75H183.983a17.509,17.509,0,0,0-17.437,17.579v1.85A17.509,17.509,0,0,0,183.983,112.009Z"/>
  <path id="Back" class="cls-6" d="M198.472,89.962a2.035,2.035,0,0,0-.785-0.7,3.712,3.712,0,0,0-1.114-.349,8.167,8.167,0,0,0-1.282-.1q-0.388,0-.785.013t-0.772.04q-0.375.027-.7,0.066t-0.584.079v9.1a6.076,6.076,0,0,0,.772.119q0.423,0.039.832,0.059t0.765,0.02H195.4a5.768,5.768,0,0,0,1.355-.158,3.828,3.828,0,0,0,1.174-.488,2.518,2.518,0,0,0,.826-0.851,2.382,2.382,0,0,0,.308-1.233,2.593,2.593,0,0,0-.153-0.936,2.006,2.006,0,0,0-.421-0.673,1.947,1.947,0,0,0-.628-0.435,3.166,3.166,0,0,0-.761-0.224V93.233a2.277,2.277,0,0,0,.774-0.323,1.991,1.991,0,0,0,.52-0.5,1.864,1.864,0,0,0,.287-0.626,2.779,2.779,0,0,0,.087-0.686A2.021,2.021,0,0,0,198.472,89.962Zm-3.365,6.825-0.342-.013c-0.11,0-.213-0.011-0.31-0.02a0.8,0.8,0,0,1-.21-0.039V94.2h0.961a6.06,6.06,0,0,1,.685.039,1.85,1.85,0,0,1,.619.176,1.167,1.167,0,0,1,.449.385,1.179,1.179,0,0,1,.171.679,1.15,1.15,0,0,1-.145.587,1.277,1.277,0,0,1-.382.411,1.685,1.685,0,0,1-.547.242,2.582,2.582,0,0,1-.639.078C195.329,96.793,195.226,96.791,195.107,96.787Zm-0.862-3.963v-2.44a4.191,4.191,0,0,1,.456-0.039q0.294-.013.644-0.013a3.223,3.223,0,0,1,.59.052,1.538,1.538,0,0,1,.5.183,1.006,1.006,0,0,1,.355.352,1.064,1.064,0,0,1,.135.561,1.026,1.026,0,0,1-.369.822,2.466,2.466,0,0,1-.879.47,3.975,3.975,0,0,1-.41.039c-0.166.009-.311,0.013-0.436,0.013h-0.59Zm6.468,0.422a4.1,4.1,0,0,1,.959-0.277,6.253,6.253,0,0,1,1.108-.106,1,1,0,0,1,.9.323,1.686,1.686,0,0,1,.107,1.062,8.9,8.9,0,0,0-1.6.059,3.978,3.978,0,0,0-1.235.356,1.973,1.973,0,0,0-.792.673,1.814,1.814,0,0,0-.275,1.022,2,2,0,0,0,.147.785,1.8,1.8,0,0,0,1.061,1,2.426,2.426,0,0,0,.845.138,2.29,2.29,0,0,0,1.228-.3,2.367,2.367,0,0,0,.745-0.706h0.067l0.282,0.91h1.423a4.062,4.062,0,0,1-.2-1.009q-0.041-.534-0.033-1.1t0.047-1.154q0.039-.587.04-1.167a3.646,3.646,0,0,0-.114-0.95,1.74,1.74,0,0,0-.389-0.725,1.783,1.783,0,0,0-.745-0.468,3.567,3.567,0,0,0-1.168-.165,8.353,8.353,0,0,0-1.543.138,5.817,5.817,0,0,0-1.275.376Zm1.188,3.422a0.741,0.741,0,0,1-.222-0.574,0.582,0.582,0,0,1,.175-0.435,1.14,1.14,0,0,1,.469-0.264A2.978,2.978,0,0,1,203,95.277a4.9,4.9,0,0,1,.8.013v0.857a1.624,1.624,0,0,1-.457.495,1.358,1.358,0,0,1-.832.231A0.863,0.863,0,0,1,201.9,96.668Zm9.441-.2a2.662,2.662,0,0,1-.55.27,2.216,2.216,0,0,1-.752.112,1.555,1.555,0,0,1-.7-0.152,1.309,1.309,0,0,1-.489-0.415,1.859,1.859,0,0,1-.282-0.62,3.028,3.028,0,0,1-.094-0.778,2.389,2.389,0,0,1,.376-1.5,1.326,1.326,0,0,1,1.1-.468,2.733,2.733,0,0,1,.691.079,3.573,3.573,0,0,1,.611.224l0.416-1.4a4.085,4.085,0,0,0-.812-0.3,4.813,4.813,0,0,0-1.188-.119,2.757,2.757,0,0,0-2.228.9,3.881,3.881,0,0,0-.765,2.578,6.124,6.124,0,0,0,.155,1.424,2.881,2.881,0,0,0,.5,1.1,2.32,2.32,0,0,0,.906.706,3.312,3.312,0,0,0,1.362.25,4.553,4.553,0,0,0,1.174-.152,2.926,2.926,0,0,0,.973-0.442Zm5.314,1.714h2l-1.812-3.073-0.738-.514,0.684-.5,1.611-2.506h-1.919l-1.53,2.624-0.4.185V88.947h-1.744v9.232h1.744v-2.73h0.47Z"/>
  <path id="menu_icon" data-name="menu icon" class="cls-6" d="M247.734,88.188h18.282a0.922,0.922,0,1,1,0,1.844H247.734A0.922,0.922,0,0,1,247.734,88.188Zm0.016,4.563H266a0.938,0.938,0,1,1,0,1.875H247.75A0.938,0.938,0,0,1,247.75,92.75Zm-0.01,4.563h18.27a0.928,0.928,0,0,1,.928.927v0.02a0.928,0.928,0,0,1-.928.927H247.74a0.927,0.927,0,0,1-.927-0.927V98.24A0.927,0.927,0,0,1,247.74,97.313Z"/>
  <path id="Next" class="cls-6" d="M299.709,98.244h1.342v-9.3h-1.744V93.8l0.215,1.411h-0.068L298.743,93.8l-3.556-4.919h-1.342v9.3h1.744V93.365l-0.214-1.451h0.067l0.738,1.451Zm7.706-1.754a2.874,2.874,0,0,1-1.645.5,1.681,1.681,0,0,1-1.278-.422,1.912,1.912,0,0,1-.434-1.253h4.013c0.044-.228.078-0.448,0.1-0.659a5.742,5.742,0,0,0,.033-0.593,3.159,3.159,0,0,0-.228-1.279,2.139,2.139,0,0,0-.6-0.818,2.32,2.32,0,0,0-.858-0.435,3.771,3.771,0,0,0-.994-0.132,3.158,3.158,0,0,0-2.375.87,3.61,3.61,0,0,0-.846,2.611,3.95,3.95,0,0,0,.752,2.552,2.875,2.875,0,0,0,2.375.93,4.869,4.869,0,0,0,1.47-.218,3.442,3.442,0,0,0,1.094-.534Zm-1.055-3.337a1.644,1.644,0,0,1,.221,1.095H304.1a1.971,1.971,0,0,1,.393-1.075,1.225,1.225,0,0,1,1.008-.4A0.985,0.985,0,0,1,306.36,93.154Zm2.14,5.025h1.9l1.034-1.583,0.429-.976,0.4,0.976,1.033,1.583h2.027l-2.161-3.429,2.027-3.165H313.3L312.392,93l-0.4.923L311.613,93l-0.872-1.411h-2.08l2.013,3.218Zm7-5.143h0.926v3.323a2.216,2.216,0,0,0,.436,1.536,1.781,1.781,0,0,0,1.362.468,4.09,4.09,0,0,0,.98-0.119,4.491,4.491,0,0,0,.846-0.29l-0.309-1.319a3.183,3.183,0,0,1-.436.158,1.78,1.78,0,0,1-.463.053,0.531,0.531,0,0,1-.53-0.3,2.469,2.469,0,0,1-.141-0.983V93.035h1.637V91.584h-1.637V89.857l-1.745.488v1.24h-0.926v1.451Z"/>
  <path id="_65_" data-name="65%" class="cls-7" d="M114.438,88.57a1.792,1.792,0,0,0-1.32-.475,1.63,1.63,0,0,0-.832.2,1.314,1.314,0,0,0-.483.435,3.657,3.657,0,0,1,.268-0.923A3.224,3.224,0,0,1,112.577,87a2.916,2.916,0,0,1,.72-0.607,2.651,2.651,0,0,1,.913-0.334l-0.153-.563a3.045,3.045,0,0,0-1.194.426,3.391,3.391,0,0,0-.953.884,4.3,4.3,0,0,0-.631,1.279,5.388,5.388,0,0,0-.228,1.6,2.855,2.855,0,0,0,.139.932,1.859,1.859,0,0,0,.4.681,1.677,1.677,0,0,0,.617.418,2.19,2.19,0,0,0,.806.141,2.046,2.046,0,0,0,.814-0.154,1.7,1.7,0,0,0,.6-0.422,1.82,1.82,0,0,0,.367-0.624,2.262,2.262,0,0,0,.125-0.76A1.787,1.787,0,0,0,114.438,88.57Zm-0.349,1.908a1.2,1.2,0,0,1-.237.4,1.123,1.123,0,0,1-.363.264,1.105,1.105,0,0,1-.469.1,1.165,1.165,0,0,1-.56-0.128,1.252,1.252,0,0,1-.4-0.334,1.388,1.388,0,0,1-.237-0.47,1.916,1.916,0,0,1-.076-0.536V89.6a1.453,1.453,0,0,1,.018-0.2,1.211,1.211,0,0,1,.443-0.475,1.335,1.335,0,0,1,.756-0.211,1.194,1.194,0,0,1,.913.316,1.338,1.338,0,0,1,.3.941A1.518,1.518,0,0,1,114.089,90.478ZM116.71,91.2a2.278,2.278,0,0,1-.443-0.119l-0.188.6a2.811,2.811,0,0,0,.519.132,4.445,4.445,0,0,0,.68.044,2.626,2.626,0,0,0,.841-0.132,1.974,1.974,0,0,0,.685-0.387,1.819,1.819,0,0,0,.461-0.637,2.139,2.139,0,0,0,.17-0.875,1.771,1.771,0,0,0-.51-1.363,2,2,0,0,0-1.4-.484L117.144,88v-1.75h2.121V85.6h-2.792V88.64l0.752-.044a1.718,1.718,0,0,1,1.1.316,1.151,1.151,0,0,1,.4.958,1.279,1.279,0,0,1-.4,1.02,1.493,1.493,0,0,1-1.02.352A3.658,3.658,0,0,1,116.71,91.2ZM121,87.686a1.231,1.231,0,0,0,.291.462,1.087,1.087,0,0,0,.438.255,1.955,1.955,0,0,0,1.1,0,1.087,1.087,0,0,0,.438-0.255,1.219,1.219,0,0,0,.291-0.462,2.336,2.336,0,0,0,0-1.4,1.221,1.221,0,0,0-.291-0.462,1.088,1.088,0,0,0-.438-0.255,1.847,1.847,0,0,0-.55-0.079,1.764,1.764,0,0,0-.551.083,1.082,1.082,0,0,0-.438.268,1.326,1.326,0,0,0-.291.466,1.915,1.915,0,0,0-.107.677A2.01,2.01,0,0,0,121,87.686Zm0.747-1.477A0.694,0.694,0,0,1,122.28,86a0.9,0.9,0,0,1,.3.048,0.539,0.539,0,0,1,.228.158,0.74,0.74,0,0,1,.143.3,2.367,2.367,0,0,1,0,.958,0.74,0.74,0,0,1-.143.3,0.537,0.537,0,0,1-.228.158,0.894,0.894,0,0,1-.3.048,0.66,0.66,0,0,1-.533-0.229A1.628,1.628,0,0,1,121.747,86.209Zm2.447,4.739a1.232,1.232,0,0,0,.291.462,1.092,1.092,0,0,0,.438.255,1.953,1.953,0,0,0,1.1,0,1.085,1.085,0,0,0,.438-0.255,1.208,1.208,0,0,0,.291-0.462,2.337,2.337,0,0,0,0-1.4,1.209,1.209,0,0,0-.291-0.462,1.088,1.088,0,0,0-.438-0.255,1.844,1.844,0,0,0-.55-0.079,1.761,1.761,0,0,0-.551.084,1.088,1.088,0,0,0-.438.268,1.326,1.326,0,0,0-.291.466,1.916,1.916,0,0,0-.107.677A2.01,2.01,0,0,0,124.194,90.948Zm0.747-1.477a0.694,0.694,0,0,1,.533-0.207,0.9,0.9,0,0,1,.3.048,0.539,0.539,0,0,1,.228.158,0.741,0.741,0,0,1,.143.3,2.368,2.368,0,0,1,0,.958,0.738,0.738,0,0,1-.143.3,0.537,0.537,0,0,1-.228.158,0.894,0.894,0,0,1-.3.048,0.66,0.66,0,0,1-.533-0.229A1.628,1.628,0,0,1,124.941,89.471Zm-3.574,2.044,0.447,0.343,4.59-6.04-0.438-.334Z"/>
  <path id="Color_Fill_7_copy_3" data-name="Color Fill 7 copy 3" class="cls-8" d="M63,57.938V75.184a2.995,2.995,0,0,1-.743,5.808L61.914,81A2.994,2.994,0,0,1,61,75.184V58A15.488,15.488,0,1,1,63,57.938ZM45,162.514A15.5,15.5,0,0,1,30.829,177.96l-1.771.045A15.5,15.5,0,0,1,29,147.025V101.816a2.994,2.994,0,0,1,.743-5.808L30.086,96A2.994,2.994,0,0,1,31,101.816v45.26A15.506,15.506,0,0,1,45,162.514Zm177,0a15.5,15.5,0,0,1-14.171,15.446l-1.772.045a15.5,15.5,0,0,1-.057-30.98V107.816a2.994,2.994,0,0,1,.743-5.808l0.343-.009a2.994,2.994,0,0,1,.914,5.817v39.26A15.507,15.507,0,0,1,222,162.514Zm103,0a15.5,15.5,0,0,1-14.171,15.446l-1.772.045a15.5,15.5,0,0,1-.057-30.98V107.816a2.994,2.994,0,0,1,.743-5.808l0.343-.009a2.994,2.994,0,0,1,.914,5.817v39.26A15.507,15.507,0,0,1,325,162.514ZM-152,30.938V53.184A2.993,2.993,0,0,1-150,56a3,3,0,0,1-2.743,2.99l-0.343.009A3,3,0,0,1-156,56a2.993,2.993,0,0,1,2-2.819V31a15.5,15.5,0,0,1-15-15.487A15.507,15.507,0,0,1-153.5,0,15.507,15.507,0,0,1-138,15.514,15.5,15.5,0,0,1-152,30.938Zm410,0V78.184a2.995,2.995,0,0,1-.743,5.808L256.914,84A2.994,2.994,0,0,1,256,78.184V31A15.488,15.488,0,1,1,258,30.938ZM88,147.062V101.816a2.994,2.994,0,0,1,.743-5.808L89.086,96A2.994,2.994,0,0,1,90,101.816V147A15.487,15.487,0,1,1,88,147.062ZM119,30.938V78.184a2.995,2.995,0,0,1-.743,5.808L117.914,84A2.994,2.994,0,0,1,117,78.184V31A15.488,15.488,0,1,1,119,30.938Z"/>
  <path id="_1_copy_3" data-name="1 copy 3" class="cls-6" d="M306.616,167.5H313v-1.76h-2.176v-9.632h-1.168l-3.648,2.944,0.88,1.2,1.424-.976,0.768-.944-0.24,1.088v6.32h-2.224v1.76Z"/>
  <path id="_2_copy" data-name="2 copy" class="cls-6" d="M259.36,11.748a2.588,2.588,0,0,0-.656-0.92,2.832,2.832,0,0,0-.992-0.56,3.98,3.98,0,0,0-1.264-.192,5.071,5.071,0,0,0-1.864.312,5.247,5.247,0,0,0-1.416.824L254,12.684a2.96,2.96,0,0,1,.9-0.552,2.789,2.789,0,0,1,1.048-.216,1.517,1.517,0,0,1,1.192.424,1.571,1.571,0,0,1,.376,1.08,3.444,3.444,0,0,1-.216,1.152,7.958,7.958,0,0,1-.584,1.256,14.027,14.027,0,0,1-.832,1.288q-0.465.64-.952,1.24t-0.968,1.136q-0.48.536-.864,0.936V21.5h6.736V19.74h-3.072l-1.152.224v-0.08l0.848-.656q0.528-.624,1.08-1.368a15.31,15.31,0,0,0,1.008-1.544,10.247,10.247,0,0,0,.752-1.632,4.9,4.9,0,0,0,.3-1.648A3.209,3.209,0,0,0,259.36,11.748Z"/>
  <path id="_3_copy" data-name="3 copy" class="cls-6" d="M204.728,165.836a4.516,4.516,0,0,1-.92-0.336l-0.56,1.728a4.23,4.23,0,0,0,1.216.368,8.7,8.7,0,0,0,1.456.128,5.429,5.429,0,0,0,1.584-.224,3.615,3.615,0,0,0,1.288-.688,3.211,3.211,0,0,0,.864-1.152,3.927,3.927,0,0,0,.312-1.632,3.656,3.656,0,0,0-.224-1.328,2.911,2.911,0,0,0-.6-0.968,2.571,2.571,0,0,0-.88-0.6,3.564,3.564,0,0,0-1.064-.256l-0.672.1v-0.08l0.7-.432,2.256-3.024V156.3h-6.112v1.76h2.688l1.264-.144-0.912.72-1.936,2.64v1.1h1.152a2.749,2.749,0,0,1,1.712.432,1.614,1.614,0,0,1,.544,1.344,1.76,1.76,0,0,1-.52,1.28,2.031,2.031,0,0,1-1.512.528A4.6,4.6,0,0,1,204.728,165.836Z"/>
  <path id="_4_copy" data-name="4 copy" class="cls-6" d="M121.848,16.716h-1.76v-6.5h-1.712L113.3,17.2V18.38h4.848V21.5h1.936V18.38h1.76V16.716Zm-3.7,0h-1.9l-1.024.128,0.8-.608,1.664-2.16,0.544-1.152H118.3l-0.144,1.344v2.448Z"/>
  <path id="_5" data-name="5" class="cls-6" d="M87.456,165.8a3.973,3.973,0,0,1-.808-0.248l-0.56,1.728a4.6,4.6,0,0,0,1.1.328,7.505,7.505,0,0,0,1.368.12,5.609,5.609,0,0,0,1.68-.24,3.8,3.8,0,0,0,1.336-.72,3.3,3.3,0,0,0,.888-1.2,4.064,4.064,0,0,0,.32-1.664,4.145,4.145,0,0,0-.24-1.448,3.078,3.078,0,0,0-.688-1.1,3.158,3.158,0,0,0-1.08-.712,4.191,4.191,0,0,0-1.416-.288l-0.656.064v-2.16h3.712V156.3H86.9v5.856l1.264-.048a3.3,3.3,0,0,1,1.872.448,1.585,1.585,0,0,1,.656,1.408,1.813,1.813,0,0,1-.56,1.408,2.315,2.315,0,0,1-1.616.512A5.488,5.488,0,0,1,87.456,165.8Z"/>
  <path id="_6" data-name="6" class="cls-6" d="M65.08,43.556a3.045,3.045,0,0,0-.672-1.08,2.787,2.787,0,0,0-1.04-.664,3.815,3.815,0,0,0-1.328-.224,2.645,2.645,0,0,0-1.28.28,2.717,2.717,0,0,0-.832.68,4.554,4.554,0,0,1,.5-1.3,5.237,5.237,0,0,1,.88-1.144,5.352,5.352,0,0,1,1.192-.88,4.532,4.532,0,0,1,1.472-.5l-0.464-1.648a6.61,6.61,0,0,0-2.184.776,6.366,6.366,0,0,0-1.808,1.536,7.456,7.456,0,0,0-1.232,2.232,8.492,8.492,0,0,0-.456,2.864,5.47,5.47,0,0,0,.288,1.856,3.65,3.65,0,0,0,.8,1.328,3.282,3.282,0,0,0,1.208.792,4.276,4.276,0,0,0,1.528.264,3.8,3.8,0,0,0,1.5-.288,3.426,3.426,0,0,0,1.9-1.952,3.947,3.947,0,0,0,.264-1.456A4.177,4.177,0,0,0,65.08,43.556Zm-2.248,2.9a1.588,1.588,0,0,1-1.224.512,1.6,1.6,0,0,1-1.352-.664,2.186,2.186,0,0,1-.328-0.672,2.647,2.647,0,0,1-.112-0.76V44.612a1.721,1.721,0,0,1,.032-0.3,1.627,1.627,0,0,1,.616-0.672,1.93,1.93,0,0,1,1.08-.288A1.57,1.57,0,0,1,63.3,45.14,1.86,1.86,0,0,1,62.832,46.452Z"/>
  <path id="_7" data-name="7" class="cls-6" d="M29.7,167.5l4.48-10.592V156.3H26.96v1.952h4.112l0.96-.16-0.7.784L27.664,167.5H29.7Z"/>
  <path id="_8" data-name="8" class="cls-6" d="M-149.922,10.987a3.633,3.633,0,0,0-2.539-.852,3.622,3.622,0,0,0-2.531.852,2.959,2.959,0,0,0-.938,2.3,2.661,2.661,0,0,0,.426,1.488,2.968,2.968,0,0,0,1.16,1.027,3.113,3.113,0,0,0-1.359,1.117,2.89,2.89,0,0,0-.485,1.641,2.981,2.981,0,0,0,1.02,2.375,4,4,0,0,0,2.715.883,3.986,3.986,0,0,0,2.7-.879,2.985,2.985,0,0,0,1.016-2.379,2.861,2.861,0,0,0-.481-1.625,3.243,3.243,0,0,0-1.371-1.133,2.982,2.982,0,0,0,1.172-1.027,2.648,2.648,0,0,0,.43-1.488A2.959,2.959,0,0,0-149.922,10.987Zm-1.191,8.836a1.8,1.8,0,0,1-1.34.484,1.8,1.8,0,0,1-1.348-.5,1.832,1.832,0,0,1-.488-1.336,1.888,1.888,0,0,1,.5-1.367,1.752,1.752,0,0,1,1.324-.516,1.772,1.772,0,0,1,1.332.52,1.875,1.875,0,0,1,.5,1.363A1.837,1.837,0,0,1-151.113,19.823ZM-151.3,14.6a1.492,1.492,0,0,1-1.152.461A1.491,1.491,0,0,1-153.6,14.6a1.758,1.758,0,0,1-.426-1.242,1.763,1.763,0,0,1,.422-1.246,1.485,1.485,0,0,1,1.148-.457,1.473,1.473,0,0,1,1.156.481,1.763,1.763,0,0,1,.43,1.223A1.758,1.758,0,0,1-151.3,14.6Z"/>
  <g id="audio_on" data-name="audio on">
    <path id="Rounded_Rectangle_2_copy" data-name="Rounded Rectangle 2 copy" class="cls-9" d="M32.553,93.794a0.412,0.412,0,0,1-.166.035A0.416,0.416,0,0,1,32,93.571a0.431,0.431,0,0,1,.219-0.56,5.02,5.02,0,0,0-.01-9.137,0.429,0.429,0,0,1-.218-0.56,0.411,0.411,0,0,1,.547-0.224A5.88,5.88,0,0,1,32.553,93.794ZM34.2,88.447a3.985,3.985,0,0,1-2.352,3.659,0.4,0.4,0,0,1-.164.035,0.416,0.416,0,0,1-.384-0.258,0.431,0.431,0,0,1,.218-0.56,3.164,3.164,0,0,0-.009-5.76A0.43,0.43,0,0,1,31.287,85a0.412,0.412,0,0,1,.547-0.224A3.991,3.991,0,0,1,34.2,88.447Zm-1.842,0a2.1,2.1,0,0,1-1.235,1.924,0.4,0.4,0,0,1-.166.036,0.416,0.416,0,0,1-.382-0.256,0.431,0.431,0,0,1,.217-0.561,1.257,1.257,0,0,0-.009-2.289,0.429,0.429,0,0,1-.219-0.559,0.413,0.413,0,0,1,.545-0.226A2.1,2.1,0,0,1,32.355,88.446ZM27.16,86.521h0.021L29.7,84.714v7.734L27.16,90.627V86.521Zm-2.378,3.516V87.024a0.518,0.518,0,0,1,.533-0.5h1.205v4.018H25.316A0.518,0.518,0,0,1,24.783,90.037Z"/>
  </g>
  <path class="cls-10" d="M238,111h-1V75h1v36Z"/>
  <path id="Shape_1_copy" data-name="Shape 1 copy" class="cls-10" d="M277,111h-1V75h1v36Z"/>
  <path id="pause" class="cls-11" d="M62.75,93V84H65v9H62.75ZM59,84H61.25v9H59V84Z"/>
  <path id="replay" class="cls-11" d="M92.964,88.55a5.23,5.23,0,0,1,.036.608,4.513,4.513,0,1,1-4.5-4.843,4.262,4.262,0,0,1,2.581.878L92.11,84l-0.136,3.543-3.057.23,1.075-1.248A2.711,2.711,0,0,0,88.54,86.1a3.11,3.11,0,1,0,2.882,3.1c0-.058,0-0.117,0-0.174Z"/>
</svg>
