<svg id="bottom_bar" data-name="bottom bar" xmlns="http://www.w3.org/2000/svg" xmlns:xlink="http://www.w3.org/1999/xlink" width="716" height="217" viewBox="0 0 716 217">
  <defs>
    <style>
      .cls-1, .cls-6 {
        fill: #fff;
      }

      .cls-1 {
        stroke: #cdcdcd;
        stroke-width: 1px;
      }

      .cls-10, .cls-11, .cls-12, .cls-13, .cls-2, .cls-4, .cls-5, .cls-6, .cls-9 {
        fill-rule: evenodd;
      }

      .cls-2 {
        fill: url(#linear-gradient);
      }

      .cls-3 {
        fill: url(#linear-gradient-2);
      }

      .cls-4 {
        fill: url(#linear-gradient-3);
      }

      .cls-5 {
        fill: url(#linear-gradient-4);
      }

      .cls-7 {
        fill: #e4e4e9;
      }

      .cls-10, .cls-8 {
        fill: #059cbf;
      }

      .cls-12, .cls-9 {
        fill: #595a5d;
      }

      .cls-11 {
        fill: #a3a3a6;
      }

      .cls-12 {
        fill-opacity: 0.15;
      }

      .cls-13 {
        fill: #b5b6bc;
      }

      .cls-14 {
        fill: #f26524;
      }
    </style>
    <linearGradient id="linear-gradient" x1="358.125" y1="129" x2="358.125" y2="92" gradientUnits="userSpaceOnUse">
      <stop offset="0" stop-color="#003b76"/>
      <stop offset="1" stop-color="#005097"/>
    </linearGradient>
    <linearGradient id="linear-gradient-2" x1="624.765" y1="129" x2="624.765" y2="92" gradientUnits="userSpaceOnUse">
      <stop offset="0" stop-color="#d95b20"/>
      <stop offset="1" stop-color="#f3743a"/>
    </linearGradient>
    <linearGradient id="linear-gradient-3" x1="678.188" x2="678.188" xlink:href="#linear-gradient-2"/>
    <linearGradient id="linear-gradient-4" x1="571.328" x2="571.328" xlink:href="#linear-gradient-2"/>
  </defs>
  <rect id="white_bar" data-name="white bar" class="cls-1" x="1" y="92" width="712" height="36.625"/>
  <path id="blue_bar" data-name="blue bar" class="cls-2" d="M1,129V117.866H473.234c10.85,0,15.432-6.982,21.263-14.179,9.057-11.18,24.783-11.659,24.783-11.659L715.254,92v37H1Z"/>
  <rect id="menu_button" data-name="menu button" class="cls-3" x="606.125" y="92" width="37.281" height="37"/>
  <path id="next_button" data-name="next button" class="cls-4" d="M696.538,129.009H642.391V92h54.147a17.509,17.509,0,0,1,17.437,17.579v1.851A17.509,17.509,0,0,1,696.538,129.009Z"/>
  <path id="back_button" data-name="back button" class="cls-5" d="M552.983,129.009H607.13V92H552.983a17.509,17.509,0,0,0-17.437,17.579v1.851A17.509,17.509,0,0,0,552.983,129.009Z"/>
  <path id="Back" class="cls-6" d="M567.472,106.962a2.032,2.032,0,0,0-.785-0.7,3.684,3.684,0,0,0-1.114-.349,8.167,8.167,0,0,0-1.282-.1q-0.389,0-.785.013t-0.772.039q-0.375.027-.7,0.066t-0.584.079v9.1a5.951,5.951,0,0,0,.772.119q0.423,0.039.832,0.059t0.765,0.02H564.4a5.8,5.8,0,0,0,1.355-.158,3.836,3.836,0,0,0,1.174-.488,2.517,2.517,0,0,0,.826-0.851,2.38,2.38,0,0,0,.308-1.233,2.593,2.593,0,0,0-.153-0.936,2.01,2.01,0,0,0-.421-0.673,1.964,1.964,0,0,0-.628-0.435,3.139,3.139,0,0,0-.761-0.224v-0.079a2.291,2.291,0,0,0,.774-0.323,2,2,0,0,0,.52-0.5,1.859,1.859,0,0,0,.287-0.626,2.781,2.781,0,0,0,.087-0.686A2.021,2.021,0,0,0,567.472,106.962Zm-3.365,6.825-0.342-.013c-0.11,0-.213-0.011-0.31-0.02a0.759,0.759,0,0,1-.21-0.039V111.2h0.961a6.051,6.051,0,0,1,.685.04,1.834,1.834,0,0,1,.619.176,1.165,1.165,0,0,1,.449.385,1.18,1.18,0,0,1,.171.679,1.148,1.148,0,0,1-.145.587,1.276,1.276,0,0,1-.382.412,1.7,1.7,0,0,1-.547.241,2.6,2.6,0,0,1-.639.078C564.329,113.793,564.226,113.791,564.107,113.787Zm-0.862-3.963v-2.441a4.372,4.372,0,0,1,.456-0.039c0.2-.008.411-0.013,0.644-0.013a3.205,3.205,0,0,1,.59.053,1.52,1.52,0,0,1,.5.182,1.009,1.009,0,0,1,.355.353,1.062,1.062,0,0,1,.135.561,1.03,1.03,0,0,1-.369.822,2.475,2.475,0,0,1-.879.47c-0.108.017-.244,0.03-0.41,0.039s-0.311.013-.436,0.013h-0.59Zm6.468,0.422a4.09,4.09,0,0,1,.959-0.277,6.284,6.284,0,0,1,1.108-.106,0.994,0.994,0,0,1,.9.324,1.684,1.684,0,0,1,.107,1.061,9.018,9.018,0,0,0-1.6.059,3.967,3.967,0,0,0-1.235.357,1.969,1.969,0,0,0-.792.672,1.815,1.815,0,0,0-.275,1.022,1.99,1.99,0,0,0,.148.785,1.787,1.787,0,0,0,.416.607,1.822,1.822,0,0,0,.644.395,2.412,2.412,0,0,0,.845.139,2.288,2.288,0,0,0,1.228-.3,2.365,2.365,0,0,0,.745-0.706h0.067l0.282,0.91h1.422a4.1,4.1,0,0,1-.2-1.008q-0.04-.536-0.033-1.1t0.047-1.154q0.039-.587.04-1.167a3.641,3.641,0,0,0-.114-0.949,1.742,1.742,0,0,0-.389-0.726,1.784,1.784,0,0,0-.745-0.468,3.566,3.566,0,0,0-1.168-.165,8.292,8.292,0,0,0-1.543.139,5.762,5.762,0,0,0-1.275.376Zm1.188,3.422a0.74,0.74,0,0,1-.222-0.574,0.584,0.584,0,0,1,.175-0.435,1.135,1.135,0,0,1,.469-0.263,2.961,2.961,0,0,1,.678-0.119,4.886,4.886,0,0,1,.8.013v0.857a1.629,1.629,0,0,1-.457.495,1.358,1.358,0,0,1-.832.231A0.861,0.861,0,0,1,570.9,113.668Zm9.441-.2a2.641,2.641,0,0,1-.551.27,2.2,2.2,0,0,1-.751.112,1.557,1.557,0,0,1-.7-0.151,1.311,1.311,0,0,1-.489-0.416,1.856,1.856,0,0,1-.282-0.62,3.022,3.022,0,0,1-.094-0.778,2.39,2.39,0,0,1,.376-1.5,1.326,1.326,0,0,1,1.1-.468,2.77,2.77,0,0,1,.691.079,3.658,3.658,0,0,1,.611.224l0.416-1.4a4.079,4.079,0,0,0-.812-0.3,4.822,4.822,0,0,0-1.188-.118,2.757,2.757,0,0,0-2.228.9,3.881,3.881,0,0,0-.765,2.578,6.116,6.116,0,0,0,.155,1.424,2.874,2.874,0,0,0,.5,1.1,2.322,2.322,0,0,0,.906.7,3.31,3.31,0,0,0,1.362.251,4.549,4.549,0,0,0,1.174-.152,2.916,2.916,0,0,0,.973-0.442Zm5.314,1.714h2l-1.812-3.073-0.738-.514,0.684-.5,1.611-2.506h-1.919l-1.53,2.625-0.4.184v-5.446H581.8v9.231h1.745v-2.73h0.47Z"/>
  <path id="menu_icon" data-name="menu icon" class="cls-6" d="M616.734,105.188h18.282a0.922,0.922,0,1,1,0,1.843H616.734A0.922,0.922,0,0,1,616.734,105.188Zm0.016,4.562H635a0.938,0.938,0,1,1,0,1.875H616.75A0.938,0.938,0,0,1,616.75,109.75Zm-0.01,4.563h18.27a0.928,0.928,0,0,1,.928.927v0.02a0.929,0.929,0,0,1-.928.928H616.74a0.928,0.928,0,0,1-.927-0.928v-0.02A0.927,0.927,0,0,1,616.74,114.313Z"/>
  <path id="Next" class="cls-6" d="M668.709,115.244h1.342v-9.3h-1.744V110.8l0.214,1.411h-0.067l-0.711-1.411-3.556-4.919h-1.342v9.3h1.744v-4.813l-0.214-1.451h0.067l0.738,1.451Zm7.706-1.754a2.878,2.878,0,0,1-1.646.5,1.678,1.678,0,0,1-1.277-.422,1.917,1.917,0,0,1-.435-1.253h4.014c0.044-.228.078-0.448,0.1-0.659a5.756,5.756,0,0,0,.034-0.593,3.162,3.162,0,0,0-.229-1.28,2.133,2.133,0,0,0-.6-0.817,2.31,2.31,0,0,0-.858-0.436,3.8,3.8,0,0,0-.994-0.131,3.159,3.159,0,0,0-2.375.87,3.61,3.61,0,0,0-.846,2.611,3.949,3.949,0,0,0,.752,2.552,2.875,2.875,0,0,0,2.375.93,4.872,4.872,0,0,0,1.47-.218,3.442,3.442,0,0,0,1.094-.534Zm-1.055-3.336a1.642,1.642,0,0,1,.221,1.094H673.1a1.975,1.975,0,0,1,.393-1.075,1.224,1.224,0,0,1,1.008-.4A0.985,0.985,0,0,1,675.36,110.154Zm2.14,5.024h1.9l1.034-1.582,0.429-.976,0.4,0.976,1.033,1.582h2.027l-2.161-3.429,2.026-3.165H682.3L681.392,110l-0.4.923L680.613,110l-0.872-1.411h-2.08l2.013,3.218Zm7-5.143h0.926v3.323a2.218,2.218,0,0,0,.436,1.537,1.781,1.781,0,0,0,1.362.468,4.1,4.1,0,0,0,.98-0.119,4.513,4.513,0,0,0,.846-0.29l-0.309-1.319a3.114,3.114,0,0,1-.436.158,1.75,1.75,0,0,1-.463.053,0.531,0.531,0,0,1-.53-0.3,2.464,2.464,0,0,1-.141-0.982v-2.532h1.637v-1.451h-1.637v-1.727l-1.745.487v1.24h-0.926v1.451Z"/>
  <rect id="Rounded_Rectangle_3" data-name="Rounded Rectangle 3" class="cls-7" x="163.469" y="103.344" width="280.125" height="5.156" rx="2.564" ry="2.564"/>
  <rect id="Rounded_Rectangle_3_copy_2" data-name="Rounded Rectangle 3 copy 2" class="cls-7" x="43.469" y="103.344" width="51.125" height="5.156" rx="2.564" ry="2.564"/>
  <rect id="Rounded_Rectangle_3_copy" data-name="Rounded Rectangle 3 copy" class="cls-8" x="162.906" y="103.344" width="171.813" height="5.156" rx="2.564" ry="2.564"/>
  <path id="_65_" data-name="65%" class="cls-9" d="M462.438,105.57a1.79,1.79,0,0,0-1.32-.475,1.629,1.629,0,0,0-.832.2,1.317,1.317,0,0,0-.483.435,3.609,3.609,0,0,1,.268-0.923,3.217,3.217,0,0,1,.506-0.809,2.919,2.919,0,0,1,.72-0.607,2.657,2.657,0,0,1,.913-0.334l-0.153-.562a3.025,3.025,0,0,0-1.194.426,3.387,3.387,0,0,0-.953.884,4.257,4.257,0,0,0-.631,1.279,5.383,5.383,0,0,0-.228,1.6,2.851,2.851,0,0,0,.139.932,1.862,1.862,0,0,0,.4.682,1.675,1.675,0,0,0,.617.417,2.184,2.184,0,0,0,.806.141,2.037,2.037,0,0,0,.814-0.154,1.687,1.687,0,0,0,.6-0.422,1.842,1.842,0,0,0,.367-0.624,2.267,2.267,0,0,0,.125-0.761A1.785,1.785,0,0,0,462.438,105.57Zm-0.349,1.908a1.2,1.2,0,0,1-.237.4,1.139,1.139,0,0,1-.363.264,1.114,1.114,0,0,1-.469.1,1.166,1.166,0,0,1-.56-0.128,1.251,1.251,0,0,1-.4-0.334,1.4,1.4,0,0,1-.237-0.47,1.919,1.919,0,0,1-.076-0.537V106.6a1.458,1.458,0,0,1,.018-0.2,1.206,1.206,0,0,1,.443-0.475,1.341,1.341,0,0,1,.756-0.211,1.191,1.191,0,0,1,.912.317,1.334,1.334,0,0,1,.3.941A1.525,1.525,0,0,1,462.089,107.478Zm2.621,0.725a2.23,2.23,0,0,1-.443-0.119l-0.188.6a2.737,2.737,0,0,0,.519.132,4.483,4.483,0,0,0,.68.044,2.623,2.623,0,0,0,.841-0.132,1.978,1.978,0,0,0,.685-0.387,1.818,1.818,0,0,0,.461-0.637,2.141,2.141,0,0,0,.169-0.875,1.771,1.771,0,0,0-.509-1.363,2,2,0,0,0-1.4-.483l-0.385.017v-1.749h2.121V102.6h-2.792v3.042l0.752-.044a1.718,1.718,0,0,1,1.1.317,1.15,1.15,0,0,1,.4.958,1.281,1.281,0,0,1-.4,1.02,1.5,1.5,0,0,1-1.02.352A3.687,3.687,0,0,1,464.71,108.2Zm4.29-3.517a1.228,1.228,0,0,0,.291.462,1.092,1.092,0,0,0,.438.255,1.958,1.958,0,0,0,1.1,0,1.092,1.092,0,0,0,.438-0.255,1.216,1.216,0,0,0,.291-0.462,2.337,2.337,0,0,0,0-1.4,1.22,1.22,0,0,0-.291-0.461,1.07,1.07,0,0,0-.438-0.255,1.837,1.837,0,0,0-.55-0.079,1.753,1.753,0,0,0-.551.083,1.085,1.085,0,0,0-.438.268,1.331,1.331,0,0,0-.291.466,1.916,1.916,0,0,0-.107.677A2.007,2.007,0,0,0,469,104.686Zm0.747-1.477A0.693,0.693,0,0,1,470.28,103a0.9,0.9,0,0,1,.3.049,0.538,0.538,0,0,1,.228.158,0.738,0.738,0,0,1,.143.3,2.366,2.366,0,0,1,0,.958,0.738,0.738,0,0,1-.143.3,0.54,0.54,0,0,1-.228.159,0.9,0.9,0,0,1-.3.048,0.659,0.659,0,0,1-.533-0.229A1.628,1.628,0,0,1,469.747,103.209Zm2.447,4.739a1.236,1.236,0,0,0,.291.462,1.092,1.092,0,0,0,.438.255,1.958,1.958,0,0,0,1.1,0,1.092,1.092,0,0,0,.438-0.255,1.212,1.212,0,0,0,.291-0.462,2.316,2.316,0,0,0,0-1.4,1.219,1.219,0,0,0-.291-0.462,1.092,1.092,0,0,0-.438-0.255,1.87,1.87,0,0,0-.55-0.079,1.753,1.753,0,0,0-.551.084,1.085,1.085,0,0,0-.438.268,1.331,1.331,0,0,0-.291.466,1.916,1.916,0,0,0-.107.677A2.007,2.007,0,0,0,472.194,107.948Zm0.747-1.477a0.693,0.693,0,0,1,.533-0.207,0.9,0.9,0,0,1,.3.049,0.538,0.538,0,0,1,.228.158,0.738,0.738,0,0,1,.143.3,2.366,2.366,0,0,1,0,.958,0.738,0.738,0,0,1-.143.3,0.538,0.538,0,0,1-.228.158,0.877,0.877,0,0,1-.3.049,0.659,0.659,0,0,1-.533-0.229A1.628,1.628,0,0,1,472.941,106.471Zm-3.574,2.044,0.447,0.343,4.59-6.04-0.438-.334Z"/>
  <path id="Color_Fill_7_copy_3" data-name="Color Fill 7 copy 3" class="cls-10" d="M690,199.5a17.5,17.5,0,1,1-18.518-17.468l0.594-56.192a2.99,2.99,0,1,1,2-.047l-0.594,56.236A17.5,17.5,0,0,1,690,199.5ZM286,116a2.951,2.951,0,0,1-1.016-.189l-84.585,83.6-0.071-.071L200,200H156.975a17.444,17.444,0,1,1-.051-2h42.06l84.449-83.468A2.992,2.992,0,1,1,286,116Zm267,8a2.967,2.967,0,0,1-1.018-.189l-76.583,75.6-0.071-.071L475,200H429.975a17.444,17.444,0,1,1-.051-2h44.061l76.448-75.469A2.992,2.992,0,1,1,553,124Zm72-26a3,3,0,0,1-3-3,2.968,2.968,0,0,1,.433-1.531L545.985,18h-32.01a17.444,17.444,0,1,1-.051-2H547l0.328,0.657,0.071-.071,76.584,75.6A2.966,2.966,0,0,1,625,92,3,3,0,0,1,625,98ZM31,34.924v57.26a3,3,0,1,1-2,0V34.975A17.44,17.44,0,1,1,31,34.924ZM138,98a3,3,0,0,0,3-3,2.968,2.968,0,0,0-.433-1.531L217.015,18h42.01a17.444,17.444,0,1,0,.051-2H216l-0.328.657-0.071-.071-76.584,75.6A3,3,0,1,0,138,98ZM112,34.924v57.26a3,3,0,1,1-2,0V34.975A17.44,17.44,0,1,1,112,34.924Z"/>
  <path id="_1_copy_2" data-name="1 copy 2" class="cls-6" d="M670.616,204.5H677v-1.76h-2.176v-9.632h-1.168l-3.648,2.944,0.88,1.2,1.424-.976,0.768-.944-0.24,1.088v6.32h-2.224v1.76Z"/>
  <path id="_2_copy" data-name="2 copy" class="cls-6" d="M500.36,12.748a2.588,2.588,0,0,0-.656-0.92,2.832,2.832,0,0,0-.992-0.56,3.98,3.98,0,0,0-1.264-.192,5.071,5.071,0,0,0-1.864.312,5.247,5.247,0,0,0-1.416.824L495,13.684a2.96,2.96,0,0,1,.9-0.552,2.789,2.789,0,0,1,1.048-.216,1.517,1.517,0,0,1,1.192.424,1.571,1.571,0,0,1,.376,1.08,3.444,3.444,0,0,1-.216,1.152,7.958,7.958,0,0,1-.584,1.256,14.027,14.027,0,0,1-.832,1.288q-0.465.64-.952,1.24t-0.968,1.136q-0.48.536-.864,0.936V22.5h6.736V20.74h-3.072l-1.152.224v-0.08l0.848-.656q0.528-.624,1.08-1.368a15.31,15.31,0,0,0,1.008-1.544,10.247,10.247,0,0,0,.752-1.632,4.9,4.9,0,0,0,.3-1.648A3.209,3.209,0,0,0,500.36,12.748Z"/>
  <path id="_3_copy" data-name="3 copy" class="cls-6" d="M410.728,202.836a4.516,4.516,0,0,1-.92-0.336l-0.56,1.728a4.23,4.23,0,0,0,1.216.368,8.7,8.7,0,0,0,1.456.128,5.429,5.429,0,0,0,1.584-.224,3.615,3.615,0,0,0,1.288-.688,3.211,3.211,0,0,0,.864-1.152,3.927,3.927,0,0,0,.312-1.632,3.656,3.656,0,0,0-.224-1.328,2.911,2.911,0,0,0-.6-0.968,2.571,2.571,0,0,0-.88-0.6,3.564,3.564,0,0,0-1.064-.256l-0.672.1v-0.08l0.7-.432,2.256-3.024V193.3h-6.112v1.76h2.688l1.264-.144-0.912.72-1.936,2.64v1.1h1.152a2.749,2.749,0,0,1,1.712.432,1.614,1.614,0,0,1,.544,1.344,1.76,1.76,0,0,1-.52,1.28,2.031,2.031,0,0,1-1.512.528A4.6,4.6,0,0,1,410.728,202.836Z"/>
  <path id="_4_copy" data-name="4 copy" class="cls-6" d="M143.848,200.716h-1.76v-6.5h-1.712L135.3,201.2v1.184h4.848v3.12h1.936v-3.12h1.76v-1.664Zm-3.7,0h-1.9l-1.024.128,0.8-.608,1.664-2.16,0.544-1.152H140.3l-0.144,1.344v2.448Z"/>
  <path id="_5" data-name="5" class="cls-6" d="M275.456,21.8a3.947,3.947,0,0,1-.808-0.248l-0.56,1.728a4.6,4.6,0,0,0,1.1.328,7.505,7.505,0,0,0,1.368.12,5.609,5.609,0,0,0,1.68-.24,3.8,3.8,0,0,0,1.336-.72,3.314,3.314,0,0,0,.888-1.2,4.067,4.067,0,0,0,.32-1.664,4.144,4.144,0,0,0-.24-1.448,3.085,3.085,0,0,0-.688-1.1,3.158,3.158,0,0,0-1.08-.712,4.22,4.22,0,0,0-1.416-.288l-0.656.064v-2.16h3.712V12.3h-5.5v5.856l1.264-.048a3.307,3.307,0,0,1,1.872.448,1.585,1.585,0,0,1,.656,1.408,1.813,1.813,0,0,1-.56,1.408,2.314,2.314,0,0,1-1.616.512A5.511,5.511,0,0,1,275.456,21.8Z"/>
  <path id="_6" data-name="6" class="cls-6" d="M114.08,17.556a3.045,3.045,0,0,0-.672-1.08,2.79,2.79,0,0,0-1.04-.664,3.817,3.817,0,0,0-1.328-.224,2.644,2.644,0,0,0-1.28.28,2.707,2.707,0,0,0-.832.68,4.554,4.554,0,0,1,.5-1.3,5.228,5.228,0,0,1,.88-1.144,5.341,5.341,0,0,1,1.192-.88,4.528,4.528,0,0,1,1.472-.5l-0.464-1.648a6.61,6.61,0,0,0-2.184.776,6.363,6.363,0,0,0-1.808,1.536,7.445,7.445,0,0,0-1.232,2.232,8.492,8.492,0,0,0-.456,2.864,5.47,5.47,0,0,0,.288,1.856,3.643,3.643,0,0,0,.8,1.328,3.281,3.281,0,0,0,1.208.792,4.274,4.274,0,0,0,1.528.264,3.8,3.8,0,0,0,1.5-.288,3.426,3.426,0,0,0,1.9-1.952,3.947,3.947,0,0,0,.264-1.456A4.177,4.177,0,0,0,114.08,17.556Zm-2.248,2.9a1.589,1.589,0,0,1-1.224.512,1.6,1.6,0,0,1-1.352-.664,2.175,2.175,0,0,1-.328-0.672,2.637,2.637,0,0,1-.112-0.76V18.612a1.674,1.674,0,0,1,.032-0.3,1.622,1.622,0,0,1,.616-0.672,1.929,1.929,0,0,1,1.08-.288,1.57,1.57,0,0,1,1.76,1.792A1.862,1.862,0,0,1,111.832,20.452Z"/>
  <path id="_7" data-name="7" class="cls-6" d="M29.7,23.5l4.48-10.592V12.3H26.96v1.952h4.112l0.96-.16-0.7.784L27.664,23.5H29.7Z"/>
  <g id="audio_on" data-name="audio on">
    <path id="Rounded_Rectangle_2_copy" data-name="Rounded Rectangle 2 copy" class="cls-11" d="M32.553,110.793a0.411,0.411,0,0,1-.166.036A0.417,0.417,0,0,1,32,110.571a0.431,0.431,0,0,1,.219-0.56,5.02,5.02,0,0,0-.01-9.137,0.429,0.429,0,0,1-.218-0.56,0.41,0.41,0,0,1,.547-0.223A5.879,5.879,0,0,1,32.553,110.793Zm1.645-5.347a3.985,3.985,0,0,1-2.352,3.659,0.4,0.4,0,0,1-.164.035,0.416,0.416,0,0,1-.384-0.257,0.43,0.43,0,0,1,.218-0.56,3.164,3.164,0,0,0-.009-5.761,0.43,0.43,0,0,1-.218-0.56,0.413,0.413,0,0,1,.547-0.224A3.992,3.992,0,0,1,34.2,105.446Zm-1.842,0a2.1,2.1,0,0,1-1.235,1.923,0.4,0.4,0,0,1-.166.036,0.417,0.417,0,0,1-.382-0.256,0.43,0.43,0,0,1,.217-0.561,1.257,1.257,0,0,0-.009-2.289,0.429,0.429,0,0,1-.219-0.56,0.413,0.413,0,0,1,.545-0.226A2.1,2.1,0,0,1,32.355,105.446Zm-5.194-1.925h0.021l2.523-1.808v7.734l-2.544-1.82v-4.106Zm-2.378,3.516v-3.013a0.519,0.519,0,0,1,.533-0.5h1.205v4.018H25.316A0.518,0.518,0,0,1,24.783,107.037Z"/>
  </g>
  <path class="cls-12" d="M606,128h-1V92h1v36Z"/>
  <path id="Shape_1_copy" data-name="Shape 1 copy" class="cls-12" d="M645,128h-1V92h1v36Z"/>
  <path id="pause" class="cls-13" d="M111.75,110v-9H114v9H111.75ZM108,101h2.251v9H108v-9Z"/>
  <path id="replay" class="cls-13" d="M141.964,105.55a5.124,5.124,0,0,1,.036.607,4.513,4.513,0,1,1-4.5-4.843,4.255,4.255,0,0,1,2.58.878L141.11,101l-0.136,3.542-3.057.23,1.076-1.248a2.715,2.715,0,0,0-1.453-.426,3.11,3.11,0,1,0,2.881,3.1c0-.059,0-0.117,0-0.175Z"/>
  <circle class="cls-14" cx="70" cy="106" r="4"/>
</svg>
