<svg id="Layer_1" data-name="Layer 1" xmlns="http://www.w3.org/2000/svg" viewBox="0 0 850 37.20975"><defs><style>.cls-1{fill:#fff;fill-rule:evenodd;}.cls-2{fill:#dfdede;}</style></defs><title>minerva_bar_no_left</title><path class="cls-1" d="M-4.82085,36.71c-12.17089,0-17.82177-7.73926-24.36474-16.70117Q-30.074,18.793-30.983,17.56006C-38.94926,6.81641-51.1226,2.2627-57.6934.5H845c-6.57128,1.7627-18.74414,6.31641-26.71,17.06006q-.91259,1.22973-1.79785,2.44873C809.94917,28.97021,804.29781,36.71,792.12691,36.71Z"/><path class="cls-2" d="M841.44362,1c-6.86212,2.27365-16.65479,6.95541-23.55591,16.26224q-.913,1.23143-1.79889,2.45117C809.626,28.56522,804.04457,36.20981,792.127,36.20981H-4.82085c-11.91753,0-17.49906-7.645-23.96212-16.49695q-.88835-1.217-1.79847-2.45059C-37.48254,7.95544-47.2752,3.27368-54.13728,1h895.5809m8.20953-1h-912s19.647,2.59811,30.96212,17.85788c7.28389,9.82294,13.00859,19.3519,26.56388,19.3519H792.127c13.55566,0,19.28-9.529,26.564-19.3519C830.00624,2.59814,849.65315,0,849.65315,0Z"/></svg>