<svg id="Layer_1" data-name="Layer 1" xmlns="http://www.w3.org/2000/svg" viewBox="0 0 682.55038 37.20975"><defs><style>.cls-1{fill:#fff;fill-rule:evenodd;}.cls-2{fill:#dfdede;}</style></defs><title>minerva_bar_single</title><path class="cls-1" d="M61.75919,36.71c-13.09619,0-19.168-7.74609-26.19873-16.71582q-.95215-1.21509-1.92871-2.44775C25.08682,6.813,12.03555,2.26221,4.98721.5H677.56339c-7.04883,1.76221-20.09961,6.313-28.64551,17.04639q-.97705,1.229-1.92774,2.44677C639.95987,28.96338,633.8876,36.71,620.79093,36.71Z"/><path class="cls-2" d="M673.75821,1c-7.35181,2.27182-17.83679,6.947-25.23077,16.23511q-.98017,1.2312-1.93116,2.4509c-6.94995,8.86645-12.95208,16.52374-25.80529,16.52374H61.75927c-12.85318,0-18.85527-7.65738-25.80527-16.52393q-.95387-1.21692-1.931-2.45071C26.629,7.947,16.144,3.27185,8.79218,1h664.966m8.79218-1H0S21.09272,2.59814,33.24063,17.85794c7.81991,9.82291,13.96573,19.35184,28.51864,19.35184H620.791c14.5531,0,20.69885-9.52893,28.51879-19.35184C661.45761,2.59814,682.55039,0,682.55039,0Z"/></svg>