<svg xmlns="http://www.w3.org/2000/svg" xmlns:xlink="http://www.w3.org/1999/xlink" viewBox="0 0 138 23"><defs><style>.cls-1{fill:url(#linear-gradient);}.cls-2{fill:none;}.cls-3{fill:url(#linear-gradient-2);}.cls-4{fill:url(#linear-gradient-3);}.cls-5{fill:#fff;}</style><linearGradient id="linear-gradient" x1="68.7695" y1="1" x2="68.7695" y2="24" gradientTransform="matrix(1, 0, 0, -1, 0, 24)" gradientUnits="userSpaceOnUse"><stop offset="0" stop-color="#ff794d"/><stop offset="1" stop-color="#ff9b4d"/></linearGradient><linearGradient id="linear-gradient-2" x1="69" y1="23.5" x2="69" y2="0.5" gradientUnits="userSpaceOnUse"><stop offset="0" stop-color="#b14b1b"/><stop offset="0.1" stop-color="#b14b1b" stop-opacity="0"/><stop offset="0.9" stop-color="#f39e78" stop-opacity="0"/><stop offset="1" stop-color="#f7a986"/></linearGradient><linearGradient id="linear-gradient-3" x1="68.7695" y1="23.5" x2="68.7695" y2="0.5" gradientUnits="userSpaceOnUse"><stop offset="0" stop-color="#ce6440"/><stop offset="0.1" stop-color="#ce6440" stop-opacity="0"/><stop offset="0.9" stop-color="#febf8e" stop-opacity="0"/><stop offset="1" stop-color="#febf8e"/></linearGradient></defs><title>minerva_cc_tab_o</title><g id="cc_tab_o"><path id="tab" class="cls-1" d="M105.149,0c4.828.293,13.028,1.874,18.522,8.758,4.2,5.26,7.685,12.057,13.868,14.242H0V0Z"/><path class="cls-2" d="M121.90152,9.758c-5.494-6.884-13.694-7.465-18.522-7.758H2.2305V21h129.539C128.4437,19.11475,126.10153,15.018,121.90152,9.758Z"/><path class="cls-3" d="M123.90152,8.758c-5.494-6.884-13.694-8.465-18.522-8.758H.2305V23h137.539C131.58652,20.815,128.10153,14.018,123.90152,8.758ZM2.2305,21V2h101.149c4.828.293,13.028.874,18.522,7.758,4.2,5.26,6.54218,9.35675,9.868,11.242Z"/><path class="cls-2" d="M121.671,9.758C116.177,2.874,107.977,2.293,103.149,2H2V21H131.539C128.2132,19.11475,125.871,15.018,121.671,9.758Z"/><path class="cls-4" d="M123.671,8.758C118.177,1.874,109.977.293,105.149,0H0V23H137.539C131.356,20.815,127.871,14.018,123.671,8.758ZM2,21V2H103.149c4.828.293,13.028.874,18.522,7.758,4.2,5.26,6.54218,9.35675,9.868,11.242Z"/></g><g id="Layer_2" data-name="Layer 2"><path id="icon" class="cls-5" d="M69.984,18.31333a2.63182,2.63182,0,0,1-.7.6c-.87.7-4.926.915-9.648.955-4.722-.02-8.963-.259-9.815-.955a2.24993,2.24993,0,0,1-.741-.6c-.87-1.233-.982-2.983-1.037-6.961.055-4,.167-5.728,1.037-6.961a2.80006,2.80006,0,0,1,.741-.6c.829-.693,5.089-.929,9.811-.929s8.778.259,9.648.935a2.63208,2.63208,0,0,1,.7.6c.874,1.227,1.023,2.957,1.06,6.955C71.003,15.34933,70.854,17.08033,69.984,18.31333Zm-15.408-9.984c.926,0,1.519.716,1.611,1.989h2.834c-.241-3.123-1.797-4.956-4.556-4.956-2.537,0-4.519,2.426-4.519,6.364s1.815,6.4,4.8,6.4c2.389,0,4.074-1.889,4.315-5.012H56.206c-.111,1.153-.556,2.048-1.519,2.048-1.5,0-1.778-1.591-1.778-3.3C52.91,9.52233,53.54,8.32933,54.576,8.32933Zm9.831,0c.926,0,1.519.716,1.611,1.989h2.834c-.241-3.123-1.797-4.956-4.556-4.956-2.537,0-4.519,2.426-4.519,6.364s1.815,6.4,4.8,6.4c2.389,0,4.074-1.889,4.315-5.012H66.04c-.111,1.153-.555,2.048-1.519,2.048-1.5,0-1.778-1.591-1.778-3.3C62.74,9.52233,63.37,8.32933,64.407,8.32933Z"/></g></svg>