<svg xmlns="http://www.w3.org/2000/svg" xmlns:xlink="http://www.w3.org/1999/xlink" viewBox="0 0 233.8966 28.1875"><defs><style>.cls-1{fill:#a81f23;}.cls-1,.cls-2,.cls-4{fill-rule:evenodd;}.cls-2{fill:url(#linear-gradient);}.cls-3,.cls-4{fill:#fff;}</style><linearGradient id="linear-gradient" x1="141.85716" y1="0.21137" x2="141.85716" y2="27.9639" gradientUnits="userSpaceOnUse"><stop offset="0" stop-color="#2d2d2d"/><stop offset="1"/></linearGradient></defs><title>audio_slider</title><g id="red"><path class="cls-1" d="M45.87266,0C21.246,0,9.83622,11.85065,0,28.1875H233.89659V0Z"/></g><g id="black"><path class="cls-2" d="M93.358,0C69.9835,0,55.27159,11.63239,49.81773,28.1875H233.89659V0Z"/></g><g id="icon_headphones"><path class="cls-3" d="M41.17008,16.08435l.09675-.2767a1.13962,1.13962,0,0,0-.5271-1.37827,6.29678,6.29678,0,1,0-12.59213-.05576,1.138,1.138,0,0,0-.64139,1.434l.09676.2767a3.24451,3.24451,0,0,0,.13978,2.39633A3.24119,3.24119,0,0,0,29.11231,20.401l.04642.1327a1.09733,1.09733,0,0,0,1.4118.68345L31.876,20.738l-.15888-.4545.88644-.63216-1.853-5.26907-1.06618.08747-.07675-.21929A4.8352,4.8352,0,0,1,39.2632,13.971l-.17441.49877-1.06637-.08747-1.853,5.26907.88639.63216-.15888.4545,1.3055.47919a1.09735,1.09735,0,0,0,1.41186-.68345l.04641-.1327a3.24118,3.24118,0,0,0,1.36962-1.92036A3.24505,3.24505,0,0,0,41.17008,16.08435Z"/></g><g id="icon_replay"><path class="cls-3" d="M220.1783,13.65859a4.8732,4.8732,0,0,1,.03646.58654,4.50676,4.50676,0,1,1-9.00729,0,4.59138,4.59138,0,0,1,4.50365-4.67428,4.36813,4.36813,0,0,1,2.58234.847l1.03006-1.1503-.13587,3.419-3.05881.222L217.205,11.7039a2.786,2.786,0,0,0-1.45375-.41076,2.99525,2.99525,0,1,0,2.8834,2.9931c0-.05648-.00188-.11259-.00471-.16838Z"/></g><g id="icon_play"><path id="play" class="cls-4" d="M195.121,9.35783l6.62282,4.81659L195.121,18.991Z"/></g><g id="icon_pause"><path class="cls-3" d="M199.23834,19.02963V9.37747h2.00549V19.0293h-2.00549Zm-3.65855-9.65216h2.00529V19.0293h-2.00529Z"/></g><g id="icon_audio"><path class="cls-4" d="M84.13979,20.76315a.45489.45489,0,0,1-.19423.04367.48754.48754,0,0,1-.44722-.321.55152.55152,0,0,1,.25607-.69806,6.23087,6.23087,0,0,0,3.43232-5.688A6.23583,6.23583,0,0,0,83.7429,8.40033a.54836.54836,0,0,1-.25541-.69761.47062.47062,0,0,1,.63962-.27849,7.30012,7.30012,0,0,1,4.034,6.67512A7.30072,7.30072,0,0,1,84.13979,20.76315Zm1.92336-6.664A4.994,4.994,0,0,1,83.31229,18.659a.45034.45034,0,0,1-.192.04373.48727.48727,0,0,1-.44885-.321.55131.55131,0,0,1,.25469-.69806,3.927,3.927,0,0,0,2.16309-3.58444,3.92949,3.92949,0,0,0-2.1742-3.5947.54987.54987,0,0,1-.25509-.69754.47214.47214,0,0,1,.63955-.27941A5.00089,5.00089,0,0,1,86.06315,14.09915Zm-2.15472-.00091a2.63247,2.63247,0,0,1-1.44384,2.39738A.44676.44676,0,0,1,82.27,16.54a.48743.48743,0,0,1-.44716-.31942.55106.55106,0,0,1,.25365-.699,1.61118,1.61118,0,0,0-.01039-2.853.54854.54854,0,0,1-.2564-.69715.47257.47257,0,0,1,.63694-.282A2.62608,2.62608,0,0,1,83.90843,14.09824Zm-6.075-2.3983h.0249l2.951-2.25324v9.6389l-2.97587-2.26893Zm-2.78081,4.38134V12.32582a.62455.62455,0,0,1,.62328-.62588h1.40952v5.00723H75.67592A.62459.62459,0,0,1,75.05264,16.08128Z"/></g><g id="icon_mute"><path class="cls-4" d="M77.83345,11.69994h.0249l2.951-2.25324v9.6389l-2.97587-2.26893Zm-2.78081,4.38134V12.32582a.62455.62455,0,0,1,.62328-.62588h1.40952v5.00723H75.67592A.62459.62459,0,0,1,75.05264,16.08128Zm12.93563.51517L87.17,17.423l-2.294-2.31791-2.2702,2.29354-.812-.82034,2.2702-2.29354-2.29405-2.3179.81827-.82657,2.294,2.31791,2.2702-2.29353.812.82034-2.27227,2.29353Z"/></g></svg>