<?xml version="1.0" encoding="utf-8"?>
<!-- Generator: Adobe Illustrator 22.0.1, SVG Export Plug-In . SVG Version: 6.00 Build 0)  -->
<svg version="1.1" id="svg2" xmlns:svg="http://www.w3.org/2000/svg"
	 xmlns="http://www.w3.org/2000/svg" xmlns:xlink="http://www.w3.org/1999/xlink" x="0px" y="0px" viewBox="0 0 153 114.7"
	 style="enable-background:new 0 0 153 114.7;" xml:space="preserve">
<style type="text/css">
	.st0{fill:none;}
	.st1{fill:#FFFFFF;}
</style>
<path id="path18" class="st0" d="M138.7,56.9c-0.2-20-1-28.8-5.7-35c-0.9-1.3-2.5-2.1-3.8-3c-4.7-3.4-26.6-4.7-52.1-4.7
	s-48.5,1.2-53,4.7c-1.4,0.9-3,1.7-4,3c-4.7,6.2-5.3,14.9-5.6,35c0.3,20,0.9,28.8,5.6,35c0.9,1.4,2.6,2.1,4,3
	c4.6,3.5,27.5,4.7,53,4.8c25.5-0.2,47.4-1.3,52.1-4.8c1.3-0.9,2.9-1.6,3.8-3C137.7,85.6,138.5,76.9,138.7,56.9z"/>
<g>
	<path class="st0" d="M50.5,76.1c-8.1,0-9.6-8.1-9.6-16.6c0-11.8,3.4-17.8,9-17.8c5,0,8.2,3.6,8.7,10h15.2c-1.4-15.7-9.7-25-24.6-25
		c-13.6,0-24.4,12.3-24.4,32c0,19.8,9.8,32.2,25.9,32.2c12.9,0,21.9-9.5,23.3-25.3H58.7C58.1,71.6,55.6,76.1,50.5,76.1z"/>
	<path class="st0" d="M103.7,76.1c-8.1,0-9.6-8.1-9.6-16.6c0-11.8,3.4-17.8,9-17.8c5,0,8.2,3.6,8.7,10H127
		c-1.3-15.7-9.6-24.9-24.6-24.9C88.7,26.7,78,39,78,58.8S87.8,91,103.9,91c12.9,0,21.9-9.5,23.3-25.3h-15.4
		C111.2,71.6,108.8,76.1,103.7,76.1z"/>
	<path class="st1" d="M133,21.9c-0.9-1.3-2.5-2.1-3.8-3c-4.7-3.4-26.6-4.7-52.1-4.7s-48.5,1.2-53,4.7c-1.4,0.9-3,1.7-4,3
		c-4.7,6.2-5.3,14.9-5.6,35c0.3,20,0.9,28.8,5.6,35c0.9,1.4,2.6,2.1,4,3c4.6,3.5,27.5,4.7,53,4.8c25.5-0.2,47.4-1.3,52.1-4.8
		c1.3-1,2.9-1.6,3.8-3c4.7-6.2,5.5-14.9,5.7-35C138.5,36.8,137.7,28.1,133,21.9z M50.7,91c-16.1,0-25.9-12.4-25.9-32.2
		s10.7-32,24.4-32c14.9,0,23.3,9.2,24.6,24.9H58.5c-0.5-6.4-3.7-10-8.7-10c-5.6,0-9,6-9,17.8c0,8.6,1.5,16.6,9.6,16.6
		c5.2,0,7.6-4.5,8.2-10.3H74C72.7,81.5,63.6,91,50.7,91z M103.9,91C87.8,91,78,78.6,78,58.8s10.7-32,24.3-32
		c14.9,0,23.3,9.2,24.6,24.9h-15.2c-0.5-6.4-3.7-10-8.7-10c-5.6,0-9,6-9,17.8c0,8.6,1.5,16.6,9.6,16.6c5.2,0,7.6-4.5,8.2-10.3h15.4
		C125.8,81.5,116.8,91,103.9,91z"/>
</g>
</svg>
