<?xml version="1.0" encoding="utf-8"?>
<!-- Generator: Adobe Illustrator 21.1.0, SVG Export Plug-In . SVG Version: 6.00 Build 0)  -->
<svg version="1.1" id="content_area" xmlns="http://www.w3.org/2000/svg" xmlns:xlink="http://www.w3.org/1999/xlink" x="0px"
	 y="0px" viewBox="0 0 58 58.1" style="enable-background:new 0 0 58 58.1;" xml:space="preserve">
<style type="text/css">
	.st0{fill:#FFFFFF;}
	.st1{fill:#ffcf48;}
</style>
<path id="link_icons" class="st0" d="M13.9,24.7h-1.5C9.9,24.8,8,27,8.1,29.5v1.3c-0.1,2.5,1.9,4.6,4.4,4.8h12.9
	c2.5-0.1,4.5-2.2,4.4-4.8v-0.3c1-3.4,4.6-3,5.7-2.7c0.1,0.5,0.1,0.9,0.1,1.4v1.9c0,5.8-4.4,10.6-9.7,10.6H11.7
	C6.4,41.6,2,36.9,2,31.1v-1.8c0-5.8,4.4-10.6,9.7-10.6h11.5c-2.1,1.5-3.3,4.1-3.9,6.1L13.9,24.7L13.9,24.7z M13.9,92.2h-1.5
	C9.9,92.3,7.9,94.4,8,97v1.3c0,2.5,1.9,4.6,4.5,4.8h12.9c2.5-0.1,4.5-2.2,4.4-4.8V98c1-3.4,4.6-3,5.7-2.7c0.1,0.5,0.1,0.9,0.1,1.4
	v1.9c0,5.8-4.4,10.6-9.7,10.6H11.7C6.4,109.1,2,104.4,2,98.6v-1.9c0-5.8,4.4-10.6,9.7-10.6h11.5c-2.1,1.5-3.3,4.1-3.9,6.1H13.9z
	 M13.9,159.2h-1.5c-2.5,0.1-4.5,2.2-4.4,4.8v1.3c-0.1,2.5,1.9,4.6,4.4,4.8h12.9c2.5-0.1,4.5-2.2,4.4-4.8V165c1-3.4,4.6-3,5.7-2.7
	c0.1,0.5,0.1,0.9,0.1,1.4v1.9c0,5.8-4.4,10.6-9.7,10.6H11.7c-5.4,0-9.7-4.7-9.7-10.6v-1.9c0-5.8,4.4-10.6,9.7-10.6h11.5
	c-2.1,1.5-3.3,4.1-3.9,6.1H13.9z M13.9,225.7h-1.5c-2.5,0.1-4.5,2.2-4.4,4.8v1.3c-0.1,2.5,1.9,4.6,4.4,4.8h12.9
	c2.5-0.1,4.5-2.2,4.4-4.8v-0.3c1-3.4,4.6-3,5.7-2.7c0.1,0.5,0.1,0.9,0.1,1.4v1.9c0,5.8-4.4,10.6-9.7,10.6H11.7
	c-5.4,0-9.7-4.7-9.7-10.6v-1.9c0-5.8,4.4-10.6,9.7-10.6h11.5c-2.1,1.5-3.3,4.1-3.9,6.1H13.9z M13.9,294.7h-1.5
	c-2.5,0.1-4.5,2.2-4.4,4.8v1.3c-0.1,2.5,1.9,4.6,4.4,4.8h12.9c2.5-0.1,4.5-2.2,4.4-4.8v-0.3c1-3.4,4.6-3,5.7-2.7
	c0.1,0.5,0.1,0.9,0.1,1.4v1.9c0,5.8-4.4,10.6-9.7,10.6H11.7c-5.4,0-9.7-4.7-9.7-10.6v-1.9c0-5.8,4.4-10.6,9.7-10.6h11.5
	c-2.1,1.5-3.3,4.1-3.9,6.1L13.9,294.7L13.9,294.7z M13.9,360.7h-1.5c-2.5,0.1-4.5,2.2-4.4,4.8v1.3c-0.1,2.5,1.9,4.6,4.4,4.8h12.9
	c2.5-0.1,4.5-2.2,4.4-4.8v-0.3c1-3.4,4.6-3,5.7-2.7c0.1,0.5,0.1,0.9,0.1,1.4v1.9c0,5.8-4.4,10.6-9.7,10.6H11.7
	c-5.4,0-9.7-4.7-9.7-10.6v-1.9c0-5.8,4.4-10.6,9.7-10.6h11.5c-2.1,1.5-3.3,4.1-3.9,6.1L13.9,360.7L13.9,360.7z M13.9,427.7h-1.5
	c-2.5,0.1-4.5,2.2-4.4,4.8v1.3c-0.1,2.5,1.9,4.6,4.4,4.8h12.9c2.5-0.1,4.5-2.2,4.4-4.8v-0.3c1-3.4,4.6-3,5.7-2.7
	c0.1,0.5,0.1,0.9,0.1,1.4v1.9c0,5.8-4.4,10.6-9.7,10.6H11.7c-5.4,0-9.7-4.7-9.7-10.6v-1.9c0-5.8,4.4-10.6,9.7-10.6h11.5
	c-2.1,1.5-3.3,4.1-3.9,6.1L13.9,427.7L13.9,427.7z"/>
<path id="link_icons_copy" class="st1" d="M45.3,41.6h-12c2.3-1.3,3.6-4,4.2-6.1h7c2.5-0.1,4.5-2.2,4.4-4.8v-1.3
	c0.1-2.5-1.9-4.6-4.4-4.8H31.7c-2.2,0.1-4,1.7-4.3,3.8l-0.1-0.1c-0.2,4.8-4.1,4.6-5.7,4.4c-0.1-0.6-0.1-1.1-0.1-1.7v-1.8
	c0-5.8,4.4-10.6,9.7-10.6h14.1c5.4,0,9.7,4.7,9.7,10.6v1.9C55,36.9,50.6,41.6,45.3,41.6z M45.3,109.1h-12c2.3-1.3,3.6-4,4.2-6.1h7
	c2.5-0.1,4.5-2.2,4.4-4.8v-1.3c0.1-2.5-1.9-4.6-4.4-4.8H31.7c-2.2,0.1-4,1.7-4.3,3.8l-0.1-0.1c-0.2,4.8-4.1,4.6-5.7,4.4
	c-0.1-0.6-0.1-1.1-0.1-1.7v-1.9c0-5.8,4.4-10.6,9.7-10.6h14.1c5.4,0,9.7,4.7,9.7,10.6v1.9C55,104.4,50.6,109.1,45.3,109.1z
	 M45.3,176.1h-12c2.3-1.3,3.6-4,4.2-6.1h7c2.5-0.1,4.5-2.2,4.4-4.8v-1.3c0.1-2.5-1.9-4.6-4.4-4.8H31.7c-2.2,0.1-3.9,1.7-4.3,3.8
	l-0.1-0.1c-0.2,4.8-4.1,4.6-5.7,4.4c-0.1-0.6-0.1-1.1-0.1-1.7v-1.9c0-5.8,4.4-10.6,9.7-10.6h14.1c5.4,0,9.7,4.7,9.7,10.6v1.9
	C55,171.4,50.6,176.1,45.3,176.1z M45.3,242.6h-12c2.3-1.3,3.6-4,4.2-6.1h7c2.5-0.1,4.5-2.2,4.4-4.8v-1.3c0.1-2.5-1.9-4.6-4.4-4.8
	H31.7c-2.2,0.1-3.9,1.7-4.3,3.8l-0.1-0.1c-0.2,4.8-4.1,4.6-5.7,4.4c-0.1-0.6-0.1-1.1-0.1-1.7v-1.9c0-5.8,4.4-10.6,9.7-10.6h14.1
	c5.4,0,9.7,4.7,9.7,10.6v1.9C55,237.9,50.6,242.6,45.3,242.6z M45.3,311.6h-12c2.3-1.3,3.6-4,4.2-6.1h7c2.5-0.1,4.5-2.2,4.4-4.8
	v-1.3c0.1-2.5-1.9-4.6-4.4-4.8H31.7c-2.2,0.1-3.9,1.7-4.3,3.8l-0.1-0.1c-0.2,4.8-4.1,4.6-5.7,4.4c-0.1-0.6-0.1-1.1-0.1-1.7v-1.9
	c0-5.8,4.4-10.6,9.7-10.6h14.1c5.4,0,9.7,4.7,9.7,10.6v1.9C55,306.9,50.6,311.6,45.3,311.6z M45.3,377.6h-12c2.3-1.3,3.6-4,4.2-6.1
	h7c2.5-0.1,4.5-2.2,4.4-4.8v-1.3c0.1-2.5-1.9-4.6-4.4-4.8H31.7c-2.2,0.1-3.9,1.7-4.3,3.8l-0.1-0.1c-0.2,4.8-4.1,4.6-5.7,4.4
	c-0.1-0.6-0.1-1.1-0.1-1.7v-1.9c0-5.8,4.4-10.6,9.7-10.6h14.1c5.4,0,9.7,4.7,9.7,10.6v1.9C55,372.9,50.6,377.6,45.3,377.6z
	 M45.3,444.6h-12c2.3-1.3,3.6-4,4.2-6.1h7c2.5-0.1,4.5-2.2,4.4-4.8v-1.3c0.1-2.5-1.9-4.6-4.4-4.8H31.7c-2.2,0.1-3.9,1.7-4.3,3.8
	l-0.1-0.1c-0.2,4.8-4.1,4.6-5.7,4.4c-0.1-0.6-0.1-1.1-0.1-1.7v-1.9c0-5.8,4.4-10.6,9.7-10.6h14.1c5.4,0,9.7,4.7,9.7,10.6v1.9
	C55,439.9,50.6,444.6,45.3,444.6z"/>
<text id="Resources" transform="matrix(1 0 0 1 -60.022 -686.1596)" class="st0" style="font-family:'MyriadPro-Bold'; font-size:40px;">Resources</text>
</svg>
