<?xml version="1.0" encoding="utf-8"?>
<!-- Generator: Adobe Illustrator 21.1.0, SVG Export Plug-In . SVG Version: 6.00 Build 0)  -->
<svg version="1.1" id="content_area" xmlns="http://www.w3.org/2000/svg" xmlns:xlink="http://www.w3.org/1999/xlink" x="0px"
	 y="0px" viewBox="0 0 58 54" style="enable-background:new 0 0 58 54;" xml:space="preserve">
<style type="text/css">
	.st0{fill:#FFFFFF;}
	.st1{fill:#ffcf48;}
</style>
<path id="arrows" class="st0" d="M14.4,18.6c3.9,0.9,7.9,1.3,11.8,1.1v-7l16.2,13.6L26.3,39.6v-6.7c-2.6,0-10.8-0.5-16.7-5.7
	C2.4,20.9,2,11,2,11S4.7,16.3,14.4,18.6z M14.4,84.7c3.9,0.9,7.9,1.3,11.8,1.1v-7.1l16.2,13.6l-16.1,13.3v-6.7
	c-2.6,0-10.8-0.6-16.7-5.7C2.4,87,2,77,2,77S4.7,82.3,14.4,84.7z M14.4,151.3c3.9,0.9,7.9,1.3,11.8,1.1v-7.1l16.2,13.6l-16.2,13.3
	v-6.6c-2.6,0-10.8-0.6-16.7-5.7C2.4,153.6,2,143.6,2,143.6S4.7,148.9,14.4,151.3z M14.4,218.8c3.9,0.9,7.9,1.3,11.8,1.1v-7.1
	l16.2,13.6l-16.2,13.3V233c-2.6,0-10.8-0.6-16.7-5.7C2.4,221.1,2,211.2,2,211.2S4.7,216.5,14.4,218.8L14.4,218.8z M14.4,285.9
	c3.9,0.9,7.9,1.3,11.8,1.1v-7l16.2,13.6l-16.2,13.3v-6.6c-2.6,0-10.8-0.5-16.7-5.7C2.4,288.2,2,278.3,2,278.3S4.7,283.6,14.4,285.9z
	 M14.4,353.9c3.9,0.9,7.9,1.3,11.8,1.1v-7l16.2,13.6l-16.2,13.3v-6.7c-2.6,0-10.8-0.5-16.7-5.7C2.4,356.3,2,346.3,2,346.3
	S4.7,351.6,14.4,353.9z M14.4,419c3.9,0.9,7.9,1.3,11.8,1.1V413l16.2,13.6l-16.2,13.3v-6.7c-2.6,0-10.8-0.5-16.7-5.7
	C2.4,421.3,2,411.4,2,411.4S4.7,416.7,14.4,419L14.4,419z M14.4,487c3.9,0.9,7.9,1.3,11.8,1.1V481l16.2,13.6L26.3,508v-6.7
	c-2.6,0-10.8-0.5-16.7-5.7C2.4,489.3,2,479.4,2,479.4S4.7,484.7,14.4,487z M14.4,554.1c3.9,0.9,7.9,1.3,11.8,1.1v-7.1l16.2,13.6
	L26.2,575v-6.7c-2.6,0-10.8-0.5-16.7-5.7C2.4,556.4,2,546.5,2,546.5S4.7,551.8,14.4,554.1z M14.4,622.2c3.9,0.9,7.9,1.3,11.8,1.1
	v-7.1l16.2,13.6l-16.2,13.3v-6.7c-2.6,0-10.8-0.5-16.7-5.7C2.4,624.5,2,614.5,2,614.5S4.7,619.8,14.4,622.2z M14.4,687.8
	c3.9,0.9,7.9,1.3,11.8,1.1v-7.1l16.2,13.6l-16.2,13.3V702c-2.6,0-10.8-0.5-16.7-5.7C2.4,690.1,2,680.2,2,680.2S4.7,685.4,14.4,687.8
	z M14.4,755.8c3.9,0.9,7.9,1.3,11.8,1.1v-7.1l16.2,13.6l-16.2,13.3v-6.6c-2.6,0-10.8-0.5-16.7-5.7C2.4,758.1,2,748.2,2,748.2
	S4.7,753.5,14.4,755.8z M14.4,941.1c3.9,0.9,7.9,1.3,11.8,1.1v-7.1l16.2,13.6L26.3,962v-6.7c-2.6,0-10.8-0.5-16.7-5.7
	C2.4,943.4,2,933.4,2,933.4S4.7,938.7,14.4,941.1z M39.8,941.9v-6.8L56,948.7L39.8,962v-6.7l8.1-6.7L39.8,941.9z"/>
<path id="arrows_copy" class="st1" d="M39.8,19.4v-6.7L56,26.2L39.8,39.6v-6.7l8.1-6.7L39.8,19.4z M39.8,85.5v-6.8L56,92.3
	l-16.2,13.3v-6.7l8.1-6.7L39.8,85.5z M39.8,152.1v-6.8L56,158.9l-16.2,13.3v-6.7l8.1-6.7L39.8,152.1z M39.8,219.6v-6.8L56,226.4
	l-16.2,13.3V233l8.1-6.7L39.8,219.6z M39.8,286.7V280L56,293.5l-16.2,13.3v-6.7l8.1-6.7L39.8,286.7z M39.8,354.8V348L56,361.6
	l-16.2,13.3v-6.7l8.1-6.7L39.8,354.8z M39.8,419.8V413L56,426.6l-16.2,13.3v-6.7l8.1-6.7L39.8,419.8z M39.8,487.8V481L56,494.6
	L39.8,508v-6.7l8.1-6.7L39.8,487.8z M39.8,555v-6.8L56,561.7L39.8,575v-6.7l8.1-6.7L39.8,555z M39.8,623v-6.8L56,629.8l-16.2,13.3
	v-6.7l8.1-6.7L39.8,623z M39.8,688.6v-6.8L56,695.4l-16.2,13.3V702l8.1-6.7L39.8,688.6z M39.8,756.6v-6.8L56,763.4l-16.2,13.3V770
	l8.1-6.7L39.8,756.6z M14.4,941.1c3.9,0.9,7.9,1.3,11.8,1.1v-7.1l16.2,13.6L26.3,962v-6.7c-2.6,0-10.8-0.5-16.7-5.7
	C2.4,943.4,2,933.4,2,933.4S4.7,938.7,14.4,941.1z M39.8,941.9v-6.8L56,948.7L39.8,962v-6.7l8.1-6.7L39.8,941.9z"/>
</svg>
