<?xml version="1.0" encoding="utf-8"?>
<!-- Generator: Adobe Illustrator 23.0.2, SVG Export Plug-In . SVG Version: 6.00 Build 0)  -->
<svg version="1.1" xmlns="http://www.w3.org/2000/svg" xmlns:xlink="http://www.w3.org/1999/xlink" x="0px" y="0px"
	 viewBox="0 0 58 58" style="enable-background:new 0 0 58 58;" xml:space="preserve">
<style type="text/css">
	.st0{display:none;}
	.st1{fill:#FFFFFF;}
	.st2{fill:#A91F23;}
</style>
<g id="Layer_3" class="st0">
</g>
<g id="Layer_2">
	<g>
		<g>
			<path class="st1" d="M7,1.4v30.8c0,0,0,14.3,22,24.5l0,0c22-10.2,22-24.5,22-24.5V1.4H7z"/>
			<path class="st2" d="M49.9,31.8c0,0,0,13.1-19.7,22.8c-0.2-1.9-0.7-6.7-0.7-10.7c0-8,8.3-12.3,9.4-13.1c-6.2,2.8-8.7,6.5-9.7,8.4
				c-0.2-4-0.4-10.3,0.2-16c-1.1,4-1.4,11.2-1.5,15.2c-1-1.4-3.2-3.6-8.6-6.5c1,0.9,7.4,4.6,8.6,10c0,1.8,0.1,8.9,0.6,13.1
				C8.1,45.3,8.1,31.8,8.1,31.8V2.4h41.8V31.8z M6.1,0.2v32.1c0,0,0,14.9,22.9,25.5l0,0c22.9-10.6,22.9-25.5,22.9-25.5V0.2H6.1z"/>
			<path class="st2" d="M47.8,14V8.5H10.3V14v17.3c0,0-0.2,12.3,16.5,20.2c-0.2-3.6-0.2-5-0.2-7.5c-0.8,0.7-1.4,0.7-2.6,0.4
				c-0.5-0.3,0.9-2.1,1-2.6c0.1-0.5-0.1-0.5-0.4-0.3c-1,0.4-3.9,1.8-4.9,1c-0.1-0.2-0.2-0.4-0.1-0.7c0-0.3,0.1-0.3-0.2-0.4
				c-1.5-0.7-3.3-1.3-4.5-2.5c-0.1-0.1-0.3-0.3-0.4-0.4c0.1-0.2,0.2-0.3,0.4-0.4c1.2-0.6,3-1.2,4.3-1.1c0.3,0,1,0.2,1.3,0
				c0.1-0.1,0.1-0.2,0-0.3c-0.4-0.2-0.8-0.3-1.2-0.4c-1.1-0.4-5.1-2.1-5.5-3.4c0.1-0.6,1.2-1,1.6-1.4c0.1-0.2,0.2-0.2,0-0.4
				c-1.6-2-2-3.4-2.8-5.3c0-0.1-0.1-0.3,0-0.4c1-0.1,4.7,2.5,5.4,1.6c0.1-0.4,0.1-0.8,0.4-0.9c0.8,0.1,1.7,0.9,2.3,1.3
				c0.8,0.6,1.7,1.4,2.5,2c0.4,0.1,0.3,0.2,0.3-0.2c-0.7-2.4-1.7-4.7-2.3-7.1c-0.2-0.9-0.3-2.1-0.1-3c1.2,0.1,2,1.3,3,1.9
				c0.3,0.1,0.3,0.1,0.5,0c0.9-2.3,1.5-6.6,3.8-8c0,0,0.5-0.3,0.9,0c2.4,1.4,2.9,5.7,3.8,8c0.2,0.2,0.2,0.1,0.5,0
				c1-0.6,1.8-1.5,3-1.6c0.5,0.5,0.1,1.8-0.1,2.7c-0.6,2.4-1.6,4.7-2.3,7.1c0,0.4-0.1,0.4,0.3,0.2c0.9-0.6,1.4-1.1,2.3-1.7
				c0.6-0.5,1.8-1.4,2.6-1.6c0.3,0.1,0.5,0.2,0.7,0.5c0.7,0.9,4.1-1.3,5.1-1.2c0,0.1,0.1,0.1,0,0.5c-0.8,1.8-2.1,3.3-2.9,5.1
				c-0.1,0.2-0.1,0.2,0,0.4c0.4,0.5,1.5,0.8,1.6,1.4c-0.4,1.2-4.4,2.9-5.5,3.4c-0.4,0.1-0.8,0.2-1.2,0.4c-0.2,0.1-0.1,0.2,0,0.3
				c0.3,0.2,0.9,0,1.2,0c1.4-0.1,3.2,0.5,4.3,1.1c0.1,0.1,0.3,0.2,0.4,0.4c-0.1,0.2-0.2,0.3-0.4,0.4c-1.2,1.2-3.1,1.1-4.5,1.8
				c-0.3,0.1-0.2,0.8-0.1,1.1c0,0.2,0,0.4-0.1,0.7c-1,0.7-3.9-0.6-4.9-1c-0.4-0.1-0.5,0-0.4,0.3c0.1,0.5,1.1,2,0.7,2.3
				c-1,0.3-1.9,0.3-2.6-0.2c0,0-0.1,3.1,0.4,7.5c16.6-7.9,16.5-20.1,16.5-20.1V14z"/>
		</g>
	</g>
</g>
</svg>
